<mxfile host="Electron" modified="2024-05-02T08:29:10.873Z" agent="Mozilla/5.0 (Windows NT 10.0; Win64; x64) AppleWebKit/537.36 (KHTML, like Gecko) draw.io/24.2.5 Chrome/120.0.6099.109 Electron/28.1.0 Safari/537.36" etag="hanM83yWp6UkEaG0MhCV" version="24.2.5" type="device">
  <diagram name="Pagina-1" id="K-_SVCFjszrjpJlUvBpr">
    <mxGraphModel dx="1434" dy="844" grid="1" gridSize="10" guides="1" tooltips="1" connect="1" arrows="1" fold="1" page="1" pageScale="1" pageWidth="827" pageHeight="1169" math="0" shadow="0">
      <root>
        <mxCell id="0" />
        <mxCell id="1" parent="0" />
        <mxCell id="hhoL0Yq2MwJK9wanIXYg-1" value="" style="shape=image;verticalLabelPosition=bottom;labelBackgroundColor=default;verticalAlign=top;aspect=fixed;imageAspect=0;image=data:image/png,iVBORw0KGgoAAAANSUhEUgAABPAAAAOPCAYAAABFED+ZAAAAAXNSR0IArs4c6QAAAARnQU1BAACxjwv8YQUAAAAJcEhZcwAADsMAAA7DAcdvqGQAAP+lSURBVHhe7P0HYGTXfR/6f+dOLxj0vr3vcsldctm1LKJEipREqtKKY0sW7dh5SeyX5DXnn/d/sew8x8l78Uv04liRG2VRki0xKhYtiRIlik2kSIplyeVye8cCi15mMP3ed35nzgCDwQCLMgAG2O9n9+7ce+bOnQLs4M4Xv3OO655bb3RAREREREREREREVckyl0RERERERERERFSFGOARERERERERERFVMQZ4REREREREREREVYwBHhERERERERERURVjgEdERERERERERFTFGOARERERERERERFVMQZ4REREREREREREVcx1z603Omb9qmS53QgEQvAHA/D6/PCpxeP1wu1Ri7rOZVlwuVx6X8dx4Ng2crkcctkMspkM0ukUMmpJJZJIJsdhq+uIiIiIiIiIiIgq5aoL8NxuD8LRKELhGrWE4QsEzTWVkU4mMB6Pq2UM8dFR5HJZcw0REREREREREdH8XRUBnsfrQ01tnV5CkRrTujzGY2MYGxnWSzaTNq1ERERERERERERzs6YDvJpoHWobGhGprTMtKys2MoyRwQGMjQ6bFiIiIiIiIiIiotmtyQCvvqkZ9Y3NFe8eWynSzXZooA9D/X2mhYiIiIiIiIiIqLw1FeBJcNfQ3Aavz2daqlsmncZgXw+DPCIiIiIiIiJa9W76+G9iS61aSV/Cm1/9Ho5d8yF8/OYOeFXT6Ik/xw9e0LvRAqyJAE+6yja2dSAQrM6KuytJJhIY6LnErrVERERERERExYoCoFKZ7pfxrSffMltUDaopwPO4PYDLbMxBLpeD41RvRLaqAzyZnKKlvRPR+gbTsrqNDg2it7uLk10QERERERERiVkCPG3kGL7+refMRqXciQce2YkoUrj8ypfxzDumuZpMvC7DOP3o43jVNK+0agnwNmzehlvvuhsu19wTvOT4OJ76+7/DeDxmWqqLZS5Xndr6RmzZuWfNhHdCnos8J3luRERERERERDRJAqCvPyrLMYyaNgRrsNOsVszBVkTNarXaub5x5lDzKufxenHTwTuQzWYx1N+PoYErL4P9fXo4ti07Kv7dVDGrsgKvbd1G1DU2ma21aVh9A/VcPGe2iIiIiIiIiK5C5Sq4itpKu9FOVIAZxddPqQ57Ux1morJvstKu9PZ5xVVuheq8IlOqACevz3Qfw2DjTrT68o/9dOQz2N/uV9fI8S6jqeg4xdVp5R7D5PO4Dnf/yi36mFMUKt7U6s77C/dTMFslYdHxio5R3D7rfU+5zRwq8PAwPrW9Tu9b/JxxsNC++IpCn8+Pj/zyr2Kwrw9Pf/8J0zo7R/35yC9/GmdPHsehV182rdVlVVXg+QNBbNq+a82Hd0KeozxXec5EREREREREV7vo9t/Epx5Riw6EJJT686LwTsKl6cGXt/0WfPz+68xWQWNReCf8aN3/oStX8knIVBreidqd+NSvTL+9tz0f3k0XxPpfmXqc6PaHcZNeuw7hMjFA+edRKv8aTA3vhHp+N/8mHjhoNqd4C90DqfyqrxHt1+RXcc16NOjHnsLgBfUaSxD3SJng0NeB/Y8UHvscvHB5onoy2nKnWQNuasmHehi5XLnuwK58MFf8JxSJ6Eq74jb5Y3avaqsmwAtHa7Fx204EQmHTsvbJc5XnLM+diIiIiIiIiApKQqmDhbAsH+zprrYn8hNFehvXTw3XfH4kTuT3OT1SaMuHV69+a/J2k8eSirDrcPdGEzJJdZnuylu0r68DW6YFZFJNlt9v6thvfmDgZd3+ZrcJz1CHJn37t/DMV82xzVJ4jPnnkb9+8nbmPqTabeI1yFe35W//Mi6bYfajG8uHlMeePGtCNT8a1udDwokuuukBdEtl4s5C4Dn5nL7+yiVkdFsd1l8xXCx4DqcLj7221QR/d6LJxB6jvZUZz7Dc2HehcAT3PfQxPPCJh3WV3mqzKgI8GRNu/eZtsNxu03L1kOcsz53j4hEREREREdHVrGwoZSrXdkYKZWv5YE9X6pmumvCFplbNpS/htAnUXu0thHVXUoegCccyAxcmuowWV5QFIyUh1ozVZMO4YCoHj10YMCHYJOkCqx+/WaZ36S1v8jUYRv9EYFhcYVfyOkx4Dv1TQsLr0N6YD7hGz0n32KKqwOLn9M4FDJqvgzdkXus5mHzOJrQsjDlY9HVZjEwmrSejePWFqWFgIh7H26//Qod3d977gVXX47HqA7z6pma0b9hktq5e8hrIa0FERERERER0dSsKpRBE+BogGpqtoiq/z6JcU6OOMj+Z8bmGg0UOPjzZBVbG1nu0qErwCmZ/DWb36jFTTSch30T32UIQOBleVsQ738MF85wk9Cx0n50SjC6WbeuCqLqGxomltqEBA72X0dN1Uecrt931XnhXUSVeVQd48oK2dm4wWySvBUM8IiIiIiIiurpNVogVjI4XAr2iLrQTy0wTOMxDcbVZcZfcohlrE7HCeHwLN1FFNzExRvkx8cqZrCYsdMcVRa9Venxy9t5SE8+vDuv3m+6zE9V2kxV6k91elYmgb/5hZeGxehv3Y72uMDRj7VWA1+vD+x/8KO4ts0h7W+c63cW2pb0DB+95v7lV9avaAE+6jDK8m05eE3anJSIiIiIioqvNxCQWxZMpjJzV4VzxOG4TXWjNUn7yhlkMjZsunoVjSTfdt/DMORNS6YkbzPEL3XQr1P1zgkyMoe+jzMQRyrFYwqzVYYvsJ5NovHCsqGuxeXxFt893h53JZFVjoSqteDy6iQq9wv3JMjERyGSX4DkrdD1W91U81l4l5HJZHH79F7q7bLnl1LF39X6ZdBpvvVaxKTOWXFUGeDJpA7vNzkxeG05sQURERERERFezTPfLpkpNPIcfFI2NtyjvfA/vTEwSUeSFx4smbpikH4dMImG2F+PYk1+e0mVWjl22C616LNPb8xNcTG/PTzwxdSKN6SZDUKU0kFSvybcePTa9gk9385VJPuaraDILZfZwcX5yuRyOvv0WjpVZus6dxcYt25DNZPDiMz/BQF+vuVX1c91z6435+XKrhAwiKDOvXo0TVsyHrb4hz508hlSykLoTERERERERES3UnXjgkZ26S7AEh9+ab1XdPMlkHfnx/iRgXEgIWJ50ob3nQw9hZHAAP3/up6ZV8qYAHvrUr8C2c3juR0+i73KPuSbvo7/8aZw5eRyHXn3ZtFSXqqvAa1+/keHdHMhrJK8VEREREREREdFi7bx/kxnPr3Lj0c3sTmyZmKxjptl6F0bGt4vW1iJcU2Na8tKpFN585ed49kdPov/yZdO6elRVgNe2biMCobDZoiuR10peMyIiIiIiIiKihbjp4/kx7Qqz32a631z8pB8zueZD+LgeQy9f6aer7ya6QS8tx3Fw4t130H+5B476s9q4N6/r+JxZX1EyMUNze4fZWh62bSOTySCZSiGZTGJcLfHxcYzF4ojFY+pSlri5zK/H4nG9T3w8oW6XRCqd1sfI5nLy3aCTXlmWSyAU0gMvsistEREREREREc1X5+4DqA/k15e862zLDuzurEG+32Vlu84WSI/FXdfuQzabRTwWQ0209spLTRTrN23G0EA/Ll/qMkeqLlUxBp7H68OWnXuWrOusDGCYSCaRTKZ06CaBXSYtoVvW7FFZHrcHXp8XAb9fLQEEAn4EAwG4l+j5yXh4p48dQTZTidE6iYiIiIiIiIhWr/c+8GE0tbTqqru5kP0sy8LPn30aF86eMa3VpSoCvI4NmxGtbzBblSEVc0NDwzq4S1dJsOX3+xGNRBCNRhEKBk1rZYwODeLS+er8JiMiIiIiIiIiWi5SKNbY3Gy25kZ6Nw7191dt99oVD/BqonXo3LzVbC3e4NAwLnR1IZFIwufzweutzgkxpDKvtbVFB3qV0nXmFMZGh80WERERERERERGtBSs+iUVjW+XGvbvc24cTp07p8E5Y1vKNRTdf0pX33PnzGBwaMi2LV8nXkoiIiIiIiIiIqsOKBnj1Tc0IVLAr6eDwkMwjMWGufZ1X0sjYmFlbPHkt5TUlIiIiIiIiIqK1Y0UDvIbmNrNWGW63x6zlrYL8Dm6rsl18K/2aEhERERERERHRylqxAE8qxbw+n9mqDI+79OnY5rJ6VTrAk9eUVXhERERERERERGvHygV4jZUPmTwer1nLWxUVeJ7KT7KxFK8tERERERERERGtjBUJ8GTmWV+gcmPfFXimhWHVn+C5rcp/CeS1ldeYiIiIiIiIiIhWvxUJ8GobGs1aZXlW4xh47spX4Imleo2JiIiIiIiIiGh5LXuA5/H6EKldmuqw0jBsNcxC61miAE9eY3mtiYiIiIiIiIhodVv2AK9micI74fWUVuCtgi60SzAGXsFSvtZERERERERERLQ81lSAt1TdUZfSUj5mBnhERERERERERKuf655bb1y2MjW324Pte/eZrcpLp9N4/dDbZks9ORcQClV+soxK2rV9O7zeqbPnVtKJw4eQy2XNVpWJ7sQt9+zHhvp8V1871oOTP38Khy7ozcpZfwB33boTLZF8WJoZOoPDT7+Ak6N6s0pEsO3Oe7B3cy28EqtnYug99gqefbUrfzURERERERERXbWWNcCL1jegY8Nms1V5uVwOr77+ptnKC4erO8C7ZvduWJI0LpFL589gdGjQbC3Ojvs/hX3tixxXb+QkHv/WS3p19wf/Ifa2llQgjp7Bs998Ab1mE7gNH3hkG6Jma25GcObR7+IXer0Nt3ziXmwoOYB9+U188/uTYe+K23c/PnFDc0lJbAznf/htvHzJbBIRERERERHRVWlZu9CGwjVmbWlId1TLmhqGVfMweC6Xa0nDO7HUr/lihANlug9HGtBpViujAYGAWS1iRZuxdFHyAtT4yvxnjKBuo1klIiIiIiIioqvWMgd4YbO2dKbPRGubteqzHGP2LcdrvlDxZM6sFYkNorKdRgeRTJrVIvZoH86Y9aowlsb079QYhs+ZVSIiIiIiIiK6ai1bgGe53fAFlr47q6dkVtdqrsBbjgBPXnN57atDGr3HJ7utvvvCSzjZnzZb+THwjr9S3H22Enrw8rNvoic2GRbKGHiHXqii7rPi0At49eggMoUUT8bAO/wKu88SERERERER0fKNgSddOTds22G2ls477x7FWCxutoBAwLcsQdlChEIhbN20yWwtnfMnj2M8Pma2Fi7ctgGN4Su/lu6WPbhhV8O0dDjT/RqeevIIJr86c1FuDLw0Bg6/gpMzDu2XxuipLgybLSIiIiIiIiKi1WzZArz6pma0dm4wW0vn6PGTGB4ZMVuA3++bVpVXLaI1Ndi4fr3ZWjqXu85jqL/PbC2x6B7c9aEDaCkddy7Zg0PfewrH5z3za/kAr/eVr+PZd8wmEREREREREdEatmxdaL0+v1lbWl7v1LDOqeI+tJa1PMHicr32MunC3jv2Tw/vJHB7ayHhHRERERERERERLVsF3rpNWxGprTNbS+fs+QvouTw5iprP54HX6zVb1aWpsRHtra1ma+nERoZx8ewps7V02g8+hNu3105LheNnn8b3fzp9aood938K+9p9ZitPutl+58kjZkssvgLvxo9/GptrzYYxeuIx/PAFs1GqaRv2XrcNnU21iAR9sIqekJ1JIzHYg/Mn3sbhEzP04b3mXnz05jZM+a5L9+DQV59C7+6DuGX/BkTNDLyjx9Xj+JlameU2x83mrPtEN2PfLddic3stJjLsXBrJoS68+9ILONlv2may2OdMREREREREREtm2SrwPMsUonk9HrOWV9WTWCxTBd6yvPbrb8N1W6aHdxg9gzfKhHfVKYJtdz6Ej37oNuze2IxoeGqQJSyvD+HWDdh98EP46EcPYtvUZHF2e+/F3bdungjvNJe5XIz1N+PeBw9ix7qi8E64fQg0bcb1H3wIN87YU3uJnzMRERERERERLdqyBXhuz/IEeKUTVlRzF9rlmlxj6V/7Ttx+6zZES59ObgRnXnkB3WazukWw4/4P4fqttfDO8X+Ft17CsXuxY06BVgTb9pdUz1VEBJsP7kTd1ELGqdy12HjDAYTN5qSlfs5EREREREREVAnLF+AtU1hVOmFFVVfgLVeAt6T3IyHQQXRGzOaEHEZPv4ZfXDCbFeVDy82fxsOPlF8+cNDsNg8t77kH15Z05y2wM7n8YpuGYsE2XHvH/jLhWAlfBOGlyFHVcaNmzEH9GHP59VJWQyd2l4RuS/6ciYiIiIiIiKgili3Ac5X2y1sinpIutEA1V+Atz2uylK99eO9t2FMmBLKHzuCNF1ZL19lrsXfz9O6/drwL7/7g2/jmV76WX779FN69mEBppmW1bMO+rWZjVjkku4/hF088hscffQxP/fhNnLpsrlqMZB+OP2se55e/jZdPjUx7jEAt6neZVW25njMRERERERERLdbyJEiKy1WJwb6ujF1op1uy1z66H7eU6xaa6cOxp1/C5FQiVe6GTtSXPgl7EKeffBqHe2KmQRntweGnXsDFabPpBtG4ebNZn1mm+008/eQrOGMmlBi+8DZOnsivL1wOA0eexKHThccZw/nnjqA3YTaLWMU56zI9ZyIiIiIiIiJavGUL8JbL9EksqjfA8yxTgLc02nDjPXvQOC29S6P3zRdweFrgU702NESmV6L1d+GNss+hB4f7igIuIxBpM2sziaH3rSOIm62KSffh4iGzPuEkRssEeMWW5zkTERERERERUSUsW4C3XEHa9Ao8s1KFlqsCbyle+/aDN2Nj/fTHn+l+G784PD3sqaw0el/Jd0Mtt/zwBbPbHAVKxk0UifEeszZdfDCGjFmfcKX/SekY+i+Z9WWQSKXNWnnL8pyJiIiIiIiIloBL/SklbeXa14rlC/DKjoZfedPHwKveEG/ZArxKv/br78L126ePn4ZkD468uARVZtXG58byfOWqyNX4nImIiIiIiKhq5MM5FyzLgsfrhc/vh98fgD+gFnXp9fngVu0yjNhaDPJc99x647LEW1t3X6tfzOXw6utvIJebDK2CwYD6AlfXF8+y3Lhm106ztbQy6TROvfu22VqsPbjrlw+gxcx8OimBnhf+O56fx5huO+7/FPaVTICR6X4N33nyiNkSt+EDj2zD1AlUpQLv63j2HbN5BTd+/NPYXGs2jNETk5V6G97/SdyyPpjfMOzet/HN771ptqZqee/HcNemqdPuTtn/mnvx0ZtLxgZM9+DQV5/CcbM5zVxuM4/jlnttl/Q5ExERERFVUDAcQW19I0KRiPqQPu3DBxGtsHQqifFYDCNDA0jEl7IXXiHLcdDS1o4NW7ehtb1D50uSq+hr5R9Hircc2LaNcfV4zp85hTMnjiOVTOowz6niCU7natkq8HLZaR3wlsxqmInWU6YL41Kp3GsfwY77ry0T3gHxsy/NK7yrJucHY9NnWa1vw96pqaHRiW1NU4MsERs5adZWh6vxORMRERHR6tC2biM2btuJusYmhndEVUr+b8r/Ufm/Kv9nl4IEb16fF7uuvRYf+OgncNcHPogt23ciHKmB1+vT2Y9bFnf+UqryJNira2jEdQduxocf/mXcff+H0Llp08TxVrNlC/CymeUL8PY3DaEhkDRbksKalSpR60tjd8PyzfJQqdc+vPc27Cmp6tJGz+CNn3aZjVXo9S4Mlb5E3mbsvPcubGsy2yK6Gfs+dBCdpVmWPYKBiVlgV4mr8TkTERERUdVbv2W7DgWIaPWQ/7Pyf7dSCkHbhq1bcf/HPqnDuNq6+nzXWLNIN9ri7eL2Ahm2rKWtDbff/T7c/YEPIVqvjrGKQzz35nUdnzPrSyoQCusy6OWwznUKeyJd2BwdRcSThtvjRsb2wl6hL5THZaM5lMAW9Xiubx7AnsYhBAMBjFjrzB5LKzY2gvjYIgPDjttwz3s2IFQu8vXXY8P1+3DNXJZrWpF9+zQG1M0at+1FW83USkQ71o2jJ/vMlliPbdc3wG+28nKId72Dc8W7zaJj9z7Ul/ziLjX4Fk6dNxvoRbJxKzbUTQ0nXf5atO/ch91792LPdddiz55NaIpMr5zMdL+Dp98sejAtW7GrMzJ1zLhcDJfN8y5rLreZx3HLvbZL+pyJiIiIiBZJqnii6kM6Ea0+Mh6dx+tDbHTEtCyMBGxurwcH3/cB7L52n66uK4RyEtDNRXGgV9gOhcPYunM3xtTjk2W5JlqtpGWrwMukU2Zt6dmufBfaGk8Gu+uGcVfHJXxk6xk8sPE8bm/vwbWNAzrcawuNo8aXhs/K6f0XQ44RVceSY0pQd23joL4vuc+Pqvu+s7MbuxqGEfXnZwfNuaaMZLakKvLab2lGdHqOs2Z0//QVnBkq/31ged35pcz/FnvkJF7+YfGYfavH1ficiYiIiKg6SbEHK++IVjf5P7yYwi0J74LhMB742MNo7ejQIVtxCLcQxbeX5da73ovrb7ldt602yxbgpRKTXVqXWs41tV7LseWLDkR8GXRG4jpIu7G1D3d0duP+jRfwka1n8cltp/CRLWfxwY3ncd+GC7hnXRfu7uzCXZ2XcGdHfpF1aXufuk72+dCm8/o2+rbqGB9Qx5JjHlDH3tUwpO9L7rPc91kOZbqiLpHlfO1Xry784jtP4vDF6WPDlZdDvPsIXvzWS+g2LavP1ficiYiIiKgayYQVRLT6LfT/soR3kWgUd3/gAQRDoSnBW0Ghaq4wWYUsjjN5Ke0zVdYVH2frzl248fY79H2uJssW4CWT42Zt6dklAd5cJrGQr6XPnUPYl0GtP43GYBLNoSRaQgm0hvOLrEtbg7pO9gl5M/o25QK6K8lNnUt0SS3na7+6DeLdp76NJ3/wGs50DyKezKk3AnOVsNV2OoHR7pM49IPv4vtPvrYGgqyr8TkTERERUbWR2WaJaPVb6P9ll2Xh4PvuQyRaa1omQ7fiYK6wnojHMTYygpHBIcRjMWSzWX29KN6/WHGIt2XHTuy89ropbdXOdc+tN1453aqQLTv3wBcImq2l05B8Bw2JQ2ZLPUmvD25/aai3snqtPRh0bzVbSyedTOD0MXZ3JCIiIiKi6rVr3wGzRkSr3dFDr5m1uZFKuIPvvxdtnesnArXi8E7W5TKXy+HMiWN49603kRifWqhkud1Yt2ETrr/1NviLZq8uF9AVh3s//vu/w2D/6hjffdkq8MR4PG7WllbOKgnrnLl1EFxOtmt5utAu12tORERERERERDRfze3t6Fi/sWx4V7g8+vZb+PvH/xZv/PwlJMYTur2YncvhwtnT+Ptv/A1eeuZpZDOZKUFdsclQz9Ez1Ho8+XkUqt0yB3hjZm1p2aXdU5etxnDussvUhXa5XnMiIiIiIiIiormSyjuv14cbbz+ox7HTbSXhnXSNlUDu7dd/gXQyCUf9KcRvcvvCH9mS29g5GxfPnsFPvv8ExuMx3VZYiuXvx6W7/O685lpzjOq2rAFefHTUrC0NKaccGhlB92Bp1Vn1JXj9w3HEYjH1mJe2OnCpX3MiIiIiIiIiooVYv3kzIjVRHaiVhnfi8Buv6UBOT1Ih4Z3LQk1dHXbs2Ytb7rwbt9/zflx74Ca0tLXpSjrZR/6MDg3hmSe/j2w2Y440s43bdugx+Kqde/O6js+Z9SUnL3goUgOvr3Lj0cVicVzu68P5ixdx9vxFDAwMYjCWRmc4hqA7p/eR7wHLu3yzvl7JUNKP17uDGBoZRd/AAMZiMWSyWbjdbngrWLo5HhvD8MDq6MtNRERERERXr6a2DrNGRKtd/+W5T324/+bbEAqHpwR4QkK8C2fP4K1XX9GBnJDrZfbYmw/eibbOdYjW1aOmthbNLa3YvGMnNm7dhlPHjsqN9W2kG+3I0CA2bNkit55yfFHY9vn9iI2OYmR4SG9Xq2UN8IQMLFg8q8hCSKVd9+VenD57Fpd6LmNsLIZMZnLGEdtx4cxYLbK2hagvDa/lwPKtfIA3nvbiyGA9Xutthl1U/CglofHxcQwODWF4ZBSO7SAQCMAq+eaar8G+XiTHOQYeERERERFVNwZ4RGvHXAI86bIaCkew/8abdfVbIUwrVN9Zqu3lZ3+KVDKpt8Vtd92DDVsmJwOVfYpDOY/Xi2279uD8mVPIZNK6bWx0RI+vFwjmJ1QtDfEKAqEQzpw4braq07IHeJKANjS3mq35kS/kpe4eHD91GsMjI8hm8xV25UiI158O4USsGf2ZWsQyfp3ZSpjnUctySGXd6E8EcHokircHGvDWQCMGkgH1OGYO5iScjMXjGBgc0nuF1DfZTN9gV9Jz8Txse+bXiIiIiIiIqBowwCNaO+Ya4G3ZuVPPPKu3Te4hl5L99HZfwrF33taVdLLvjmuuzY9VV7RfQXGbFI01Nbfi3OmT+jhyW7fHi/Z16yb2KVbYlh6RJ48e0QVV1WrZAzwJlALBEHyByWl950Kq1N49dhz9A4MTiexM3G4Lfr9XD4bo8biRtH0YSAZxfqwGx4brcGqkFj3xIAYSQQyn/BjPepDKuZFRS842lXHqa6jXpn5tISlgTjVKdV9C3S6e8WI0rY6fCOBSLKzv48RwLd7qb8KRwQa9LfedzM2va6w8RwnyYvFx1EZrdLI8H7GRYQwP9pstIiIiIiKi6sUAj2jtmGuAt2f/DXr8O71tgjQduql1mbRCxrGTPSUPue3u98Lj8errSkM4UWiTS+mSO9jfp7vFinQqie27r9Hr5W4rJMCT7reFyr1q5Lrn1huXPV6sidahc/Nk2eNcHD95CoNDw2arPMtywefz6QCvUlxwYLnyL5FU9c1WPbdUaqNRbDBp8Vx1nTmFsdHZXy8iIiIiIqJqsGvfAbNGRKvd0UOvmbWZSSj3gY98HDW1dVNCtULB1ve/9ThioyN6PRAI4sFP/UO930wBXEEhADz+zmG88cpLphX48MP/AKFQuOxkFYX7fPGnP0HXubO66q8aVS7pmgcJltLJhNmaG+kyOxsJ7WTcuEqGd0ICu5xj6WUlwjsxOjZm1uZGXluGd0RERERERERUbaT6Di7p2lq+p6L03Mxl8rPHyr4yUcWVgrsC2U8CuWA4bFryZCy92WI5uU20rk7usGqtSIAnhuY5O6qMBTcT+Tr6/X59uRYF59ndeL6vLRERERERERHRcpFgzuWyJqrfikl7oVJOquGSibkXgBWOJ/MvFNPdb816qUI46PV69WW1WrkAr78PmfTc+xZv3bxJvZjl09n8zCNmY43xeDxY19lptq5MXlN5bYmIiIiIiIiIqpMEbfnurqWkLVJTo0M+kRiP5/OjMmHfTIYHB8xafnbaYCiUr/4qoxD62batL6vVigV4YrCvx6xdWTAYxLV7dqO+NjrtNZcX2a7imUIWqiZSg+1btsDv85mWK5vPa0pEREREREREtNwkM5tpxlcJ1Do3bjJbQC6bw/DQoA7gylXsFRRf13X+nKnyc6GppVWHeFeSTqfUQcxGFVrRAE8qxeZTCikTVOzcsR27d+5AfZ30gc63y9dIXuhZvo6riAvRmhps3bwZmzas1xV4cyWvJavviIiIiIiIiKhaSbdYx7HzgVkZErpt2b4TXp9Ph3Cy/8vPPZMfx86R2+aXgtLt1156AfHYmLkfRx/rSuQ+h/onq/aq0YoGeGKg55JZmzsJuHZu34brr7sWmzasQzQa0V+UpPpiZrM5s9fqoctDQ2F0tLVh147t2Lh+/axj/s1kIa8lEREREREREdFykgxneHBwYr1A8hEhE1ys27RZr4tEPI6fP/fMZBGYuo3crrCIXC6nZ589c/KE2tL1dwiFI2jt6JxyH+XY6rajw0M69KtW7s3rOj5n1ldEOpWEzx+AfwGBldvtRiQSQXNTE9paW/W6tNk5W33h8n2XC1V61cSy3AgHQ6irrdOPvbO9HQ319Tq0c5eZ0nguRocGMdDL7rNERERERLT6NLV1mDUiWu36L3ebtZlJUCfL+s1bJraLSeDW1NqGc6dPIpfJ6mAtPjaGsyeO6/zI7w/o28h+ei6AgX68+uLzOH386ERYJwHepm3b0bZuvZ47QbfNEBKlUkkcPfy2DgarleueW29c8Ufn8fqwZeceWG63aamMlPoiptWSSqXUotazGWQyGd12pfR1seSbQrr8yiwmPo9XfXP59Ey5svgqPLOJJMWnjx1BNjP3SUGIiIiIiIiqxa59B8waEa12Rw+9ZtZmJ6HaQ//gV+Dz+csGeLKMjgzjh9/5pg7jiqvjZJZauY1ul33NBBTlKuj2Xn8Ae/ZdPxH4lbuv7osX8MKPf1T29tWiKgI8UVvfiPYNk4MULrWc+uJms1m9SJmlVOzl7Jz+otvqiycTY6gLRb5p9E3UF1n/qy/lG82SbxZ16bbccLvVpdutx6yTZaGVdAvRff4sRoaqu682ERERERHRTBjgEa0dcw3wxG133TNrFZ4YHR7Gc089ifF4rCjIk32nxlmF62TCCqnaE7It7Tv27sW+G2/RbaJwX4X7+OmT30N/T4/ev1qteBfaglQyoSvxAjK17zKQ8M3jdutqOKmKCwYCugtrWN1/JBxGTSQysURr8ktxm+wj+8pt5LaFyjo5phx7uQwP9GOg98rlqURERERERNWKXWiJ1o65dKEVEqxJD0np5qq3Z8hSfH6/nohCiqbisRiy6Yy6ZZ4cQ/6IYCiEjVu24fb3vg/hmhpdVSfXSSg32NuHXDaL5rZ2fT+y6PBOLQP9fTj8xtxDx5VSNQGeiI2OIBKt1UEeXVlyPI6LZ0+ZLSIiIiIiotWJAR7R2jHXAE/IbLFNra0IR2r0dnGIVwjahIR3LW3t2L5rD+oam3TxVzAURn1jI9rXb8De/dfj+ltuR4dal6HMGpqaEQqHcenCeTmSjvgG+nrRsW4Dgqp9gjr+oV+8jLHhYdNQvaoqwBOJ8Thq6xt011SamYx7J+GdJMhERERERESrWVR9BpRZJ4lodZOJSof6+8zWlUm0NjjQj+2795iWqSGeKA31aqK1aO9chw1btuqZaiXYC0Vq9HV6X6msU5d1DY3qvaUeF8+e1hmTVNx1btykby9ku6froq6+q+auswVVl5JJV9qu82fMFs1EXiN5rYiIiIiIiFa78VjMrBHRajbf/8sSnI2NDOONl18yLZPj0hWbCOeUwoyysp/eV7VLW+H6QkGYbK/ftFl3qW1obML2PdegraNTXyfk+td//qI8iFWh6irwRCaV0tMA19TWmRYqJpNWjI0MmS0iIiIiIqLVTSYWrGtoMltEtFpdvnQB2UzabM3dYH8/IjVR9T7QYFryAVupiZBOXRYvpYrbonX12LJjJ9o710+0S+b07A+/j9GhoVVRfSeqtp+qzKp6uUv6KlMxeU044ywREREREa0liXhMT9BHRKuX/B+W/8sL4+Dl559B17mzExV45Srx5qMQ1pUGfDIU2Wsv/Qz9vZdXTXgnqnqgOek3zRBvkrwW8+lLTkREREREtFr0XDyH+Nio2SKi1UT+78r/4cV66dmf4vyZUxOhWyVCPDlG8eXzP/6hvo/Vpiq70BZLjo+zO60i3WaHB/kbKSIiIiIiWrtGhwbh8fr0DJNEtDpI5d2lc6fN1uJIyNZ94YKenba5rV3PPlugI72SarrZlIZ/w4OD+OmT31OPd3X2anTdc+uNq6JeMBytReeGzbCKvnhXA5ltViasiI+OmBYiIiIiIqK1LRiOoLa+EaFIBD5/wLQSUbWQ2WZlwgoZ4mvh3WZn5lJ/IrW1uO7ATejcsNG0TlXaNbagNLhLjMdx6thRHDn0hj7uauo2W2zVBHjCHwiiff1GBEJh07K2JdU3WfeFc5xtloiIiIiIiIiuKoWwLVpbh/0334bG5mZ4fb58V1i9w/QAr9BN1rFtJMbHceLoEZx894gujlqtwV3BqgrwCtrWbURd49qeoUhKUCvRf5yIiIiIiIiIaLWSIE94fF5EorXYuHkrGltadLDnsiandkgnk+jv60VP1wX0dncjmUzoIK+0Im+1WpUBnpBy6tbO9WuuS62kwpfVNxtnmiUiIiIiIiIimqowIYU1Ed5JwOfkgzqTcOWr7fLta8WqDfCEDG7a0t6JaH2DaVndZMDW3u4uZDNp00JERERERERERFe7yVrDVUiCrkvnz6DrzCkkE6t3nDh57PIc5LkwvCMiIiIiIiIiomKrugKvVH1TMxqa2/SghqtBJp3GYF8Phvr7TAsREREREREREdFUayrAK5Agr76xGb5A0LRUl3QygaGBPgZ3RERERERERER0RWsywCuoidahtqERkdo607KyYiPDGBkcwNjosGkhIiIiIiIiIiKa3ZoO8Apksoua2jq9hCI1pnV5jMfGMDYyrBeOb0dERERERERERPN1VQR4xdxuD8LRKELhGrWEK97NVrrHjsfjahlDfHQUuVzWXENERERERERERDR/V12AV8pyuxEIhOAPBuD1+eFTi8frhdujFnWdy7Lgcrn0vo7jwLFt5HI55LIZZDMZpNMpZNSSSiSRTI7DVtcRERERERERERFVylUf4BEREREREREREVUzy1wSERERERERERFRFWKAR0REREREREREVMUY4BEREREREREREVUxBnhERERERERERERVjAEeERERERERERFRFWOAR0REREREREREVMUY4BEREREREREREVUxBnhERERERERERERVjAEeERERERERERFRFWOAR0REREREREREVMUY4BEREREREREREVUxBnhERERERERERERVjAEeERERERERERFRFWOAR0REREREREREVMUY4BEREREREREREVUx1xe++HnHrBMREREREREREVGVYQUeERERERERERFRFWOAR0REREREREREVMUY4BEREREREREREVUxBnhERERERERERERVjAEeERERERERERFRFWOAR0REREREREREVMUY4BEREREREREREVUxBnhERERERERERERVjAEeERERERERERFRFWOAR0REREREREREVMUY4BEREREREREREVUxBnhERERERERERERVjAEeERERERERERFRFWOAR0REREREREREVMUY4BEREREREREREVUxBnhERERERERERERVjAEeERERERERERFRFWOAR0REREREREREVMUY4BEREREREREREVUxBnhERERERERERERVjAEeERERERERERFRFWOAR0REREREREREVMUY4BEREREREREREVUxBnhERERERERERERVjAEeERERERERERFRFWOAR0REREREREREVMUY4BEREREREREREVUxBnhERERERERERERVjAEeERERERERERFRFWOAR0REREREREREVMUY4BEREREREREREVUx1xe++HnHrFfc+HgO6YxttpZONpNGMjEOx7YRCgfQ2Firnpm5koiqRiaTQff5i+jt6cHwwBDisRgyqTQc9YeIiIiIaLVwqT9evw/hSAR1jfVoaWtD+4Z18Hq9Zg8iospasgAvl7MRi+fgLMPn8lw2i+R4DLZtw7JcaG6th8/HN06iajEyNIQTR47i7PFTDOuIiIiIaE2SUG/Tjq3YvmcXauvrTSsRUWUsWRfaXNasLAPLbcHlypfcOY6DdCqj14lo5R169TX86Dt/jzPHTzK8IyIiIqI1S8515ZxXzn3lHJiIVgsHtpNTSxY5J6MXWYez9D1K52NpKvAcB/FEDplM/tDyb1K9AEO5cWQxtxcgk565D6xtO8iarrk+txstwRC8mbS6TVq3BYM+NDTVwrI4xB/RSpGqu1effwlDAwOmhYiIiIjo6lHf2Iib7riN1XhEVSbnpJG10xhKXcDl8ZMYSfdgPDcCx8nqXqRSHyY5ls8KIuSpQ6N/A5qCW1Hja4TH5Yfl8uQPtMyWJMCTce+SCUkv89sp9SIcUS/IxewIVGu+8QriozN3gZXuuYmYemHVpceysK22DgcamqHuVF/vdlvqTTKCcDiot4loefVf7sXPfvIM0qmUaSEiIiIiuvr4/H685313o6m1xbQQ0cqwMZLuxdsDT2I03aO2JbCSwjHJqOYyiUJ+H+n92R7ahT0N74fPCk20L4eKB3g6XEvayGbzh5Uy4p7sKH6WPIOUk9NtcxEb8Zm1MtSh06kskvGMXve73fjwxq1oc3uQy+Sr8PwBH+rqIxwLj2iZSeXdMz94iuEdEREREZEiId7dD9zLSjyiFZCz03h36GlcGn8XWTtpWivBBa8VwNbaW7G55ma4XEvfA7Si9yBdW5OpyfBOZB0bR9KX5xXeXZEL8Hjd8HjyDz+Vy+Hly5dgqTdGl+k2m0qmMTocRzazjIPxEZHuNsvwjoiIiIgoT86N5RyZiJaP7WRwePBJ/KTrT3A+9maFwzvhIGMncHTop/o+zoy+rNuWkvvDDz7wObO+cOox5uyplXfCVldI19nT2fmPgZVOWlKbaLamc1nqOnV9zoyFN6or71zYXFuPnMyg4TjqseSQTmfh87qnTHRBREtDBuvtOnfebBERERERkUgmEurzaRZtnR2mhYiWhOPgQuwQXu/7NgaS5/OTUSwxmfSiP3kG3eNHEfE26nHzlsLCAjxH/qo/6tLOOUhl8uGdXTS8XdbJ6eDuzVSXabkCdRxXKgdXPAPXaAbOaBaurA2XuhNHgjcJ7EpYpk0eg7g0HkfY50NzKKJuZ6vH5+S79I6n9KVVUtLIQI+ocqTr7CvP/cxsERERERFRsYHePqzbtAGBIMdqJ1oKMjnFm/1/hzOjryDrLH+vsLQ9rkO8jJ1Cc3Czaa2ceQd40k02k1VLxtGTVaTSU6vuhMw4ezozgEPpS8hJ2jcbx4ErkYN1aRzWmTFYZ+Ow+lPwDiXg64vBO5aElXNgey040mW2KHSTAE4q6ySokx66cnkxFoPP60VjKAyfJTODqNvatq7EG08kkUplkFHrEvq51fE4Uy1RZRx+/U0MDwyaLSIiIiIiKiWfTTs2rDdbRFQpo+nLeKnnyxhOd5uWleHAxnCqC/2ps3qyi0rOWDvvAC+bc5BI5PRlccWdsB0HQ3YCx9K9OJ7pQ3oO4965xjKwTozCupwAAh44bUE4rUEkw2HYIT9cORveoXG4x9OwA144PvXkiwrnpCttPsRTL5TaN6dWesbHkXJsRANB1PgDcHs8cLvden8ZE08CvHQqoye48HpXZvpforUkk8ng5Z8+b7aIiIiIiKickYEhbN+7e+LzKREt3mDqPF7seQxZJz+paTVIZsdwMf4WOkK74bH8pnVx5l9+JkGZWS2WsNM6tPtF6gJOZQfmNmlFOqfDO9doGvaGMOzddbC31MDuDCPdXINkRy0SGxuRaovCnUgjeGEIrjKTUrjdLvhDHrV4dUVdKpfF4cF+PH3pPN4cGkDScsEXCMIfCE1MciG/+ZCKPSJavO7zF9X7Av8/ERERERHNRs6Z5dyZiCpjMHkOP+/5mlqrts+jDlK5OJ7t/nMkskOmbXEW3X9UQrDjmV48mzyFw+lL6M/F9Myzc2FdjMM1kobdGYK9IQInJNV1xeV1Ll11l2qNIt2SD/H83SPmyqlkPDxvwI1g1KsuPbrrbnc8hp/3duM7Z07itf4eWG43x70jWgK9PT1mjYiIiIiIZsNzZ6LKGEldws8v/43Zqk45O4MXur+EdC5mWhZu0QHeoD2O11NdGMhJt9Urjng3yXZgnY3p0E7CO8j4djNxW0i21SAX9MJ/eVT68ZorppJwTsa1C4Q9CEV98PjdSOayuDwex/OXutAVHzN7ElElDQ9U5jcKRERERERrHc+diRYvnYvj571SeSequTeYoye1eLn3b+HMsdhtJosO8GJOCrkFPAjXcAqunAOn0Q/45tD/3+1Gpjakh7/zjiTybTMoBHm+oIx9l3+KUhU4lqme/tBEa0k8tvjfJhARERERXQ147ky0eL/ofVxXt1V3eFfgYCzdhyNDT5nthVl0gLdQrnhW/aNWIt58wxzYIZ++tJLTx8Ery+Vil1miZZBJMRwnIiIiIpoLnjsTLYaD48PPYji9+rqinx97Ez3jx8zW/K1YgIdC0Z577gGbY8m+LrgWWXZIRJXFCSyIiIiIiOaG585ECzea6cWZ0VfVWuX+H/ncYayPXF92aQ9do/aozH05sHFk8MfIOVI5OH8rF+ARERERERERERHN0ZHBpxYcgM0k7G3EdQ0fKbvsqrunopF7MjeKo0NPm635YYBHRERERERERERVrS9xCoPJi2ar8mQIttIlP/ZbZXXF39GTcMzXwgK8ovhRPSWzRkREREREREREVGkO3h2WyrXV3wU9a6dxZOjHZmvuFhTg6RDSsOYR4LljWfjPjyN4Og7/UBZejxf+y2m9XbrUdo1OW2oGE/C63fANJxE804/A+UF1zKT6+s32BZy8jmEjEREREREREdHqEs8MIZYeMFurnYO+xGnYTs5sz82iu9D6XG6zNjv3eBaBM+MInEvA15WEbyxnwrhsfrtkiQzEpy2hsRR8Xg9CGQeBy6MIXhpG6OwA3PEZZvFxpg4PGvR4zFqhNNJsEBERERERERFRVTo8+KRZWxsydhIXYm+arbmZf4BXEnoFXT6zNjtXxoGVqszssW5r8mFbqSys7CypZVGCF/J4J7Yn+zMTEREREREREVF1cjCc7taXa8nJkRfVv3N/TvMO8CTyKs69gi7P3LvRVvK1nkP45tiTFXiW2j/q9antfItlqdszwCMiIiIiIiIiqlpjmX5kczP0vFzFMrmk+ncpAzxXPgwr8LjcCFtzq8KbKzl6Jcar00Pj2fkXI+L1wue24Nj5KkDLsqY8DyIiIiIiIiIiqi6nR15ak/VXNrIYSF4wW1e2gADPBZdUrxWpt0JmbfHqa2tx/f69uEEtTQ31pnVhdAWeCTNbg2G9XeB2u3SIR0RERERERERE1cdxbHTHj5qttefM6Ktm7coWWIFnNoxmd9isLY7bcmP3zm3YsnE9Nm9ch107t8JbNPHEfDgygYVZREc4AtueHCvPcrvVwgo8IiIiIiIiIqJqlHPSsDG/2VpXk/7kGR1SzsUCK/DMhtHqrjFri+N2WwiHgvnurWoJB4PwehcW4Ek3Yjs3WXG3IVKDXG7yi+7xuFmBR0RERERERERUpXJOVv07/+Irmf9grn9Q6Lo5o+K9r/xnPmz1/KQr7Vy4vvDFz8/v6EomYyORzMEMJ4eMk8OT4+9i1E7lG8rwjGQQPB6HpW43m13bt+Ka3dvVmgvHTpzG4XeP5a8oph7xeDKpX2Tb68b41mZk6qZ2481lbSRjGX1Z6/fj13bsRS45jlwmo4PCuvoahMIBszcRLcbjjz5m1oiIiIiI6EoefuTTZo2IZhPL9OO5S3+h1uYTXTm4tuFB1PnWme3ZeSwfQp4GXbBWSgK2sXSf2bqyoyM/QV/ihNmam3vX/3N45zA03YJK0KRwrXgCCJmFtt0TNVuLc/TEKcTjCaQzabzz7nHTOn9SfVeowNtSUwvpLZvL5lNNt9sNj9et14mIiIiIiIiIqPpk7IT6d951ZzqQq/W3z2kJexvLhnfCcnnK3mamxWv5zS3nygV7qbrQCrc1dSILCfPa3bXwlPatXTD1xdF/5/9FEjLunYR3cumxLGyK1kKXC5qySAnvpAstERERERERERFVJ9tZu+PfTZhj9LWwxM3lguRfhYDSpf7UWgE0Vmg22sHhEQwOjZit+ZPwMpvOf5FbgiE0+YO666yQce98Pg/HvyMiIiIiIiIiqmILLexaVcoX/02zoDHwRM52EI9nJ8bByzo2jmd6cSh1CXaZF3iuY+CJaCSiyxdHxsZMSwl1+NnGwMukckjG0jpYfE9bJw40tyIdi+lZaL1q/8amWnh9XrM3ES3Wco2B5/X60LFhA1ra2lHf2IRwpEb9X/bNWO68Wki1cCadRjw2hqGBfvT2dOPS+fPIZNJmDyIiIiJaSzgGHtHcDCTP4eXLXzNbc+XglpZfQ3Nwq9lePq/3P45L8cNmay5ceF/nb8PviZjtmS24DM2tPjDLZBAF0n22xR1BnXvxE0OMxmIzh3dXkP8gnNO9ZRsDQaxTH/Bdtq3DO+HzeRc+sy0RrYja+gbc9J478LFf+QxuvfO92LJjlw7wfH7/qg/vhDwHeS7ynOS5yXOU5yrPWZ47ERERERHR1ciq2FBtVWyOH2kX/kqoO/B5XRPdaEWdFUSbO1r2oI7lguOpzAdtR/rImvHsHI8bdtF4fDL2nXSflQ/Em2qiaA2G1Ha+ikXaQuGgrOhtIqp++266Bfd/9BM62FrOsC6Xy2F8fBxjY2MYGRnB6Oio3rYLZcdLTJ6rPGd57vIaEBERERERXW081kKLxPLzIsx1mU25/Wda5s/RvUfnYsFdaDX14GLxHLJmtlfRm4vhtdR5DOZkppBJLrWvty8N36Wk9Lc1rTNz7PJPwLEdZDIZ9eFafYh2W0i21CDdXCMlgfr68dG0DvBk7Lt7OjeiMxRCwnSf9fm9aG2tZ4BHVGFL0YVWKs9uueMuXZW2XCScO3/+PA6//TYunL+AVDqlgzx535FAze1xI+DzY/OWLdh/w/VoaWlZtlBRuta+/PyzGBkaNC1EREREtFqxCy3R3CSzY3i667+qtflEVw7q/Rvgm+M8DRFvM3bVvb/sZzu5/7cHv6vW5va5byTdjWRu1GzNhQv3rf+X8Mxh9trFBXhKJmtjfDzfZVXI+HeHU904mrmMzBynwi0nNuIza3MnwZ0EeF7LjRuaW/X4d7lUEim1yANsbqlDIDjfKX2J6EoqHeA1tbbhjvfdp7uVLodkMomj776LF194EZe6L6mWOfySQe2yc8dO3HnXndi4edOyBHnpVArP/+RH6L/cY1qIiIiIaDVigEc0Nxk7iacu/CeztTTqAxtwe8uvl/1MF88M4OlLn59zldz8uXD/hv8Vlstttme26M7EXo8Fj6l+E5a6883eRjRa4SV7euVIhUxqPKtf8LZQGNc2NMLl2MhmM/qTdjDoRyDA8I6o2knl3XKGd9JF9rG//jK+9c1v4VJ3l2qZ2+805L39+Ilj+Mpjj+GZnz6zLF1r5TWR14bj4hERERER0dXA7ZIJSJczXVpe9YHOOYV3oiKjAQYCFqyiI9VYfuz0tcDvWp7JIqQSJp3Mwc7ZCLil+q4Fdb4Aspm07v4mk21Ea8Nr+WtOtGZIt9nlCu+Gh4fx149+CefOnZ2Y6Ga+kqkknnv2WRw5csS0LC15beQ1IiIiIiIiWusk3GoObjZba8/GyAGzdmUVCfDclgWfb+qhOty12O1rXZbMLJfJIZPKd+M90NyKLdE6OOrDeDadr76LRELq8XHmWaJqJ5M1LNeYdzLA6A9/8ANc7ll8d9RMJo3vPfGEHp9zOchrxIktiIiIiIjoarAleqtZW1tkht220E6zdWUVCfAkpfN5LXiLZpm1XC5s9zZji7fRtCyNXM7JV9/ZNnbXN+KGpja41QPKT3SRRSDgQygcyPd3I6KqJd1Cd+29zmwtvRMnTuDtt9+GU6bLrIxvUFtbh/37r8edd96FgwfvwPbt2+Fxz/yLAOmKK5NfLBd5rdiVloiIiGhuXOqUz5e1EU5nEU1lEE2qRV1G1BLI5mBJNQgRVaWGwHpYuivt2iIz7M61+6yoTICnWJYLPv/UrrRe9UD2+zrR5o6YlsqSCppsMqsr8DpDEby3cwP8brfuNptJpeBW65GaIDyeub8gRLQyduy5xqwtPQn8X/rZi2Zrus51nfj1f/Qb+MTDn8R9938A93/wAfzDX/1VfORjH4Pbmvn95NTJk2ZteSzna0ZERES0GnlyNlpiSezoH8E1vYO4tie/7OsZwHXq8rrLQ9irlt19w1g/EkdIfbYkourigoWwp85srRUudIbn93muYgGe8LrzXWmLi90ClhcHAhvQ4A6ph1c58guSTNrWXWebAyG8f/0mhDxeHeqlk+Oyhw7v9KyzLL4jqmperw+bt8+9dHixYrEYhgYHzdZUXo8PH//kJ9HY2KgnxSnwer3YtXsXWlpbTMt0w0PDyzKZRYG8ZvLaEREREdFUUnHXOTqOG7v6ce3lQWwZGkP7WAKNiRTqk2nUpjKoU5cNars1lsDGoZgO8W682IftAyPwZxnkEVWTaxrvM2trg+XyYEfd/MY2r2iAJ0GZBHhe79QQr9YK4AbfOjS6w5W5Q/VmLFV32URWh3d3d6xHsz+oU710KoFcNotQyI9wODDlAzgRVaeODRuW9f+qhHG1dXW6S2xpb4kt27aiubnZbE0VCARQP0u31WwuqyuAl4u8ZvLaEREREVGenFFKl9gDl/qxr3tAB3QSxrnVSZ98Fi13xiltcp03ZyOSzmB7/yhuvdCHpnhSB4FEtPIa/OsR9NSardWv3t9hZtidu8oGeIqMfRfwWeqD8eRbo4wn1eKJ4DpfO5rcEXWni/ugnlVvwJlEDi3+EA62dWJ9JJpvT6eRTib1uHc10RDc7DpLtCq0tLWbteURDAbx2V9/BP/m9z+Hf/Wv/3/4R7/1W/jYJz6B9993Hx744AMzhonS7p9lhtzSMHA5LPdrR0RERFStLHUu1hhP4qaLfWiJJSaCOVmudJom1xf2l8twOoP93QPYMBLj+HhEVcGFrWtkMgsLblzTMP+KwooHeMJyuxDwTw/x2txR7PN1oN1ds+A7zmZsZMZz6AxEdHi3qaZWh4bZbAapZAI+n1TWhOFVl0S0OizXzLPFJIyzLAs1NTXYtGkTDhw4gLvvvhtNTbM/luWsFJyLlXjtiIiIiKpRw3hSd4OtSWV0CFc4a9PhnNcL94H98Nx0YNriPnA9rLbWiZCvcFtfzsYudbzNg2Nw2wzxiFba+pr9iHhX++cfF5pDW9XzmP+Er+4PP/jA58x6RcmkFm63DBafX4R88A1ZftS7Q7DV2+OwPT7jb0LSqenVc9l0DunxHHZF63FbWyc6wpF8eJeRyrsEvB436htq4PNzTCii5XTkzbfM2sJcd+BmuD0zz/C6nLLZLEZHRnHm7Bk9U+3pU6dw/NhxvPnG6/jZ8y/gzOnTM3aTjUajuOGAOgmUN79lIvd19O1DZouIiIjo6hRKZ7G/Z1B3gS0O7wpcDQ0I/PLD8OzeAfeObVMWj1ownoB99pzZe/L20oW2PpmBrRqGKzi++jXX7zNrRDRXUhgW8tThUvxdtVW5UN1vhdAQ2Ii0HZ+2jGeH0RV/S993JXitAA40f0JfzpfrC1/8/JL+KsG2HfVemFMfiqfeTdLJ4nxmEG+nL6n16R+GYyNTQziZrMKVdnBLUzt21zci7MlX2EnlXTqRgNtrob4+oivwiGh5Pf7oY2ZtYX7ps/9oxSvbkskkfvbc83jl1Vf1+0omk1XvX/Mbz66zcx3+0W/9ph5jb7nIxD3f+NJfmC0iIiKiq4/MNHvbhd6Jyjs9romcWxadX1qtLQj+s9/SlXil5Hwq88zzSD/1dP62+Ub5Ry0u/W/C68bbrQ3oD8//Q3c5Dz/yabNGRPPj4M3+J3Ap/o7ZrgSXLg4rR78TOJWaqNCF3fX3YHP0ZrM9P0se4AkJ8RKJHDIlIZ6t3hQHcjG8ke5CXy5uWvMKAZ5+M03lUO/y467WdegI18BtXliZrCKVGIfP50ZtfUR9aK6OCh6iq81iA7xPPfKbZm15yfvLyMgIXnzhZ/jFL15FOp021yzMSgR44uuP/rlZI6K1rw23fOJebMgP/6vZvW/jm99702wREV1dpEJuy+AodvaP6PBOFmvTRvg/+VG4QkG9j2ZZgN9f9pfGck4I9dkSmYxpUdRn2PSPf4rsK7+AY0v/MaA7GsI7LfVIuxc/EhUDPKKFy9hJvHDpL5HIjZqW1aE5uAU3Nj+s3ocW9h6yJGPglZLutMGgG76S2Wkl4Wz21ODO4Fbs8bUiaHmnPiD1RurOuLA31IiPbtimJ6soDe8CAY/uNsvwjojmQ07UBvr78Zd//hd48cWfLTq8IyJaFh070VgU3gmrqRPsiEVEV6tQJoOOsXG9Xvio6QqF4AoGZOayycVMRCbngKWLJsO5FO8fDkF92FQHy3eck6UhnkR9IsWZaYlWmHQ/vb75o7CWJ9KqABf87jD2NT244PBOLNkYeKXkNx0eT/4tVSrvCu+TwuNyo81Tg0YrjDRy6o8NO+VGsyuI2xvasa+xRT3ZfEAnb7C5bAbZTBKhsB+1dZFlHW+KiKZb7Bh4e68/YNaWz+DgIL722FcwMNBvWkq5UN/QiBuuvwE7du7CgRtvxC233orx+Li6zYDZZ6qVGANPvPPm62aNiNa6DbfchM21JVW+6nzJ7XsLp7vMNhHRVUKCtI6xBNpiCbjV58RCgOdkMnDiceTOnkfu1JmFLSdOqcvTcEZHJwI8uY+s28JgKAC7uDJlATgGHtHiBDxR1Pha0D0u4+FVOxcOtv8agp5as70wyxbgCR3iqTc8l+XSAV5xiCe/14hYfnSqJ1RrBdDhrsEN9a1oCgT17YRt28hl0molg0hNSC1BPYskEa2s1RbgyXvJN/7267h48YJpmUrejz7wwP345MOfxI6dO7F5y2a0tbWhoaEBp06eQnd3t9lzKgZ4RLS0tuG6mzcjovO7NEaHcvAH8+83AU8A5451oajzFxHRmudV53TrRuOoS6an1uEkU8hdUudrqTScgcH5L/39sM+d1+uu4g+titxnVzSE3CI/hzLAI1q8iKceIW89LidOmJZqk8+ybm/7DKK+Nr2+GMsyBl45uZyNdMZBJmOrD9OmcQZSdWfncnDsDLweC6GIf9nHmCKima22MfAudXXhr/7iL9W5XdK0THXr7bfjgQceKBvEffMbj+ONN98wW1NxDDwiWlLb78GDBzuhh0/P9OHdt4GdNzTnP7Tagzj57e/hjeKhYK65Fx+9uQ35d6Q0el/5Oo6H7sX1O9sQlsZMDL3HXsGzr3YB6w/grlu3oSWSH4PYjvXg5M+fwqGJ33NEsO2mm7FhUzPqgz5YhbfHXBrJoS68++wLOFm474MP4eHts/+GOdP9Gr7z5JH8RnQz9t64B5vbaxHwmQPbOWQSI+h++yW8/O5gvk1Me07fw5noQezb2oyANNppxC8dwYtPvY1hvQ8RrWXhdAbX9gyhIZGa1pHOcbkQ/sPfM1vzlEwi9cQPkHtj6kz/8sFZlpc2tGJIvRcuBsfAI6oMmWDi0vi7ONT/hGzlG6tCvnb39rZPo87fbrYXZ8XK19xuC0G/GzI2nrdkbLxiMmBoLpuG27IRifhRUxtieEdEi3LixIkZwzvL5cb9998/YxVdimPlEdEK2SEhlVm3h3pw+FAPhgold1YDWq6LmI3y3Osewu17TXgnvBG07L0Nd+zag7sO7pkI74QVacOO99yDzWYb2IDOHZ1oVPtMhHfC7UOgaTOu/9C92GGariyH+OD5/Or6A7jnQwexe2PDZHgn1J14ww3YcOv9ePD9exA2zaXc6+7BTbtMeCcsH8Lr9uP293aaBiJay3w5B4FsrvzHYseBMxZTn5ldcOLjsKUiT3FJ5VzOht1zOT9phXwQlX2GhuHEzP7qemd4RO9frHA/kRTPB4mqhYwp1xnejZtaHlaf5apnboSAO4I7O34Ddf4OtbX48E6sWICnqecgFXXBgIVQ0K3HyCsO8uxcVlfdhUNe1EQDCAT87DJLRIsiFb3nzp4zW9OtX79uxvAum81idHTmmY7UaaI+PhFR5V2LdU2TAdton8w6+yYGxvLbItpy7YxBl/qYi8aO2jInfkG03LwfLYVksFiwGRuuMeuKnRhB7/E38dIPvq0rr7//g7fRW/hdSKANG281AeIL39XXTyw/PInRXP4qYQ+dwaFX1IdktOHGm/agsdx9T3AjsH4/binb02ym5wSEW3dig1knorXLbdvwzNKdy77Uo4M8+/QZpL7xLSCjPl9KsDc8jPTf/wBOvxnXOJ1G5sWXkTt6XO8vXcScsaI32CLycTWYKXpTI6IqYKE5uFVXu0V9raZtpbjQHt6NOzp+AxFvk2mrjKpIw2SWWqnCC4fyFXmWy0E2k4Lf70JdfUi1+fIfqCsTWhLRVW5oqKg7Vgm/zDY2g9GRUcRmOJkT2UyGs9kS0dLY14n6QpWZPYjeV/Krh7qL3s9q27BXfsk7k9h5vPHEY/j+s2emBGpSUTd66iU89ei38fIpCdYKfAjUm1UcwfPf+i6e/dnbuNgTQ7htAxrDOcQTk+954bpykVkbbrx5M6KF34vkRnDulZfQK+tb96C9qKetPXoeh3Q4+G08++p5xCceoxuNm2YYKzXZg8PqOT3+xJuTYaIIRtBiVolo7bKc/DITu6cnv+LzwknKm0R+Z0edrznjCR3U6e1EQo97N8HOqevzM9uWI5NZEFH1kXHmbmv7NLZGb4Xbys88vZz87gj2NtyHfY0PwmsFTWvlVFU5m0xW4fNaiEZ9aGqKIBwO5CvuisvyiIgWyZll3M3ey5fN2nRHj76LkdHp3SkKRoZHMDw0ZLaIiCpn77qGyZO24T6cNKs42ofhife0CBq3zzRAcg4Dp57FSfX5NH76BZzpLfplQ7oPZ547iWHEcP6580XHm6p9312495c+pcdt+uADd+GWO/djc/1kVaA3NH3cu5b33IyN9ZNVzfGzr+EXl8xGe2SiS7B6B8W5p57F8R4JEGPoPawea/FjjDSU6aKrntOxp/CufObufxu/6CoOH4noauDIx0S1zPRp0b6k3nDUZ0mrvh6uYABONpu/ovQGqTTskVG4fOY9TYK99MzTAsn4ekRUndwuL3bW34X3tH0azcEt6vypfO+qynHBbXnRGbkW72l/BBtqbtDDMi2FqgrwiIiWQzgSMmvTDY8M4/Dhw1O6wsr6xYsX8YPvfX9Ke6lUOoXnn31u1n2IiOZvP1qKQjA07MQHH/m0DtIe/sRO1BWdzYWbts1QeZZDLmVWZ5VA2ny+Ldbynodw+w0bUBc2H25zOdjJGEYny+Smix7Avq1FXVylAvC5LrNRIp1A6QgFx2MJszaTqc8pbs/yWIhoTbJdLmQs14zD1ttD+elsXNEawOeD3XVJTux0WzEnpd5MZHxk6YmhjinVeRNhXxG5pSxJz1IHAkS0OBYi3mYcaP4kbmv7VdT71+lgr9J87hA6wrtwsP03sK/xg3rcu6XEAI+IripS6dvRuc5slfe9J/4ez/70GXRfuoSzZ87gR08+ice+9Ncywp3ZY2bvHHkHzz7zDEM8IqqcmzvRONdzzmgzts3WjXZBNmPn+kIQl8Pw4e/h8S9/Dd/8m2/j3cGZhg2IYN97d6Ju4jNuDF0/fxb5IeTL8PgQjpp1Y0ekqOuJrf8SEU2RdltIzRCmSY2cE4/nNzz5N9Hc6fLjIDvZHOD16So9Cfjsvv58UjeDmK96BsonoplJJVytvwO3tv0K7u78H7A5eovu5urWk10spJLWpYPAgDuKaxruw10dv4X9TR9B2CNjjix9vMYAj4iuOrt371Jv5jO//cViY/jxj5/Cf/2TP8Ff/Pmf4/nnn0d83JwAzsFrr72GkZGZu9oSEc1dBNe3N5j1uYigbudM3WgXqg2h4mFcPLV6soy63Xdhb0f58V3CN9+FbQ2TH6qTF97GixfMRsHlGCaGrbMasPG9t2GzHus5gpYb7sHOlsnuufZoUbdhIiJDwruE1zNz1pbJ6kAOlgWXx4vcmbP6l7nT5HLqjSsMlxkL2b7cp/4tf1S5z7iv8pU8RLR0XLB0cLe7/h68t/Of4p51v61DvY01BxD2Svgm7wvlqnnz7RFvIzZHb8bBjkfUbf+ZDgPltvlx7hYSBC4MAzwiuuq0tbejraPdbM2P/BbnhgMH4HGX/82rZbnxntvfg0hkacuniegqEd2DpjqzrmS6X5s6w6teXkBPUW/TcOueCs/AOoLkRKGdG3W7DuouvPfeugHhcoUv0f24ZUfRmH3JHhz7cZn47cQxDBQNW+dt2IYbH5SuwR/DXfs6EZg4dkLPfktEVCpjWRjzeZGbqRttzlbvQUn11mXBFQnD6ZNgroQEfGofq0adu4VC6rO4OlZvr74sJfcxGPTrbrtEtDrJ5zkJ3hr863FNw724s/238IEN/xPuXf/P8f51v4N7Ov+ZDukk5Lt3/b9Q1/3PuKP9H+nwL+pt1bddqjHuroQBHhGtuOXubhpSJ2cPfeQj8JruFHPl9wfwq7/2aTz40EPYsHH6x+NAMIhfe+SzuPX22+DxLE/XCnbVJVrbwte1FY1xl8bQhSNmvdgZXBwoSvCCDdi41axXxBF095fpKpsbQW/xRBNaBHvv2DO1y2+gDfsKY/aZ5aP371FXdOHFnx/D8Ey9cLUcRk+8hOdPmE0ioiIyiUVfOIDkTOddtg27b0CHdFZba37m2VJqn9zlXrj8/olJLOzB6ZOSyRmXBIW96v5yMtEiEa0BLrhcFtwunw7mpEov4InqLrIBd41qC+gus7LPclbazYTvPES04jLpWT+9LYnOzk585rO/hqbmZtMyM/W2jt179uj9t2/fDq/Xi49/8pPYuGmz2QNoa2vHr37609iyZYtpmUqCtimL+bNYK/HaEdFyacPe1qKZXTMj6H3HrJc4c3Zwsjsqgqjbss2sV8bxH76A490xZAoD0SVHcP6Vp9E9bd6Ia9HZMo/fSl94BU89oY59cQSZ4mPZOfV0e3Dm50/ihy/MMPEFEZEy5vdhIOjXZ1XFZ1Z6XQd4MlW1+uDbOTlAqJzbTXwYl/My6TIrY+mZYM6JxQvXaoVjS/XdUCiQn/2WiGiZub7wxc8Xv88REc2bdOFajPse+hjqG/XARwvi2DLNvwOXNTle0lxIkJbL5fDGG2/oSSskDLNVm5BeE/KblsamRnzwQx9CR0eH2pbf0EyescViMfzNV7+qzg0d/PKv/EPU1NRMud5xbDi5OOyRk7C7X4CVHs4/VtnHHYCr+Sa4O+5Wmwuv1hsa6MePvvtts0VERER09QmnM7jpYj9CmWxxNAfHbcF750H47nsfEB9H+kc/hu9jDwHj48i+fgjuvXvgikaRPXQIrkAQ7l079Hna+P/xB4BMbGHI7y5kwox3m+twKRquSIAn1chERPPBAI+IFm2xAd5N77kDW3bsMlvzIyGcHTsDu/sZuBquhdW4X520eaYEaXORzWaRTqf1IqQLrFTa+Xy+WY8ltxPlusxm+16G3fU0XLkU4A3DZXngZBK6ikYf0VcHa9dvwQo06v0X4vTxo3j1Z8+bLSIiIqKrU+N4Ejde7IdbnRvKeZYsjqXOCvfvg//hj+l99Hh4ZqIKdRIHuN35X6zatpxU5rdTKcQ/9+8mQ0CznK2vwfGmKLIV6j7LAI+I5osBHhEt2mIDvI1bt+HWO99rtuZPKt1yvS/CufgU4K+DteljcAXb4LL88w7yKkWCRdgptabu3zKDQcljkcBx5BicE18BfFFYu/4xLPWYF+rnz/0U505xbkYiIiK6uskZX+dIHNf2DOp1idnkg67V3ATP/uvU2tzY3T3IHs6PN1r4oDwQ8uPVzmbYFZy8ggEeEc0XAzwiWrTFBnherw8f+5XPLC5scxzkYqdhn/kOXKlBINQJ1O+A1XgjLL+MIVW5E6750CPdZWKw+1/TW+7W98AZvwz76J8BwVa4d/0mXG5/fud5kpDw21/9MjIZjoNHRERE5LYdrBuNY9vAKPzZ3OTZn/xida7M+ajcQqrtZNKKw20Nar2y55IM8IhovjiJBRGtOAmgzpw4ZrYWSJ1suWu2wnPNb8Np2AsncQm4+BRyb/3fyBz7EnJjp+BkRtX5W77L61KSikA7M4Zc/AIyp/4W9qH/Sz2WHwJjZ+Ra2Kl+wE4D0S1wuec3bl8xec0Y3hERERHlySyxF2ojONJSryeckBBOR3fqPFF+UXylRf0zcZtxnwenGmrwTmt9xcM7IqKFcH/4wQc+Z9aJiBbkyJtvmbWFi8di2LZrj9laOBlnzqrbDVe4E3Z6BEgNwiWB2cAbsAcOwRk7BXu8B46Tg8sbmZhtTJ226cv5mphJVh3PiV9Arv81OJd/DvvS00DPz+AavwTHE4Jr3f1wd96r3nX9sLt+CGTG4N78SbjUdQv18vPPIpVMmC0iIiIikgkm4j4vhkM+JL1uBLI2fDl7IpiTM77iy2KynXFbuFgXxqmGKHprQsiq7aVwzfX7zBoR0dywCy0RLdpiu9AW7LvpFuzaO/cxSq5EZnzN9b8KdD8LpMdUw+RsYsKR2V8DDbq7rSu6GVawDXAHAf1bVrda1KXL0uGeI/OP6e4XcqkWdWwnNQh79AwQOwskB+DKlYRpngicht1wd34AlrdGN9mpIeTe+o9wdb4Xno7367aFOHr4LRx69WWzRURERESlLHXq5svlUJ9IoX1sHA2JtO5aW/oBWMa2G/V50VMTQk8kiJTHrav5lhK70BLRfDHAI6JFq1SAJ+576GOob2wyW4tXGIPOGT0Fe+A1YOQUXCVBXoHMWSYVfJDF5YajFpcr/1tXGW/O5dj5yj07qxpkmeE4gSa4mm+GVbcLrkDzxDHkHrIXfgAnfhGebb8Clyds2udnaKAfP/rut80WEREREa02DPCIaL44Bh4RVRXpFppOyeytlSHVc1L95m7cD8/2R+De+zuATCQRaAF099XJ367qUU/sDJBNAJkYXLoL7pBeXOlh1TYKVzYuZXRTwzvLD/gb4NTtgWvXb8Cz91/C034XrGBrUXinbiK/Lgl1wLPtMwsO7+S1kdeIiIiIiIiIrh6swCOiRatkBZ5oam3DHe+7Dz7/wmZnvRKppkMuCSc9BCfRCyS6Yce6gPFuIBvT++THxJv+9qhDOJk1NtgGV6RDj7WHQDMsfyPgCUMPgFwUClaShHfP/+RH6L/cY1qIiIiIaDViBR4RzRcDPCJatEoHeKK2vgG33HFXRbvTziz/NpgP9hK6yy2k0i5XqLRzAZYP8AQBXzQ/8YR0r12ioK4c6TYrlXcjQ4OmhYiIiIhWKwZ4RDRf7EJLRFVJgioZ500ma1h6+ao56e4qXVul66tVs0XPZmvV71XLNbBqt8MKr4Pljar9PMsa3slrIK8FwzsiIiIiIqKrEwM8IqpqMtPqk9/5Jk4fP5qvkLtKyHOV5yzPnbPNEhERERERXd3YhZaIFm0putCW4/X60LFhA1ra2nXX2nCkBl6fz4w7t3pJWJdJpxGPjemusr093bh0/jwymbTZg4iIiIjWEnahJaL5YoBHRIu2XAEeEREREdFawACPiOaLXWiJiIiIiIiIiIiqGAM8IiIiIiIiIiKiKsYAj4iIiIiIiIiIqIoxwCMiIiIiIiIioquT4+iJBcst6h+z08pjgEdERERERERERGtbSRYn2Vwil0V/OoWeVAIXEnGcHY/p5bxa71Zt/ZmU3seedmNzuYw4Cy0RLRpnoSUiIiIimjvOQku0MnKOrQO7rkQcFxPjGEqnkcrZyMGBLTGdA7jMvpbLBbfLgt+y0ODzo9kXwPpQCK2BIDzqOr2nJGqFGywxBnhEtGgM8IiIiIiI5o4BHtHSky6wLh20AbFsBu+OjeDtkSH0ppKTBXRF+0ijrOoQz2RzcKT2zspndbKv2qrz+bAnWo9raurQ6PPr2xff11JhF1oiIiIiIiIiIlobJIFTknYOZ+Jj+H7PRfzl2RP4cW83LuvwLh/EFeK2wnh38seWbbnUbRLeyV7qX7UtAZrLZWE4k8WL/b348vlT+LvuCzgVH0VcutnK/cqyRBjgERERERERERHRmpB2bB3cSWD33e4LeGtkCOPZrA7hJIyTkC2ftZmwzVTOyZYtoZ1sSptLKu/kUuK+/PX5KjzVpJZULod3x4bx3UsX8MPLXTgWywd55qgVxwCPiIiIiIiIiIhWLxPGjWTSeL7/Mp683IV3xob1BBSF0C2/x9RgTi+K1Np1BMK4tqYRXnW9BHmauq0O+or2zR/HHE1dSKXfiZgEhpfwTF8PelMJfV2lMcAjIiIiIiIiIqJVqRCw9SQTuuLu9eFBjKTTcGyJ5fQek1V1ZRRa2/xB3Nu6ER9u2YT2QDgf4qnbyGQW06r1TAhoYjzdfTaWzeLw2DC+03UeJ2KjesIMs0NFMMAjIiIiIiIiIqJVR3I1ielOxcfweNdZdCXGkVONjg7a1CIBmoRtEzHdzGRXn/pnd6QOv9S+DQfr2xGw3Dqc0xNUFEK8YqZdh2tyv7aDoUxaP5ZXBvuRsCvXpZYBHhERERERERERrTopO6cr7r7ZdQ7xrHSXlRxN/5MP13SQNzPZVwK6/OQVwoWM2g5abtzR0I5Ptm/B3poGhNT2BDl2MXUf+cBQjpHvcutSf14a7MMrQ/0Yy2YqEuIxwCMiIiIiIiIiotXDAZK5HN4YHsTPBnqRkzo8HayZqGyG4E5aZT/p3iqXfsuNZl8Am4M1aPUF5dqJWj05Umcggnub1uO+5g3YGo7CrY4rYV/Zo8t9Fu5XHTtt2/rxvTE8oCfRWCwGeEREREREREREtCroAA423h4dwstDfbqbqk7VCkrCu3xFXF7GtuGzLGwL1+LepnV4uH0rPqGWj7ZJpV2j3qf41nJb2X+H2v+DzRvxvsZONHj9yJgAUIK6qfIhnhxDrpeQ8fWhQbw1Moi0nVON+b0WggEeES1a/u2JiIiIiIiuhOfORIsgYZzLhfPjcfy0txuJXE6Hd/n/VY4Oz4pJiCaTUEjgJlV319c24Vc7d+BT7dtwc10r1gXCiHp88FuWrq6bieRuAbcHB2pb8Nl1u3CTuvRY+UksdJBXQrrUytF0iGfn8NO+HpyKjengcaEhHgM8Ilo0r99n1oiIiIiIaDY8dyZaBJcLg+kkvt9zMV90NxGeqUs9WUURCfvUhQRzMjHFZzp34oMtG9HqD+mJLnQVnbpe9rHUvzPHd/l9ZMk4OR32vb9pHd7buA4ht0cHiuUUxsWTxyb7PNPfk59kY0q54NwxwCOiRQtHImaNiIiIiIhmw3NnooWLZzP4cW83xmRMuaLKN6ckvHOpq+TaOq8fdzR04IHmjVgfjOQnrDDBXvnYbXZudSuZOONobAgn48M6BJyVhHiSLaplNJPBq0P9GM6kVdPkY58rBnhEtGh1jfVmjYiIiIiIZsNzZ6KFkeDt7ZFh3X1Wz/Zq2ku7zcpWFraenELGubsh2oiA5Z4I7ooVjiHtpdcVFPaRy/PJGH7QdwFP9V/EmfExPabelchx5bb69uPjOD42qie4mC8GeES0aC1tbWaNiIiIiIhmw3NnogVwHFxOJXAkNoycnQ/vdOBWGt6pK7KOjRZfEJ9o24LNIZk5dnr0JUeQW3rVddLFVsapi8t4eiUkZvOq68dzWTw3eAnf7jmDo/EhXYUn3WJn6j5bLN+VNv+YU+o+jsVG0Z9K6uuKqwivhAEeES1a+4Z16s3vym9cRERERERXMzlnlnNnIpqfLByciI2hL5mEYwGWI5FYCceBjGrX6A3gI62bUO/zmyvKcWE0l8GrI734evdJ/LfzR/DiULdul+MWji2XEhr+7aWTeGmoRwd98v9YqvnmQ39a1mPu2ehJJnA6HtPVe/M5CgM8Ilo0r9eLTTu2mi0iIiIiIipHzpnl3JmI5sFxMJRO43hsRAdejqnAK66+K8wEG/F4cVdjB5p8QeTKpGPSNJhJ4mdDPfha1wn8sO88jsdH9Nh6hThNjirh2rlEDH9/+Qy+23sGvelxWFLJZ+6nuPJO7ruwVbjL0plp81V4+UWuOzo2gqFMamL/uWCAR0QVsX3PLrNGRERERETl8JyZaAFcLpwdj2EgnTIBmlqKAjRhqW1Z9tY0YHMwqoOxqXvk9zkRH8H3+87j50M9OkCTUE660VpqZ5mJVv72phN4YagbP+g7h6PSZVcdTId3ouR+hYR5OTOZhVsthfAu/28Rc1v5dyCVwqnY2JUnwSjCAI+IKqK2vh479u4xW0REREREVEzOleWcmYjm78josA7GHEm/yoRoOXWdVN1dV9MIn6WjuClknLtDowO64u5SMj5lQotC0DaSTePl4V585/IZvD7Sh1G1re8uf/U0+vGoxXZsbAzW4L6mdfhY2xZdAVjjkUpbUylYTD0OqcaT9sOjQ4jnZDbd/FVXwgCPiCpm300HUN/YaLaIiIiIiEjIObKcKxPRPJhgS8aM61aLI9u6bWqkJltSybY/2oh6byDfWEQq794cHcDf957VY9jpW6i2QjdYCeGkwu54fBg/6juvK/OkLk7fn9mnHLm9RHTX1jTi4fbtuLG2GdtCtTjY2In3N62H3+WGSx+khGqTw/al0uhJJPSMufk7mx0DPCKqqJvuuA0+/2yDhRIRERERXT3k3FjOkYlonkx29u7YsL7UWVqZQE26r8qsszvDUuE6PQg7mxjDz4a69Wy05WIyHcQ5jr4+YLnV3ebvo3icu3LkNkG3F/uijfCoXSVElEAvk8tie7gW64LhiWNPIcdVTXL0S8lxdTu5fvb7EgzwiKiipFvAe953N0M8IiIiIrrqyTmxnBuz6yzRwkg4dyI2qgvUSnMwIbGXVMvtq2lEyOPRbQWy+3guq7vDjmUz+cYZTFTj6X/nTrrmFjrsFoI/OYbHZWF7qFaPr1cuCHRcai/VLNWFKelGO32XaRjgEVHFNbW24O4H7mV3WiIiIiK6asm5sJwTy7kxES3McDqNoUwG+VHjppOx7MJuD3ZG6qYkfLImwdq5xBjOJ2LzDubmQoK5RC6LvnTCtORJ0Cbj4nUEwqj1+vKPqzR9lE3VFstmMKqenzyPsgllEQZ4RLQk5LeM73/og5zYgoiIiIiuOnIOLOfCrLwjWpzeVBKOLcFWmRI11ZxT/7T4Qqj3+nUlXoF0ZZXrZNZZCdmWinSbfTc2jJQeW2+S3HeNx4cmbyBfgVemCk8q9tLquY1mM3oSjnL7FGOAR0RLSgbrve+jH8bmHdv0GxQRERER0Vok57pyzivnvpywgqgyYoXupXqZ+nlS52LqstUXhNuaGm/JSHYjmRQupmL5nZaI3I/cR2kVnrwfSPdZCRalm+00us3RXYRj2awOHK/E/eEHH/icWSciWhKBYBAdG9Zj+97dqK2rg8/v029otm3DzhX/noSIiIiIqPrJuayMbxdV57bt6zux85o9uPGO27F+00Z97ktElXEiPoqLibjpXWoSuyLSTfbaaAPa/aGJCEwuZUKKM+OjeGdsSG0tXYInM9ym7Rxa1P23B8JT7kmuG8lmdBdemahiyqMwFXfS1uwLYH0orMfNm43rC1/8/JVjPiIiIiIiIiIiomX0o8uX8PrwgKlQmxrE6ZljLQsfa92EbaE6s49MauHAZ3nwdP8FvDjUA+sKwdhiyCOSAO+G2ma8r3Gdut+p93UyPoKnBi5gLJPRgd1Ujg4g99bW4b3N7Qi5p07CUWrpngUREREREREREdEC6ckdZiHdVH2WW61N7qfr2tTt4jnpmrr05P5ktluZuKKUVz02zwzRm0xEK49PhviTMPJKGOAREREREREREVHVuVKAJzVtUsVWjty2/DWVl7Wl7m86Sx7ADA9C76+um8v4d4IBHhERERERERERVR23TsAk4Cqfgsk1MwVgMnnE3KKxxfNY5WPEfP5Y/rHrVnV9fiS8K2OAR0REREREREREVccj48Y5EnCVj+Iyjo2UnTNbeTrQU7eLeLxzjMYWR2rvZPy6cmPtZdXjy81QRSj1gfL0ZLILl6xcAQM8IiIiIiIiIiKqOn4Z386l/koGVhKESehl2w7GshkdghVIRZuMKdfsC15xZtdKkHto8gV0FV6pRC6LjJ2DUxrQyXOR8E79E1C3k2rBK2GAR0REREREREREVSfo8eigy/wzhbTkYGMwnVIbk91lpV0mlGjzhRD2ePMVeUtExtnzuz3o8IemBGxyj3LdaDatq/CmPXr1eF3qegnuAur2c+lGywCPiIiIiIiIiIiqTo3bI31UkS/Bm0qK2MTl9Dhy9tSQLAcHNV4f1gUi+TStsHMlqUPK/awLhNHkC5rGPAkN0+o++zNJZNXltHhOPx6X7iIc8UiAd2UM8IiIiIiIiIiIqOo0B4J6Iouy88mqJumC2ptOYCiTmrKHVLS51eWOcK0en04PNldhMjRfwHJjb01DvqtvEXlc47k0BtXjyueHZQJEdXuvZSHq8eZnq71CyMgAj4iIiIiIiIiIqk6tx4tGn1+vl4vgZOy7eC6Lo7EhHdIVIjDZVwr3NgQi2BisKXvbhZoI49SlHFuWYnKt22WhKzmO4Uw6/5iKA0Rze/lXJtqo8/n0/lcKGRngERERERERERFR1ZGAblskOhnAmeysQDYl2HpzbACxbHpKUCfrQbcHN9Q2I+rx5RsXScI7PWOsuuM6rx/X1zblK/yKyP3KuHfH48NI5XJyo/wVRfSYd6q5zR/QVXylz6scBnhERERERERERFRdTKi1MxLVqVh+U+rqppLqtb50Akdjw2pL4rNJcpsNwQgONrSVn0xiHgrhnXR3lQlnb6ptxsZARHeXLZD7k4kpTsdHcTEZ0y068CsidYL5iTUcrAuFdTfauTwwBnhERERERERERFRdTKjVGgiiwx/MB2ElYZiQKMzvcuPQ2AAGM4l8oyF7y2yw19U04sGWTQi6zVh16kZlx6WbhRxLh3jqz5317fqYuutrEdkay2bw8shlpGy7TDDnwDHPozngR5t6bp6SY8yEAR4REREREREREVWtPdE6XfmmJ6N1plfhSVfbgXRSh3hp29ahXrGchHjRRtzfvFHPGiv7F/aZlrEVKVznSPWeuk1bIIQHmjfgQG0zPFI5V0JmnH1zdACXkvF8z9nSB2La5Hnsqamf1v12NgzwiIiIiIiIiIioOjkONoYi+ckspHpNYjWdjk2SKjv5887YEE6Nj+jgbVp2pvbZGorqAO5gfRuafQF1OxsZtcilXF+oypNLfZ2dv67eG8DNdS34YPNG7InUT6u8K9zXmfFRHI4NQCJEHRHqx2uYY4tGvx/bIjXwzrH6Trg//OADnzPrRERERERERERE1cPlgt9tIWHncDERl4aJyrhCQFaYWEKq73rTCawPRhD1ePWIeUURml6XiS3WBWuwM1KHZl8QbtWaUzeWRYJA4bYsRNxebFD73VTXgjsa2rE9XKfaplfMyS3kuH3pJJ4ZvISBVFK3F4d3ronwLj8m3oG6Rj05h4yXVzpG3kxcX/ji5ycjQCIiIiIiIiIiomriOOhJJfH9novoU5fSJVZq1/R4ckWka2oWtp4h9hNtW9DiC5prppJqPYkBZfw5WZfZYsftLMZz6tbq2GG3V3dvDbgl3nOp+5veLVdIm0xiMZZL4/u953B2PD9xRXF4JyTAc1STHKsjGML7WzrQEVCPTYK9OQZ47EJLRERERERERETVy+VCiz+A3TW1umpNxsPTgZoEYEUkJJNQbjiTwt9dPoNT46N69tlShRo+6T4r49bJTLB1Hj86A2FdvVfv9cOn2uQ62WfqvUyS9kvJGJ64fBZnEzE58PR9JbxTF3KffrcbuyJRNPl8+evmGN4JBnhERERERERERFTVZOKJa2vrsT4YVlsSh5nwqzTEU4sHFgbTKTzVfwGvjfQhkcvq25eSFlnkNhLTSWWfLLKeD93yS4G06XZ1rKSdw1ujA/h+33mcl/BOHodairvEFrrOFo6zUT126TrrtcxsuPPAAI+IiIiIiIiIiKpexOPFva0dqPP6ipI1B66SKrt8d1VgJJPGz4Z68L2+c7iQiOm2wgy0+Whtbgr7S/WfVy09qXH8uP8inpUx7zKp/EOR4K4ovBOF+5CuvmGPBzfUN6LW65186PPAAI+IiIiIiIiIiKqf46DB58eDbevgkxlcpS8tJJArE4mZME0q6k7ER/DXXcfwd5fP4lIyrkM8ub2MXychm1TclVuEHMXrcuuuuf3pJP6+9xy+2nUcb48NIG3n1ENS+5UEd0JX3+mHp+5Drd/Z1IrOQAjuBUZxnMSCiIiIiIiIiIhWBQnDJFx7c3gQz/f3ImFnJ0rdJC8rndiiQFozTg4By4NOfxgbQzXoUJc1Hp8em05PV6F20sdQx5NZaSWgi2czuuLuTGIUF5JxvS1hnoSAMuFF2VlkTXinx72zLNza0IwD9Y3wLaDrbAEDPCIiIiIiIiIiWjUkH0vZObw23I9XBgeQlBBPX5G/KFcRJ6RVQjcJAAvhWsTjQ9jtUev5KjvZRya+kOPLrLQxtcjx5XYS2hWq9sqSB2ZIsCez2F5f14Ab65p0F9rFYIBHRERERERERESrjkxOIZV4zw1chu0ALrXkp59QZgjxhFwje+nur2ZdFG5R3Kqny5jlWBOKwju5VcBt6aq76+sa9dh9czjCrDgGHhERERERERERrTpBy4ObGprwYNt6+GQ8vPxfxZUfg25KqDap0CrBnCy6ss6sT2zLH6nIU+uzKb4f2VPf3gLuaGrFTfXNFQnvBAM8IiIiIiIiIiJafVzQY9ftidbh4c7NaAsEYVkSwkkdnonp9Ay15YO8WV0pdTPBncx4K8dX96rvWx7DL6/brLvOBt3y6CqDAR4REREREREREa1KukLOcbAhFMZD7etwXW0DaqTqzWUVSuLy+Z0O8hZLQjt1SFNxVyD3FfV5cUNdIz7SsUE9lgjccv8VxACPiIiIiIiIiIhWL9PNtcEXwN3Nbbi/rRO7orUIuWXiiPx1UiGn6co5c6lX5ip/u/wUFlLlpy8Qsjy6AvC+lg4cbGxFvcer9640TmJBRERERERERERrgwRzLpeeQfZyMoG3R4dwMjamZ5XVwZu5XrrYSqjnFFXmSSaXD8lM2DcR1hW2zfXqH+keuz1Sg7219Wj2BxC03FP2qzQGeEREREREREREtKbIDLOFQG0ok8bhkSEcHh3GSDqlo7s8R4d5ejdJx2RAO5nK1rTrIj0jP2OtCw0+H3ZHa7Gnpg5NPr++j+L7WioM8IiIiIiIiIiIaM3L2Db60kldmdefTmEglUI8l0HWdmAjv8hfPSOt+iOXIbcb9T4/mvx+dARCaglOjm+Xz/SWBQM8IiIiIiIiIiJa28qEbVnHRjyb1d1rJdzLOvm5a70uFzyWBZ9awm6P2ramVtgtY3BXwACPiJZNJpNB9/mL6O3pwfDAEOKxGDKptHrv49sQEREREa0eUpnj9fsQjkRQ11iPlrY2tG9YB693aQavJ6IlZPrJln4qncjnlrhr7FwxwCOiJTcyNIQTR47i7PFTDOuIiIiIaE2SUG/Tjq3YvmcXauvrTSsRUWUwwCOiJXXo1ddw/PARs0VEREREtPbt2LsH+246YLaIiBbPjLpHRFRZUnX34+9+n+EdEREREV115BxYzoXlnJiIqBIY4BFRxfVf7sUzP3gKQwMDpoWIiIiI6Ooi58JyTiznxkREi8UAj4gqSn7L+LOfPIN0KmVaiIiIiIiuTnJOLOfGrMQjosVigEdEFfXq8y8xvCMiIiIiMuTcWM6RiYgWgwEeEVWMTFjBbrNERERERFPJObKcKxMRLRQDPCKqCOkWwAkriIiIiIjKk3NldqUlooVigEdEFXHiyFGzRkRERERE5fCcmYgWigEeES1aJpPB2eOnzBYREREREZUj58xy7kxENF8M8Iho0brPX4Sj/hARERER0czknFnOnYmI5osBHhEtWm9Pj1kjIiIiIqLZ8NyZiBaCAR4RLdrwAAfjJSIiIiKaC547E9FCMMAjokWLx2JmjYiIiIiIZsNzZyJaCAZ4RLRomVTarBERERER0Wx47kxEC8EAj4gWjRNYEBERERHNDc+diWghGOARERERERERERFVMQZ4REREREREREREVcz1hS9+nvW7RLQojz/6mFkjIiIiIqIrefiRT5s1Iloxjg3k8os9MgKnqwd2bx+coSHYozEgmQQy2fy+Xi9cwQBcNTVwNdTBam2Cq70dVm0UcFv5xbW0NXIM8Iho0RjgERERERHNHQM8ohXiOEA2Cyc+DqevH7mz52GfvQhndNTsME+1Ubg3rod703q4mpvgCocAjwdwucwOlcMutEREREREREREtLZls7C7e5B9/S1kvv8U0t97Crm3jiw8vBMjo+oY7+hjyTHl2HIfcl+VxgCPiIiIiIiIiIjWJsfRXWOzL7+G7E+eQ/bFV2B3XwZyObNDBahjyTHl2Po+fv4L2Jf78hV/FcIAj4iIiIiIiIiI1p5UCrlDh/Oh2qtvwO7tB2zbXLkE1LHlPuS+sk8/p+9bHkMlMMAjIiIiIiIiIqI1xRkeQebZF5F58VXYl3oqW3F3JRLkqfuU+5bH4AwNmysWjpNYENGicRILWlIuF7yBIDw+P9xeHyy3RzW5lmRgWCIiugo5jvrrwM5lkcukkU2nkEkmKtrtiagUJ7EgWkLyvt7Xr4Mz++Klpa24mwvLgrWuHd673gNXS7NpnD9W4BERUVWyPF4Ea+tR29qJUF0jfKGIDvBc6gcgwzsiIqoY9TNFfrbIzxj5WSM/c+Rnj/wMkp9FRES0ikh419OLzA+fhn3+4sqHd0Kq8c53IS2Pqefygn9BxACPiIiqTqCmDjXNbfqDFMM6IiJadupnj/wMkp9F8jOJiIhWAammlvDuR0/nx7qrMo6Mjfejn8K53Gta5ocBHhERVQ2pdIg0tcIfqTEtREREK0t+JsnPJlbjERFVN6e3D5mnnoHdP2haqo/dN4DMj5/VYd58McAjIqKq4Pb5EWls0V2YiIiIqon8bNI/o9TPKiIiqj7O0FB+soi+6qu8K2Vf7kPmOfVYh0dMy9wwwCMiohUnVQ3h+qb8+HZERERVSH5Gyc8qVuIREVWZZBLZV96A3dVtGpZAMAirsxPurVvh3rwZVksL4PGYK+fPvtCF7KuvA6m0abkyflIiIqIVF6prYHhHRERVT35Wyc8sIiKqEo6D3LvHkTt1ZkkmrHA1NcF7zz0IfOIT8N9/P3zvex98738/fB/+MAKf/CQ8Bw4AgYDZex7UY82dPIPc0eOm4cr4aYmIiFaUDA7ObrNERLRayM8sTmxBRFQdZLKK3NETQCJpWirEsuC54QYEHn4Y3n37YLW2wlVXB1dNDVzRKKz6elgdHfAePIjAxz+uq/PmbTyhw8e5TrjBAI+IiFaMdEPihBVERLTayM8udqUlIlph2Qzs46f0zLMV5XbDe+ut8N5+O1yhkA7zynK54PJ4YLW3w3fvvbprrbTNhzx2++Rp9VyypmVmDPCIiBTbciMRCGGwvhEXOjfi+LbdeGvP9Xjz2htxaO8BHN59HU5u3oFLbeswEq1DyueHM883Z5rOH46YNSIiotWFP8OIiFaQ4+jJIOwz5yrbdday4N61C569e+Hyz33iIquxEd6bboLV3Gxa5iiXg336bL4KzzFtM3B/+MEHPmfWiYgW5Mibb5m11SfndqOntRPHt+7Cxc6NOqAbaGzCaE0txkNhJIJBtYQQVyfpI7V16G9sxuXmdvS2tGGgoQm+TAbBZAKM8hbA5UK4rnHev6UiIiKqBm6PF6n4mNkimp9rrt9n1ohoQbJZ5I6eRO74KR3mzZtl6e6wMhmFhG5WQ4OutpNusoUus/Mlx3OSSdiXL+tgbq6cRFLdb626zyZd/TcTBnhEtGirMcCTCrru1k68s3sfLre2I+UPICezCM0hTHIsF7LqpD0ZDOnbDjS2wJvJwp9KwnIqP3DqWuVVr58sREREq5I6Z7Cl+5ZaiOaLAR7R4jijY8i98jqcsZhpmYdgEO6dO+HZvx+ea6+FZ/duuLdtg3v9erg7O3WoJ11j5039XHCpY9tnz8JJJEzjHEgAmc3C2rgerlkmxGAXWiK66vQ3NOON627CiW27kJpHWfRMxiI1eGfXtTi09wbEQ+xOM1ce3+JfeyIiopXEn2VERCvAseH0DcDum9vkD1MEg7qrq+/gQXi2b9eTUUhoJot0g5Xx7ObTdbaUPl5T07x7Gdm9fbD7B/RzmwkDPCK6amQ9HpzetA1vXXM9xmUw0gqSqjzpYvvavpt1F1t7poFOaQJnniUiotWOP8uIiFZAzkbu7Pl5dVPVZGbZa66B57rr4AqH5x2yzYm6D+8dd8D34INwX3stMNcwMJuDffaCfm4z4SdMIroqyCQV7+zah3PrZGYg07gEsl4P3t15Dc6u32JaaCaWewFl6URERFWEP8tWD5cDeNUH42Amh3A6i0g6oy4zCKVz8GdtWAsYQouIVogEeOcumI15CIV09d1iKuzmwqqthWfbNvjuuQeBhx+GtXGjuWZ2tjwnBnhEdDXLeH1465r9GGho1JVyS02q785u3IJTm7fr4JDKcy3Fb7yIiIiWEX+WVT+PbaNxPIVNw2PY2T+Ca3qHcG3PoF6u6xnC3t5B7OobxtbBUbSNJRDIzrOih4iWnTMyCozOfxIhz44deqKKZSHj4Xk8ejIM/333wb17N6Q6bzbO8AicMfXcZsAAj4jWPJlhdkhmO11m5zs3oael3WzRNPzQQ0REqx1/llUtqbhriSWx9/IQrlGLhHcbhmOqLYHGRAoNibRaUmiOJ7FuNI5tAyPY0zeEfT2D2Kj2k2o9IqpOdle3WZsDy9LdZa2mJrg3bzaNy8sVjcJ7yy2wNmy44s8Nu6vHrE3HAI+I1ixHvTme3bAVl1va1LppXEZS7Xd82+4VCQ+JiIiIrla+rK0r7a7rGUT76LjuLuu2Hf3hVxY5LSxd3A5099rGeBI7+0ZwffcA6hJpHQQSUXWRCR/mRGab3b4d3rvvhv/jH59zV9alIBNkePbuzY+9N4vZnhsDPCJas2LhCC50rtybtLAlxNu6E2nOUkdERLQkvI6DzZkMbk6l8N5EAveo5Ra1vkW1+dR1dHWJpDK44VK/rrbz53KQwUzm8qFXvlMkyJN9pdttUzyJG7r70ZhIMsQjqjLO0JBZm5kEZd7rr4fv7rvh2bkTrpoarPSwB+5Nm2A1N6sHN/PjcAaHzdp0DPCIaE1y1CnY6U07kPGu/ODS46EIu9ISERFVmN9xcEsyib/s68Mfqw9z/2pkBL8zNobfVsvvqvX/qNq+1NuLg2qfAIO8q0JNKoNreod111hR+Iisv/rSja61Ba621umLtIdD+f1kV7XIbQOZHG7oGkBzPMEQj6iK2KMxszYDrxfuXbvg2b8frkhk1sBsOcnkGbob7Sxj4TljMz83BnhEtCb1NbdisKE6uq5K993TG7fpyTSIiIho8famUvjDwUH8b6OjUB/NZhRQH9r+pdrnj9S+NySTppXWIuk2K+PcNY4nJyrpirlqowh89lcQ/I3PTFsCv/4ZeG5QH/TNvkLWZZFqPBkXr4UhHlH1SCTMSnl6Fth9++AKBk1LZTnq/p3cwia8kUktZg3wZnluDPCIaM3JWW5c7Ngw8VvUamC7LZxbtzKDphIREa0VEqjcmErhfx8ZwRb14ak4cJmJ7LNR7fu7o6O6Go8fgNYey3Gwo39ET1ChvyfUtpwHynjIskj1jVS+SCVO2SVao2emLOyvFzmOIseTCS22DYyiJp3JNxLRyppttmjLgrVuHay6OtNQWbnz55H61reQfe01tTH/EE+HivK+NJNZnpv7ww8+8DmzTkS0IEfefMusVQfpsiphmYRm5cjb5e5gAP9jRwveq07YTqsPAiML/A3KfGQ9XrT0X4bbXvr7Wg0CNbVmjYiIaG42ZTL4/4+MIGC250S6z6oPSzIWmoR/b3q9GHTLVmWkYqNmjVZK+1gC2wdG9TmeLFZbG/wPfQiem26A5/rr8ss1u+Gqr4NLKl/kw3PxIreJRuHeuX1y/33XAer7zRkY1N9DPnWuKGMbDwX9+VBwka65fp9ZI6L5yr70qlkrQ72/e669Nl/pNkd2Xx8SX/kKMm+8gczrryPz2muwBwbgVu8lLp/pRaXeB2S/zEsvqTf+FHJnz+pfAMjstoX3kblw1M+w7JEjM4d/6lie224yG1PxF1BEtOYM1dUjO8PYd1H1hv7ZlkbcFa3BF3v68MeXLqvtJqwvvDEvoUQggEQwZLZo7bsfv/fYl/D4t2T5U/zeg6Z5Fv/kv5j9H/tdzGF3Wmq//e/M1+9L+NIf3G8aiWilRG0b/7OEdxLIiY4O4L/9N+DAgfx2OddcA/zX/wps3ao3vWr5X9UxmpfhF3e0PKQ6btPwmK7Ckw+38jHaam6Ee9tmtWydWKyNG/QHY0ftV7oIV0P9lP3dO7bBZQabl2NK91mp8JNx9ohohXlmGedcwjSvvNvPnR2P61DOd+utenGvXw9H2rLZ/A7qfcIeGkLmF7/QoZ3voYfgVT970s8/j+zx4/PqTmsPDqp/bLNVxizPjQEeEa05/Q0tZm0qv8vCP25tQpvPi7/uHUBXOqMr74azOWzwL32AZ7vdGI7Wmy2quAd/F18yYcvU5d/hn5hdqpp6/Ld0mvXwbrzvt836Ij34B39a5jUpLHMLFomIqsGHx8fRaT702NEonK99Ddi7F/i3/zYf5pWS8OX//D+B/fvhPPoo7Pb8hFJN6oPYg+pYtDY0jqcQzEztTu3Ex9WH5CE9U+XEoj40X3GZsr9a9PeJCfjUEk5n0TSehGUyZCJaIcFZ6rDVz4nZxpGbkanck8Xd2QlXUaW2E4vlu8xmszq4k+65HnXpVT+DMi+8gNypU3PrTqv2kS64swV4rlmeGwM8IlpTbMuNkWj58Q7uikZMeDeIhJN/0wy4LDR63OjLmN+uLLHhugazRpVjKt0e2Y2waVmVnvgPeLnLrMffxU/+xKwvqRD2PsLqMiJaHa5Pp82aoj6cpf77f1efgdTP82gUePRRtcP15kpl927gL/5Ch3hSYZX84Q+BkRFzJXBDKj9LKa1uUnXXkEjCn50a4OXOnEXyrx5D8ktfXdjy6FeR+LO/Qu61N+Dk8ueMheM3x5Nwz1Y9Q0RLzqqZZfoiqZbr7p41JJsXdbz0z3+O7LFj+co+tT3B74eTzSL70kvIXbhgGmdmX758xccmY3LOhAEeEa0psVCk7Nh3tW43PtZYhx8Pj+GS+QDgUadiv9HaiFdicZxYppnpxiIzvyHTQvw6/vO3/gH2TiR3l/D0xz+Lh4uWpwuh2Crwhd8xj/vT/wFPmLZKih/+24nX5cuHJ6tPwnsfYiUeEVW12lwOWwpdmRQrk4H/T/8Umb/7u3yIF1Y/CP7oj4A9e4Dt24F//++BxkZ9XfpHP4JfbVtFVXftqn1d0fFodfLlbIQy06teJGxz1Lmd9+47FrYcvA1WY4PuFlccDMp6NKW+92YbQJ+IlpyrYZYJKtT7u9PTo8erqxQZB8+9aROcgQEdwmnq55CMlWc1NMBavz7fNgvpkpt56y04o7OPmypjdc7E9YUvfp4FwES0KI8/+phZW3m9TW04vOc6szXpk431uK0mose8KwR4iyUB4PWREJo8HvxsLIbRuZRNK3f+7Gl4cvzQUNt+5R90VyLdQz+z14wrGH8XX75i8CXVesWBX54EW5/9N0+aranH1df13onH75nsnlXYX8asu6fQ7VXpevqz+BcTlXPF9zWOw49+F/il4vuWtn+K3594wBJG3on84SSI/Nf4gl4veZ4Fc3q+ZZ7LxPMsvr/Jxz7n+5Iuy9OqHqc+7tLXR+jH8Oq+ydsWH7v4mMXtMhadef2nPodyX8/S11Upuj26nsPDP2o291P8eKe+Hvq5PA3cU/Z+iWi53ZFI4F+OjZmtSY7bjfQ//sfw/fIvwyXjHkllnQR6waCuvEt973vw//Efw6U+aJX6s0gET4ZK3u8WYKT7ylUXtDRqk2lc1zOoQ7XioE3Ih9zw7//vQMk4xzrcy6/ObHwcqce/jdzR46ZhktTNvN7RhJ6aYL5hgR5+5NNmjYjmK/fGW8g8/bzZKkP9bHDv2QPfHXfkZ329guzZs0irnxehf/bP8ttvvaUnqfDddRdctbX6FwIy+YRMYOHesgWe667TXewTf/VX8L7nPfDs2qWr81wzjF8nt5cuuDJJhv45NQvv+++Ce99eszUVK/CIaE1Jl5mMQrrJ7gwGMJjNYnCWrrIykcX/tbETv7euA3VmzIPb1cn9fXVRfYz/Y107dgTyYxJ8orEe96p22W+j34c2M1DqnTUR/L+b1+Ojs/xWKO3zmzVanF/H+yaCpnEc/sZcwqyHpoV3Irz3H8zYjVSuKw7vhG771vRwqvOemcbbk66qpUGTtM1hDLoHfxefKA3URHg3PlPpyS7mel8SiM3aZTnfrbn09ZnwxCGciZv1cC3WmVVsrJ08ZngjbjB3+GBL4f/TOM68akI0CfumVF8W5LsFP/5fft1sl9qG/1z62PWxisM70TER3hHRygsWd1kq4srl4P3Lv0T2G9/IV+L51c9YE96lf/hD+P7Lfykb3ola2Z9WNY/6GkoV3kycvn6d1uWOnUDqq1/X41fJd5IzFkPqm38Hp9dU6KjjZF94Cbm331FXOrrbrD1LlUw4zYksiFaSqyM/pumMZKy5o0eRefllM5bl4rjUZ0BZILNYl5DqPAkJZwzvYjGkn3tOT4BxpfBOWJ0zPzcGeES0pthl3lSDbgsh1R5XJ2MpM/ZdMflN7P11tfhwQy1+/0I3LqbTuLUmjBq3G/fWR3FdKIhPNNah1efVJ32d6k369poIzqk34BsiIYTV8XPqZO+RlkZ41P3IMW6OhCfCvlKOVfo7YlqQB5sxGZMOo/dK6Z0hlWaFbqQPf/w5FHrYhvfeOUP4VuiW+7c4XAidtHLtHdg54+QThf2Lu6+GsPe+mYKmIlI1Zm4ry0S34EVMdvHgH9w4pdrsWKFy8Ir3dT9+75ZCsCXVbmX2/e07J4O14uM9+q76Sokn0ZtfUerQYoK6f7KzODALoX5jfm1dvQkV4+fwuv46//qUEG7ya1r0tei8E/+53GvT2VES1Knn80uTx5JKu/yxJr83iGjlzfahxVI/jz2PPTY1qLNteP/bf4MlswjOgD+NVz+3Oq1z29PD3UJLrlu6ujl6QPvc6TP56kxpGRuDfVG9yxd6Zcj1XV2TH/TtnPqBUP5Dv3zfzBYaEtHSs9RnNz3+6WzUzwSpekt9+9vIvvOO7sLqqJ8X5RbZdxoJ81X7xH6yT7lfJskvBoqOVVjsgQFdsZf46leRe/ttvd+VuOpr4arhGHhEdJWwyvw2Xbq6utXZVsaxJ07oijV5vLi7NoJv9g8jrm7/xOAwfjoS06FfWC1p9UZ9LJHCkHrT7VNv3H6XC/FcDsdVW1qdNG4L+PG/dLai3efFz0bzXWn/tLsXx2cYV6/cY6QFKK7Wio/golmdzRP/5p8WdXEVf4VjEynNZJA0RddJ08XySbx+puhkfob2upbylXxdT092LX3i3/xiMhzq3Db7LLlP/Ad89nf+ymzkfeHYJbM28/2VU6gclKW4m+zEY5v3fYWw+abJti/8zuRznFD8/NTx/4Xphjp53EJQdz/yhXbjKHze7twp4WahXRnuM11qt02GcF3PFX1Nn8Tvvzz5ePO3n24y8FOP98F92DyR3r2Lb050k/0r/KRonEAiWlmzfuzZtg0u9QHJJYOJywcutcjsgdZXvpKfzGIG8vOd1obSMLawbfdcVhsu3QXO5Q9MfvguuYGTVB+4h0fyA9SLnIR+yzM+MhEtgNuCe+NEH45Z2T09SD/5JBJ/8RdIPvYYkl/72rQlI+OmlJDbpb7znYl9ZF3aSqVfemnKsZLq51HiL/8SyS99CZkXXwRiMbPnlVkb1uvnNhMGeES0pvjKjG+XdGwkbQd1Hg+CrulvexH1Jum3LPRmM7qr7T/vaNVtWwN+eNRJ32O9A7g2HMRQNoexnI1dah9pD6l9RnI5/N75brw0FkdCneyl1X3dWxvFffW15ujTlXuMtEjF3TBnJeOc5QOswjJjN08jPjQZCBWbqb28cQydM6vaJQzNXBQyjYwlV/yYS7v0LpipjisONa98X1MDy8lQsKj78J+cLKpe68A95lhTuimfG0HhJdDBYCFIi5/DmUJ1Xl0zHlS3rzcBW9exfLg42aW2zNeh6Lj525eIl8zwWxwEFwJC44nJMkEiWmHykals3LZ5M/D//D+AjFHkqJ/Dzz6L1I9+lO9OG4nkr9u50+w8SY7VLWPm0apmq9M6W30ZZ4pi7d5efWnJeVnQD2d0+jiKwlHnZk4sDpffDMWizglnq5bJzvIBm4iWgfo/aG3aoC7zwx7NiVTKjYzAGRycvpQJ2WR22Sn7y3q59wWp7Cs+1tCQruqdN48bbv2cGOAR0VUikJz+ZjmWy+F8Kq0r5NYVTswUOW2XCrtfbq7XJ37vjdbg4w118KkT+s80N+IjDbX6dkPq9lH1RhpVPyD+ZUcLmrweBNTtPtvSiB8Mjejg71QyhUbVfmM4jA+q2800UYaEd25OYFEZxUHNTNVzU5ROUrA6lJsIYqEmu4eapaTabq73JZWMDz9dGmBKUFcY0++v8C+mdTk2YV9hbLqicfDCm/fhQROkxc8cwu8XqvMkmJ3oKl3UzXeuSgI5rVwbEVW9o8EgMqUfnKT71H/6T0BDQz68+9734P3c5+D7wz9E5hvf0G2Qrkh//MdAc7O5UV7OtvHGHAY2p+qWc1nIzPABXs7zCrM96kHs1X658xdVY5m4T8a0k9BXqvQUe2QUTpkeE3JLWRLqgzYRrSD1f99Sn9eslibTsPpZLc1wNTXo5zYTBnhEtKZExmOwctNng/3WwBBOJVL4H9qa8fGGeny4vhafamzA/eryT7v78P9eugzL5cJf9w7gyeFRPK72/7Oefny9f1Df/vGBYbwwGsNX+gZV25A+3t/2DaHbjJfw4lhMt0lV3l+q222R6r1pHTrU54ixEbNGi1Y8EcJcxpIr6nZZPA7exLhty2lKt83Zuv/+OnZOPOiiseSmhWeVMM/7+pN/bfYpDuqKu9Q+id//dJljTHSpLarkC9fifWb8u+HeJ4vC2Q7svM9UyBW9TsWVceH6kgrBooq6OVVJzlKxV1zpR0QrK6t+Rv9CJqgw7GgUzte+BjQ16Wo76R7l/fznYWWzeqgK75/9mR73yJZzgro6OF/5CnLtkwODH/Z4kJxP5QZVpZQ670p6y38dddhW6AZrvta5s1PK4Sc48stV9f3lCuYDPKdfJr8oE/Qp0jrqN11tiWjFuCJhWFs3o9zEEquOeg7W1k1whctMJleEAR4RrSmWnUPt6PSQbFidwH++uxd/0z+IzX4f/C4LTwyN4JsDQ/q6s6k0fjIyikuZjL6UiSxOpVITAZ1U1P1YtfeobZkI44WxmK68K5CTudfj43h2dAxvjI/jS70DKDfiXv3IkFmjxXsSv/+NdyfDl8478fi0WVllNtR8186yYcyDv4tbKlTdNrsQ9v7S5GP7J/cVTZpw5tDMFWFTJuooKJ5EooLmfF+Tr2leydiA4rf/3dTuslO61E6aDOI60Km/DqbKriicrVMfvMWU16n4eJ03Fs3k++v4zxNdfotmrJ3NE31mYg2leFKQmWbkJaIV84zfn+8aq7hiMcReew12Nov0M8/A90d/BKuoy5Klfm77/9N/Qlq606p94ocPw9WXn3FUjvFMmVnrafVJeyxdDVcuatO/RpUAV4I4t1uPgWefOw9Xua7T6nvCFYnkAzx1vd3bb66YSu5n3OdFaobZJoloGan/h9b6DlhStbZYXm9+ltkC/Z7h1+8Hy0FXE65TJ8NXeG9hgEdEa07zQH68k1ISqP0iFscfd1/GNweHEJcZxpbIuDoRLO144VYnkXWjHFOromTSheLqrvBufKYwdpte/sHEbKhPvHpuIuzrvMdcXzST6ZIremyT3VQv4eWJSRPKKK4ylICy5DlV1Lzua3JcO1kmJ8SYfD7FE2Y8XtR1OX74ucmJLkqDvYkqu8lZasP6N5GlYdxf4V9MfN1D2PtIufv5Ln5/Tn1li4+1Qt8bRDQnb4TD+JFl6a6xLvVzNvxv/y0y/+E/6PBOtku51H6+//gfkfnDP0ToX/0rXZ0nt/2Z+kD2koyPR6teVn0/DAd8eky6ciGeBHN63Dv1NXfVRuGM5LvUTmH2canvL93VVpr6+mf84N4f9qv7XZ4P9UQ0C/V/VLqdWls2TVTZLpRVW4vAL/2S2VKH27kTnj17Jie2WUrqsVubN+a7A18hMGSAR0RrTt3IELyZ6htnTsbnCyY4q2XFma6cM3aFLYRCpWGfIl1pl6cL7TgOP11ULSji7+LLMguq2SxPuqE+NzXkku6tJc+jMhZ5X3N4PvJ6f3ZKYDl1Mo/iKrvi2W+BYfSWhnH6617yeDX1Wj9aej9XIMcqfZ5L9joT0ULl1AebrzU24qiTn2lWAjn/D34wpfKulJVKwf/UU7AyGX2b07aNv1LHyKyFLlek9YcCGPd6dIA3LcTL2bBNd1h3e5uerGIa9T1hd1+Gy6c+qHvyH9ZlsPrSj9Fy7JTHjT51fzYDPKLqIFV427fAap06zul8yftEWv2scNTPDBn/MnfyJLLvvAOUe8/I5eBILy31M6gS5LHLc7hS9Z1wfeGLny/7ywoiorl6/NHHzFp1sC033tx7A4br6k1Lddhw4Ry2nTlmtqi2fb1ZIyIimruQ+vD0P/X04Hr1Yadsd8gyJLx7R33g+r/b2jA2hw9J8zHSfcGs0UpwqU+zWwZHsbM/H7pN+Y5QX2vfhx+A5+YDsM+eR+KLf4nwv/8DOD29SH7jmwh8/CG42lqR+tv/DldtLXwfvE9Xw4z/wR8BhfHzlEI42BUN42hzHVKexQfADz/yabNGRIui3t9zhw4j8+KrC5v9tcCy4N69G+7Nm5F95ZWJWaynkLHqGhv1+4WjfhbZ587pXwIsWCgI7+03wX3d3itW3wn+6omI1hwZB2/dpfP6hK5aWDkbGy+eMVtERES0UONuN/5zayv+Vn2Q6kul1GenmT88yXUD6TT+u9r3P6rbVDq8o5XnqM+852vDemKJQtBWIJU0dv+A/mBsdXbA/7GHdLvM9Oh74F64Ghp0YOe7+w54b7x+shuezEpbRI6Z8LrRFQ3pcfeIqIqo/9/u3Tvg3rbICS2k8u7oUaSffrp8eCfkPaWvT1fo2WfUZ7tZfv5ckQSG6jG7d+2YU3gn+O5DRGtSc38vGgfzg1WvNP2b4bMn4c2UKcEmIiKieYt5PHi8uRm/09mJR9UHn7OxGPqTSYxmsxhTy0AqhXOq7Stq3/+xvR1/o/YdXY6xjGhFZDxuvNbZrMfEmxLiOQ4c9X2g+bzw3HQgv66+f9zbturqF/ng7FrXqSvxtERCV9YUFI51oTaCgXBgSkBIRFXi/2PvPgDkOgtz7z9Tt3ftale9WbKKJUuy3BsyxjZgDDiGELBDuSkk5F6SfAkJ+QKB3CSXhC+5BG4c34K5AQLEVBuMjRtuuFfZklUsWXVX28vszk7/znvOmbY7K23fWen/s4/mPWfOnCm7e+adZ95SUiL/hdvkXZKdbXxSzN/+0OwMeeRdssg6J22zH/t40YUWwJQVWxfatFBFlV7afIFic1xhr7QqjufvekHBWMTdAoMutACA6eJLpVQVjyvgtoYwY9yFfD470JlpdKEtHgsHwjrvZLeCiaTdUsV80PXU1cp/7jr7+tNLKdnRpcSBN901KWkdqLWyQrua65UcXyOZcaELLTD9ku0dit9vWtAVnkm6WJgJK/zX7bQn4ZgIAjwAU1asAV5KHh1eulIHV65xt8w+r/VBYsuuF1XX1+1uQRoBHgDgTECAVzy8qZSaB8Ja09Wvymhs1EQUE2E+JEd8Pp2oLtO+BbVKTPPEFQR4wAywzgHJtnbFf/Gwkp3F+fnL27hA/ndcLW+61e8E0IUWwBnLY1W9Vhw9qOaTrXMyHp43mdK6A3sI7wAAAGZB0uNRW1W59jTVqsPt7pquApr47XSLYfY37TgHSgI6sKBaBxpqpj28AzBDrHOAt7lJ/nfslKdpgbuxeHgWNjrh3cImd8vEEOABOOOdc3Cv6nu63LXZs+zYIS1sb3PXAAAAMNNMN9fOilK93lSn1xfW2UFcOpQzS26oly6nrzeXUZ9Xh+qrtGthvY7VVChmrQOYR0yI17JQAdNFddliTWlii+liPQbv8qUKvsN6TKblnfUYJ4OzEYAznpk84rzdL6uhq0OeZLrKNnPMjLNm0gqzmBlxAQAAMHtMbW8o6NeRmko9u6RRLy1aoLbqMkX9ziyzuYGdWUwLu96yoHY31urJ5c3at6DGXk9M8kM2gLlnxpcLvP1q+TaeK5WVuVvnQHmZfJvOtR7LVVNuFcgYeACmrFjHwBsp7vPr6JIVemvZKqVmqD4WiMXsbrMLutrt8e8wNsbAAwCcCRgDD5PBGHjALIlElNi9T4k39tnj42m2PqP5fHZ3Xt/6tfKdu1YqCbpXTB4t8ACcNfyJuFYePqAtr72gisHBaR0Xz4x3V9vbowteekZNHW2EdwAAAAAw10pK5Dt/k/zXXCnfjq32DLAz2q3WdJc1Y91duE0Bc59bNk1LeGcQ4AE465jx8M7f9bzOefMNlQ5H3K2TV93fp417XtHm119S2fCQuxUAAAAAMOfMuHimS+3FF9hBnv/SC+1x8kwruWnj98m7qFn+yy6Sf6d1Hxduk6dxeifS8L37xhv+yi0DwKTsfvlVtzR/+BMJVQ/0aXHrMZUODyvmD9gn9pTXp9RpxjvxWbctiURUY93edJdd/dZ+VYQH5U3R6m4iSqtq3BIAAPNXJNTvloDx27h1i1sCMGu8XnkqK+0Wct4Vy+Rb3GJ9KCmxTuRRaZINOzy1NfKtO0eBC7fZre18y5bIU2N9zpmBCXAYAw/AlM2XMfBOJWmdzCPBEkVKyhSqqNBQWYVVLrW2m29lUvIl4nbQVzE0aId1JcNhBaNReeyhjzEZjIEHADgTMAYeJoMx8IAiYBpgJJwlOdCv1PE2Jds7lOruVWogpFQ4LMUT1n7WZ76AX56yMjsA9NTXyrtwgTwtLfLWVDthnVk8M9vJlQAPwJSdCQEeZh8BHgDgTECAh8kgwAMwUYyBBwAAAAAAABQxAjwAAAAAAACgiBHgAQAAAAAAAEWMAA8AAAAAAAAoYgR4AAAAAAAAQBEjwAMAAAAAAACKGAEeAAAAAAAAUMQI8AAAAAAAAIAiRoAHAAAAAAAAFDECPAAAAAAAAKCIEeABAAAAAAAARYwADwAAAAAAAChiBHgAAAAAAABAESPAAwAAAAAAAIoYAR4AAAAAAABQxAjwAAAAAAAAgCJGgAcAAAAAAAAUMQI8AFPmsf4DAAAAcHrUnQFMBgEegCkLlATdEgAAAIBToe4MYDII8ABMWUVlpVsCAAAAcCrUnQFMBgEegCmrbahzSwAAAABOhbozgMkgwAMwZU3NzW4JAAAAwKlQdwYwGQR4AKasZdkSBuMFAAAATsPUmU3dGQAmigAPwJQFAgGtWLvaXQMAAABQiKkzm7ozAEwUAR6AaXHOhnPdEgAAAIBCqDMDmCwCPADToqauTms3bXDXAAAAAOQydWVTZwaAySDAAzBttuzYrrqGBncNAAAAgGHqyKauDACTRYAHYFrtuOISBUtK3DUAAADg7GbqxqaODABTQYAHYFqZbgGXXXM1IR6Aeeh6ff6b39BdP/yGvvHF691tk3fjF//FPtZd3/yMbnS34Wzycf138/Ofpt8nAPOTqRObujFdZwFMFQEegGm3YGGTrr7hWrrTAjilT37VCTeKJuC6cYtWVjjFirpFTmHSrte2leVOsaJGS5zSKJnXoGDIM18DoGwQOmr56sfdfQDgzGfqwqZObOrGADBVBHgAZoT5lvHt73knE1sAmD/ueUWHBp3iYM8JpzBp9+nFQ0NOcbBPx5zSKVVseo8+f6Y31Vt8JS0SAZwVTB3Y1IVpeQdguhDgAZhRZrDed7z33Vq5do081n8AULzu0xdu/ahuef9H9dHP3edum7x7Pvd79rFuufVLusfddmrl2vSBMyzcOv6Y8xpYy8PH3W0Vy7WNBA/AGcjUdU2d19R9mbACwHTz3H7HV1JuGQBmVCwWU+uRY2pva1NvV48GQyHFIlGlrP9w9qlpWeqWcLYy3Ud3LrYKg3v0b3bIZbqMXil702vf1Q/0Ht22ye2GmtnHYcaXy1xnG9Jrd/6evuDukDm2yxwvHcplb3tCDz8s7dy5yD1+h67JuX9nf9Md9Ne1ye1aa8t7LAWuN6HVH3y9wPMbLbvPkAYrymUOc/zhj+rTXzPX5r8e9uO58TP6xsfWn34/26kfe/Z1GOO1s/d9RdtGHsOSve9Ccu7XfS1sn/pb3WVea4u5/d51+T8jI//xn/rnXPi6u6UPOPdd8GeYeTzZ1yz7XE73s85/bR4+tFw7zf2nj5nzszGOP/yY9ctV6OeCM01f61G3hLOJCesCJUFVVFaqtqFOTc3Nalm2RIFAwN0DAKYXAR4AYE784r5fuiWcrUYHXDlB1OCQKipyw5lsCDI6uDHSwU6BEMZ1ytvbj2FkgKfCxyrwePNMKsCz9nmmRrfZAdcJPfz+z+r2qQR4I8KkfKc4/qhtiwo/R8vYIV7hAC/zXEcEbSOlH8upfs4v7hj7uvZ3jHjd814L97lnto1cLyT9euU+hxzmOf6i8RS3z319cSZ6x/VXuyUAAGYOXWgBAEDRqajo1cN218vHlOl5uXKL3b10SZ0b3JiAxu2eecv73RZkn7rSDYVMmONe97Aznl369rlMsDJ2N9dFqnMTmcx+Oft+8qvpYCvnvt7/Xb3WY2+cuK991u1mukg7pzjZwyffkRtYuY/tzj1yhvhbpIvsSTG+rr3ui5uZtONTazLP6dBzJnD6uj6dvn36+bnjBC5eN47HaMa8cyewyARfx5+3flbZ7srpJd3Fdjw/51Ndd/ted/zC9OQhy2us12JIg/bjrlWTObi9zXL8gBPMjev1ymcCTHs/E9Zmbj/69w4AAGA6EOABAICiM/jaY3awkhsypWUDmvW6zQ6H/iUz+cONTbVOwYwn9zF35lO32+bo2WDTIdVYcgKuTb/uHCszAcP1ytyVHUi5Zd2nL3zO7TI6Cbf/wg2NFl+p//4pe9Mk5D42J6Cy5UzSkQ7sMq/l4jX6pHWRef1ynpNpdZYO4e76YeFWc+Nlh15uizzTwi573NEt2071cz7VdfraATf0dcK6T64zz7VXh+xJRcq1csf1mefpTFYy/tcr64T2ZlofjvG7kHkcAAAAU0eABwAA5pevfTandZThhHXf+OL12ZZZBbmtrzJ61Z4J3gq7/Q8+qn97zZ1N1rADIxMWZVvnTat7vqQfuPe32B0/beIm8NgyIdMirfvU9dq20nn9ju/NhmzpYM1phZhtgTcupntpukWbtWS63H7qb7NdYN19MpNcpJ3i53zK63RCPfYVJqz7jNaZx3/8gL7Q3ms22mGc83uSDnAn8bPMm1l4hn4XAAAAchDgAQCA+eeeL+mjdiiUDZRMMHOsJx225XZrTS9uN9sJyswmmwmMylW3PKdl4OILsq2/zPhvX5xa99d7Pnf3uEKy2ia3W2em22ta7mNzWtbZbtyilW7Q5LQ8M7L71q670r0+27osHYhmx3CbnrAq29IvPUZeTiu2XGP8nG1jXnefXrRb21nrK5fLHNZ+vumwsnaN1tkbD+tF+/dhIq9XIenA0JJz+xu/eMEkA1gAAIDRCPAAAMC8MlaXTtNq7J7PPe+2KMvpQusuE++SaiZ0yDlGzkQIJuDKdHfNuy/r8dTZG6fgPn3hP3Jbl+W4p0NOOzJlu/WmuwjnyD62RdpZ4PE/kzOhQro7asXiRXnjwuXK3NcYE1pMWmaMvNFdc0/1cz7VdcY9zx12nr89s2+6pZ0btFUs0mKzf29HZtzDibxeo1k/r2fSAV/29qMn2QAAAJg8AjwAADDvZWdENZMuTLCb54RkZyR1WoBlJ9lIO3VrrXHK6Uqbz3p+eV1HTUvD0Y9hrMfmdFd1H39a3lht1vF+kR3D7/Y/yH8tjz88Pa+tadWY22XWtPAb1YW2gLFnvh1xXU7Qme0qnW2ZZ6TDPttEXq9CTJfevEkrxvi5AAAATJLn9ju+knLLAADMml/c90u3BADA/PWO6692SwAAzBxa4AEAAAAAAABFjAAPAAAAAAAAKGIEeAAAAAAAAEARI8ADAAAAAAAAihgBHgAAAAAAAFDECPAAAAAAAACAIkaABwAAAAAAABQxAjwAAAAAAACgiBHgAQAAAAAAAEWMAA8AAAAAAAAoYgR4AAAAAAAAQBHz3H7HV1JuGQCAWfOL+37plgCpccECrVm1Si0LF6qyslJeL98xAsUimUwqFAqp9eRJHTh4UB2dne41MN5x/dVuCQCAmUOABwCYEwR4SLvkwgu17pxz3DUAxW7v/v166tln3bWZl/D4FPWWKe4NKun1K2mtG55USt5kXAFF5Y8PK5CK2ttnGwEeAGA28PU2AACYM9fu3El4B8wz5m/W/O3OtLjHr4FAvfqCTRoOVCvuK1XS2iZ57CXl8SrhC2rYV6lQyQJrv0ZFvGX2bQEAONMQ4AEAgDlhWt4tbmlx1wDMJ+Zv1/wNz5QhX5UGgo12aOfxmMDOUVZaoqUtTVqxuFl1NVXuVkfSG9BQsE4DgQYlPXzMAQCcWehCCwCYE3ShPbuZMe/edd117hqA+epn998/rWPipeRRKFBnB3dp9TVVuuGqi3Xptk1a0tyYF+j19of0wut7dd9jz2jvwaPuVsmbSqgi2iV/Ku5umTl0oQUAzAbfu2+84a/cMgAAs+bNA2+5JZyNtmzapAUNDe4agPkqlUrp2PHj7trUmFYFoUB9Jrzzejz6tRuu1p/9zke0ef0aDfjK9HRPUk91J/Rib1IHB5PyBIK6YPUiXX/5DrtV3q59BxWJxuzutXFr/2AybDrb2sebKavXrHBLAADMHNqWAwCAWWdmmwUw/03n3/KwvyoT3gUDAf2/v3+bbn3vdToa9epv34jqc2/E9L3jCT3SmdTjXUn97GRSXz0Y1x/viurnJxO6aOtG/dNnP2V3sTVMN1oTCKbobwQAOAMQ4AEAgFlXWVnplgDMZ9P1txyX356MwjBdZD/z2x/S9k3n6t62uP5uX1xvDo2dwg0mpO+fSOhL+2Iqra7RX//hJ9RYX2Nfl/AGFPFzvgEAzH8EeAAAYNZ5vVRBgDPBdP0thwNVJrmzy++99nLt2Lxe952M28Gcie4Wl/n07sWlWhTt1tCLj2nwuUc0vP9VJSPD9m2MA4Mp/dOBmKqqqvRHH/+gu9U6tq/CHlsPAID5jNozAAAAgDmTsD6SmPHqjOrKcn3o3dfozVDSDu+MmoBHf7utRr+5plJfunKFKg++pPCLjyr08A/V8+1/VHjX0/ZYfMahoZR+dCKujees1BUXbLa3yetT1D0+AADzFbPQAgDmRLHMQhsMBvWhj9ymLVu3FVWrMPNhtONEdkbF/fv36yc/+Ymi0ai7ZX776Ic/7JYAzHff+Pa33dLkDHvLFQ7W2uVfu/4q3fa+6/WlfVHtDTkfU9b6h/U3ly2xy8af/rf/oede3eOuOcq2XqmKC3faZb9H+vuNQZ08dlR/8qXbnW2JYVXFuu3ydGMWWgDAbKAFHgDgrLZh03k6f9v2ouvSacaA8np97pp0zjnn6Nxzz3XXAODMEfeVuCXp4vM3qj2SzIR3qWRSz3/n63p59z57/fX9h+T3+7R25TJ7PS380mOKtTuz4catm5qZateuXKr6mip7W8JbMsNz0QIAMLMI8AAAZ7UNGzfZYVkx8lofUnOtXr3aLQHAmSPh8duXPq9Xq5Yt0hsD2agtduKQot3t+sP/+s96/yf/XJ/7x/+lv/nj39E//Pnvu3tkDe9+zi1Je0NJ+9y+ZoXTci9llVOe/HMqAADzCV1oAcyaWCym1iPH1N7Wpt6uHg2GQopFokrxnfhZqaZlqVuaOz6fT3/zpS+rtKw4x0bq7+nS8NCgu2Z9yE0k9OUvf9m+nO/oQgucOabahba3ZKEdrtXXVukbX/qsfnA8rp+ddM5zZsKKoecetsuGCeU+ddvN6uzp03fufsDd6vDVNqrug06w11Li0d9sDOr2f/+xfv7oM/a2qmiH/MmYXZ5Ofa3Z4Q5w9vBY/wVKgqqorFRtQ52ampvVsmyJAoGAuwcATC9a4AGYcX09PXr+yaf0k299T8889oQO7Tugnq4uRSMRwjvMqdVrzina8M4IBLPdygwTOK5YscJdA4Azi9fjfDRJ2v86Uom4W3KY8UG/+n+/Pyq8M3L3Tbr1C29OC2t3ngtgWpg6rKnLmjqtqduaOq6p65o6r6n7AsB0owUegBn1ynMvaN9ru901IKsYWuCZySsuuuRSdy1rOBXTy5ETak8MTDpi7u0f33dk8XhSoT4TZjvMrVZW1ejqRctU7vWq62Rr3qfO1157XXff/RN3bf6iBR5w5phqC7y+YKOS3oACfr/u+uoX9FBnUt855rTAG973ikKP/Mgun05gyWrVvOtWu7y2wqM/WxfUl+74tp588TV7W9XwSfk1/S2YaYGHQtZu2qAtO7a7awAwdQR4AGaE+ebxucefsr+VBAqZ6wCvsWmhPvMXfym/9YExl2m18f/1PKxD8R772/XJ6jhR7pZOw7qL3vawIkPZbl2mvciqmlr976uvU7ivV+HBkHOFJZFI6s47v6729nZ3y/xEgAecOaYa4IUC9Yr5Su3y1z7/aSVqGvXXe51zYnI4rO5v/6MUP33X18qr36vSdefb5eubvPrAkoB+5y+/rNZ2py5SO3zCPr9ONwI8jKWuoUE7rrhENXV17hYAmDy60AKYdp0n2/XLnz9AeIeiVVlVpf/0O787KrwzXooc08F495TCuwmxPk3WNJbKF8i+JZt7frOvVw8dP6zyqpq82Wh9Pq9uvvlmVVZWulsAYH7zJSNuSXpu1xtaUe7RQncEAW9pmcoveJuzcgr+5mUqOWezuyZdVO/TsbaOTHjnS0RmJLwDTsXUhU2d2NSNAWCqCPAATCvT8u7Jh35pjwkCFCMT2t1403u1sLnF3ZJlWt89MrTfXZs9Hq9H5dWjB73+/pv7zABOKinPb81XV1ent197bcEAEgDmm2AyYo9tZ9z/2LNKJlO6qSV7fivbfInKtl1lnSwLR3D+lhWqvu5D1rnU+Wizudqj5eVe3fvo0/a6Ye4DmAumTmzqxoyLB2CqCPAATCvTbZbwDsXKBF7OuHeXuVvy/WzwdR2Mz03L0dLKoHz+/A+nb/R06/bdL6uiqkaBEqd7WdqG9ev1nve8hxAPwLznS8UVSEXtcltntx28XVTn1Y5a56OKmXm2YsfbVHvz76p04w75GxfLV79QwZXrVfn2W1Rz42/aLfWMKuuUeNsyv46f7NT9jzmzz5pxRAOJIacMzAFTNzZ1ZACYCt+7b7zhr9wyAEyJmbDi+OEj7hpwaqVVNW5pdjS3tOjWj31CmzZvcbfk2x/r0HdDLykxTV1nhwZGt6g7FfMB1V/iU2Qwf5yn/X292tiwQMvr6q0PAMNKJbPzMy5YsEArVq5UW2urBgcH3a3zw/mbs13dAMxvL+/a5ZYmz5dKKOIts8+Fr+8/pB3nrddVy6p1ZCipk+73gt7ySgWXrVXp+u0q27hDJas3yV/fZN/GqPZLf7g6oHpfQn/9P/6vOnv67O3BxKBKksN2eSZEQv1uCRjbcDiseDyu5sWL3C0AMDG0wAMwLUy3AGabRTEyLdSue+e79en/5zM6Z+06d2u+/sSw/k//04paHyDnUrDUr9LK/OAvmkjoC8/9Sl2xqOoWLJRvRIu7xYsW6bbbbtPb3/52BQITCw0BoFj4k1GVJMJ2ORKN6a++eqfa2tr1n1cHdMsin0pP86lle61Xnz83qJZAXH/3r9/SgcPH7e0e67xeHh+wy8BcM3VlutICmCxa4AGYFq+9+LJ6u7rdNeD0ZrIFXmlZmVatXqNLr7hSN9/yQW3ZunXMrqZ9yWH9S/8Tak9kZ3qdsJT1IbFzWN59vfK93iPv670KvtmjkpP98g1ErCulZFnANLNzbzA2E+LFogkl4tmWgJFEQs93ntTlLYtVV1mtZCJpXZ9tqefz+bR48WJt2rRJtbW1dmuU4eFh+5v+YkULPODMMR0t8IxAMqKot1Qpj0/DkageffZlNS+o0861LdrZ6FNTiXV+N+OCeqWagEfLyzy6pN6nW5f5rev96mhv119/7f9q94HD9vHMuHpDg8PyK67fq/foY/V+PTOUVHh6Glpn0AIPE5FMJrVo2dzOxA9gfvLcfsdXpvktDMDZJhaL6Sff+p5mbdZOnBFqWqa38rqgsVFXXr1TK1et0uLFS+T1ZWduHUt3Ykhf7n1YPUmn1ceEmV/5/qj8Dx6X780BZ30MkYVV6rloleLVZXagdyomoOs+MaREPNtd1qgpCeqOK9+hxRVVCg+GNNjfa38QGEtnZ5eOnziup59+Wl2dne7W4vDRD3/YLQGY777x7W+7palLerwaCDQo6c22KN54zgrd9PbLtX3TOgVGfBljQrqDR07o5489o4eeekEJ6/yZ3h4eClvn0bj+rDGuX6tzTtCtsaT+8mTMOv/bq9Oir/WoWwJOz2P9d9NHPkireQATRoAHYMqOvHlIzzz2hLsGjM90BnilpWX648/8uRqbmtwtp/dG9KS+HXpRnZNteWd9OPQ91S7fc53yDLufBH0eJZvLlKot0XDYJ/9gRMHOQXncD5TJgE+Da5rUt22ZPbvsqZjwrq89rFgk/1PmwvJy/eGW7bps4RIlEwlFo8OKDA054+NZj6mQ3t5eff3rX7db5RULAjzgzDGdAZ6RlEdDwXrFvCXuFkdJMKCVS1vUWFcrr9er/tCgDh1rVW9//nncdJsNhYaVTCb0Z01x/Vpt/rlxukM8AjxM1EVXXq5lq1e6awAwPnShBTBl+/e8QfdZTNh0dqEtKy/XDe96t/2B7nRCyYgeCe/XtwZe0GBqkjMmW58FfY+2yf+rdnniKaWqA0rsWKDYjcuUvKBRybU16qpbqKHVTRpc26RESUD+UES+cEwlnSF5h2MaXlRrfcocO8Tzmm5i5QHFTXfaRPbD52AspkdOHLM+4Ka0orpGVaXlKi2vUHlltUrLyu2Wh/GoM5tjWklJiZ5//nlFR2yfS3ShBc4c09WFNs2cGYOJsLypuBLeoFIe59xuWteZiSmOnDipw8fb1NbRbXe1zUglVZIIqTLWI68S+vQCjQrvjCqfRzvKvHp6mrrT0oUWExUsCdKNFsCEMYkFgCnr7WIwXswtOwYbx/hyptXd3/c+pJ8MvmZ9tBu76+npeJ/vkP85p0tqYlmFoh89R4nLmqWK0d1hkiUBhTYu0sl3btLQ8np7W+WBDtW86IzRdCpe60Nm7cIKVdblt0JJJJP6xp7X9NuP/kKPtzktP+xZbANBVVTVqKSs3N6Wlp6hsZicqusvgPljJv+WzaQW1cMnVRHtViAxJE8yMbqlcSopf2JYZbFe1URO2hNWeJTSHzemCoZ3aS0Br764MKAqPg1hDlB3BjAZvGUBmLLB0BQG/wdmWDgZ05Phg/qn3l/qK32PqSMxeKqh6k7LTFbhf+Kk9ak1peTicsVvWi6VFZ4gI1cq6FfvxasVXlJnd7+t3NeuYOfpZ0Y02VtFTYnqF1WopDx7P+Y5nBwa0meffkKffPwB/ejQfvXHnBaFJsgrdiHOG8AZYab/ls05MJgcVmWsV7XRk6qNtNmhXnWkXTVWuc5aqmLdKk0MWR9snLO737rNJeWn/5izKODVB2tOP14qMN2oOwOYDAI8AFMWy+2+AhSReCqh/9H3uL4VekH7Yh3u1qnxvdQlTzSpVLlfsQ+sknJCtdNJBn3qumqt4pUl9rh4la+3utecXqDEp9qF5aprKZc/6LU/1Ka91tWpf3zleX36yYcVTUzjyOwzqPXkSbcEYD6b7b9lE9L5lJAvFZc3Vbj1n5nE+69OxtSfM/zAWLaX8XEIs4+6M4DJ4B0LwJQx+yyK1bORI3oz3uWuTYNh60PjLqfbS+L8eik4ibdRr0ehc5vtYtmxHvkGJjaxRLDUr/pFlaprqZAvkH//+3t79dOjb7prxe3AwYNuCcB8Vqx/y4djKX1+HCFe4DQTCgEzgbozgMkgwAMAnLG6E0NuaXp4Dw1IMXdG2XOq7cvJsLvRWjzJlB3iTZRpfWda5FU1lLpbsjrDYbdU3Do6O7V3/353DcB8ZP6Gzd9ysRpPiPf6MONxAgDmBwI8AADGydPqhGMp690z1VhmlycjUVWqeLkzTl2wc/Lj4Ph8pivt/G098tSzz+p46/i7EQMoHuZv1/wNF7t0iNdXIMQbsLZ9pzfurgEAUNwI8AAAGCfPYMwp1AQl39SCs3iNEwB6owlnRoqz1AMPP0xLPGCeMX+z5m93vjAh3p+1RvXUYELhZErD1vLMUEJ/3hZTG/kdAGCeIMADAGC8rA99Rso/9bfPlM89Rsoc8yxO8CymFc/P7r/fDgX6+/uVTNKlDSgm5m/S/G2av1HztzofWt6NdDIh/UNnXB8+GtVvWMuXOuI6YWa7AABgnvDcfsdXeOcCMCV33flNtwSMX03LUrc0ddXV1fr8f/07+Xw+d4vjp4Ov62dDu921qfP/5LB8b/Qp2Viq2MfXulsL6zhR7pYKa3hkrz3+3XBLjTqvOdcZ2G6C4tGkuk8MKmWHgI5b123QR5auUqgvf2y9f/7nf1YoNPnuugCAwvpaj7olYPxu+ditbgkAxocWeAAAAAAAAEARI8ADAAAAAAAAihgBHgAAAAAAAFDECPAAAPOePQ1EzjhwaT7PNLzNJVPypBf3LsxodZltk1xyjbV9MjwFxtIr9NoAAAAAmD+YxALAlDGJBSZjOiexqKqq1uf++m8UCATcLY6Hhvbp+4OvuGsTZL07VrzUq9LjkcwksZ6uYWkoLgW8SjWfepKKWOTU4aG/b0iecEyDybgiVSXORo8UbahU3/lLxzXTbTyaUPeJobyA7hMbztMHFi3Pm8TCzCD5ta99jUksAGAGMIkFJoNJLABMFC3wAADzngmwEomEu5ZV7g26pQlKSVXP9Kj6uT4FTwwr2OosgagU8PsVSHkz28ZaKrqHTrmUWA83GAyoOliiks6Qgh0DCrYPqHJPq+qePmielPtgxubskr9frXW8kbc1rw2t8AAAAID5iwAPADDvpVJJxeNxdy2rylvqlibGk0ip5NiwuzazfF6vvCO6vQY7Q/LGk+7axNSWlCg1ItQzr41phQcAAABgfiLAAwDMeyacikWj7lpWnbfMLU3CLLZYGxng2WPhjePuU9Z+Ix/mwrIKa3t+WGcCPFrgAQAAAPMXAR4AYN4zAV4kEnHXshp9FfaEE2eqZIFJLxZVVI5qbReNRmmBBwAAAMxjTGIBYMpmaxKLZCKlwYGYwqG4hofjikWTSljbHCamyUY1KVO0/3Ev7GL6emeD083Q3Sd9nSe93V5xlzRznXOZ5t6FxbrOKpvV/H3MbbL75xbNfuY6s8nn86gkIJWVSJXlUk2l5D3Dv2KZzkks/H6/PvXpP9KKlavcLVl/0fUzdSeH3LXx8cRTavhRqwLdMXfLzBoYCCmWM4ZfoqJEJ9+9Wcmgz91S2FBfRAPd2eCyvrRUP7n+ferpOGn9fWS3nzhxQt/61rcKdjMGAEwNk1hgMpjEAsBE0QIPQNGLDCfUfmxQB3f3qO1ISH09EUXCiRHhnZFed+WEZblXOUXzb+4OjpFbRo4lNvL6vHV319FHzT9GmtnPLObaeEIaGpa6+qS32qRXD3h0tM2j4dGNylCAmaRhaHDQXcu3xF/rlmaP1+uxlpl/i43H83+3VtbU2JfJERN6mNaJhSb5AAAAADA/EOABKGpdrYM6uq9Hfd2RnLG+nEI2KDPr+UGGszpyW/p26Usjf5sZJ8xpE2da1Pmss2RQSZ+1BEqtpcRdAkr5zHXWfiPuYrR0+zt3x1H7ZzdkSlbBBIedfdKetzw60ZF9pijM/Nza20+6a/lW+Ovd0uxYv26N/vTTv6s//+NPavvW89ytMyMeyQ/lNtUtsMe/M5N65Oru7rZfIwAAAADzEwEegKIUDSd0bH+fejvC6TjNueJUPGYfZ79M5GVtszcXZK4wezo7JH0BxYI1ilQsVqR6lSK1qzRcu1qR+nM03GAtjes01HyuIi0bNbR0s4aWb1F46bmKNrQoWVLqHMm9r/zHO+IB5Kxmo7nsxuxjdy5Odkt7D9Ma73SOHS3chWmpv9Z6KbOv9EzatGGt/tNvflBNjQ1qqK/Thz9wk3Zs3+JeO73M71o8lg3qPB6P1tXWK5lKjvyNU3t7u1sCAAAAMB8R4AEoOsODMZ042KtIeIzxx+x0YmREYRmxKTe4KxTipaxTYNJboligXsPlyxQtW65EaZNSvhL7Wk8iJl98UL5In/zhbvmsxR/ukycakjcRsQO2RGWtIovXanDTpQptvkSRpasVr6lTyh9w7sTlxEcFHoQlGy2N7LCbZbrX7j/q0WB4doKo+eitQ4fcUr4GX4WCpjXlLNi0YZ0dpOU6z9o2E+LRhD0LbVqJ16uW8kolE0nrVyn/N+nYsWNuCQAAAMB8RIAHoKhEhxNqe6tfCRNC5BirBV7hOGvEvrk72cGGR3FfpaLBJsUCC5Xw18ibiisQOamSwcMqGThiLW+ppP8tBfsPW8tRBfqOqaTnqEo7D6msbb/Kju1W2eFdKn/zJVXse0HBY3ut4yYVXb5GQ5svVGjHpYouW66U9/TBkXluo56H/RTyn4cZJ+/N46Il3hi6OjvU19frrmXV+8pVMksBXiw2epKImZo4Ijqcf9xSv1/N5RVKJhN53WWHhsLq6upy1wAAAADMRwR4AIpK+9HR4V2aRznbCwRcjhHb8vbzKuEtV9TfqKSv2g7OfIlelQwfVTB8Qv5Yv92yzpOMyWsHINljjQzYPNb1nmRc3mhEvnBIpSePqfLVp1Xx0hMKth6x9wlvOE+hq65WdPlypYKB0SFdnvzHndl3RNNB89K8dfLURzpbmdBq/14TpOYr8fi1PtDsrs2sV3bt1nBOwhqLxfTiK6+5a9MrNpw//t3mBQtU6Q8oHo26WxxHjhxWMln4bwoAAADA/ECAB6BodJ0Ijeg2mx9eOUZvO1Wclb4u6Q0o7q21LqvlSSUViHUoEG1XIN5nt74bedzsZBb2mvtveh/nMi9bc8u+wZBK9+9RxfNPqeLFZ5UK+DR0wXYNXLtT8aaG7APKva0l+xyy91Jw7D5rW3hYOs7EFgW9sWe3W8q3s3yNW5pZbx46rH/+128oGo3Zodn/+F/f1Ot79rvXTh/TdTaRM/6dcfNqp6tuNGr9guR488033RIAAACA+YoAD0BRiIbj6u0YLBBaZTeYyGp8sZW5jXM7E8MlPeVKeKrs23qTfQrEO6z7iZpr7H0MJ6xzbpPtrpu9b+N095372D3RqALtJ1X94AMq3bNbqaBfA9e9TeFtm5QqDTo75R8+7/h5VxW44/YeutIW0nrihGIjWqAZy/z1avJVumszxzTcDIUG7W6sRm9vf1531umSTKSUiGd/f5vLy7WtfqF9X7kt8Ez3XSawAADAqacFEkmVxRKqiMZVGY1ZlzGVRxMqsd5TvdP/dg0A04oAD0BR6Oscsi+d9menqkHlXGcXnfVC4VrK41HCW6GkSqxKWVi+ZI/8ibB7Zfo4ua2YRhzF2uV0rfCyl7nS+1q3TyZVuvsNVd73oAKtrRq+YLMGbnybklUV9j6F5RzTLo64D3e1vbfQsz67dXa0Kzzs/oxH2BCcnW60syEcimV/hS0XNrXYl9HIcF5gGIlE1NPT464BAHD28Vt1sYahiFb0DmhdZ582tvfovLZue9nc1qNN7d06t6NXq7v71TwQVqkZdBgAihABHoA5Z1oTDXTndPsrFFq5TGSVN6FF4d2U9PiUVLlV8siXGrKXzO3ybpMf0GU56yMjsvGu25fuIe2x9sLDqnjkKZU9/5ISjbUa+OA7FF+WHyiZ/U53/FxdfdbzZGizPCaweuXll9y1fOcFnZBrppkfu71Y/7i/AtPKBHTh/vxWhpc2L7IvI+H88NJ0nx0ezu9SCwDA2cC0uGsKDWvTyR5ttBYT3i3rDVnbwmoIR1QfjlpLRI2Dw1rSP6g1VsVqQ0ePtrR1a7m1n2mtBwDFhAAPwJwb6o8o27KtkJHXFV7Phl0+pVIl1mVKvlRI3lTE7d46Yr90SyX30tmev0/+WHiOUa3wzMHT/WfTV1nMrdJ3YbZ7EgmVvrBbVXc/rGRlqQY+8HbFli10d3Dkdt/NOVT2+Gnuam8o/7FB+uWDDyqRGD3z69pAk+q8JtSdWWb8u337D2nfgYOKRkZ3552qaDihZDL7+1BXWqILGpvt39V4LHt/Zgy+p5562l2b5z71t7rrh9+wlr/VJ91NM+/j+u/2fX5D//1T7iacXW78jL7B7wAwLwXjSbul3ea2brX0D9ndZX3We6f58GsWU3saufist1bTvbZhcFjrOvq0tbVLteHoqCoYAMwVAjwAc244ZMajy3XqmpJT0RprH6+SClrXJ63SkFXpGvHtaf4dOTLbzDEL7ZBW+D7til0qezunlL+vx639mccdONauqh8+KE8sooHbrlNszWL7urFkKo4FHlqocG/Rs1pXV6cOH3rLXcvye7z6QOX57trMMTPPfut7P9ad37pLkQLj8U1VZCh3ohfp9zZtVYnPbwd2iXj2upMnT9qvRTH75FedcGT0kh/UfXKd08JQqlXTjW5xpn1qjdJ/mbVN17ulka7X57+ZfdyjQp75GgBlAtORy7/o87P1+gPAJFVGYtp2otNubVeSSMhnbRvPh15T3TJVLbOv6Xa7YHBY21o71RAeJsQDUBQI8ADMuehwfHQ2Zjddy904agf30mIXzT8mHvPb/3plWt3lh3dO5cu53ciKWHo1N3zLhISZZnTGyG6uIw5kZDY5hdF7pBQ40q6q7z0obzyuoQ+8TYmFde516cdg5LTCswsjjmStDjGRRUG7Xn3FLeU7N9g0K5NZJKwPDPEZGEPHzD4bGcq2LmyuqNDlC5fY5eHBkN0KL23v3r1uaT5apJ05Id7te0+4pV613+MWp9GNX/wXJ6D66sfdLZavHdBxt9jbfp9bOrXFO2ezheBcKNemj9EaDUDxqorEtLG91+4aa6TrVPa7o9crz8ImeZoXjl7M9oryTE0r3UqvNJbQtuNdahwME+IBmHMEeADmXCwyRtBxiopSbtCWZmI7E7p5ZMb8OsW4JbkJnBt4ZGekNeu5OzjG7kbryIR9rvTeubcauY+vrVuVd/1SPp9HsVuuVqra6d7pPId8ox+RYwYaeJ0RXn3lJbtF2kilnoDOD566xeNcyP/NGNtgX8QeMzLt8ubFqgwE7OBuKDTgbjW/1qn5FeAN7tG/vf+jusVaHk6nZlqkdemg6Gufta+75f2f1e3upulzvbatLNS1+uv6tPuYPv01d9NpLdLO3BBw3hvSa3c6r8Etd+7RoLt18boz6TkCOFOYbrNmnLuGoWG73jTyg66nplqlH/2wyj5x26il9OO3yb/t/Lz6limbxbTGM+PiNRHiAZhjntvv+AqnIQBTcted33RLk3PwlZOZ3Cz/hGRtsGtS9j85lw6zrzOaiXvpMQGeCW1Gx2vp22Z6ulqFnF6v1tXplXR85j4gu+ReZ+3jHDnvhu7iHjt9UOvCeQxObJc+fH4051yXPHeZUrdeJ9+BY0p98xfyJJL2funbp//NfewZVnHrWmfP+aamZalbmhkf+NCHdenlV7hrWYPJqP665371JU8xuUMypbr72lV6dOYngDBhW1//gHWX2Z9jdEGlOt6xQSlf9uNH0vpg0nViMBPgVZcE9a1r3qW6YKki4SH1dWe7y7722mu6++673bXiZbrQ7jR5qgnwbv2S7MZ1pvvmTqfL7PGHnfDMtJC7bZMJ2U7oYTvEM+PTXWl3cR187bv6gd7jXm+k98nK3t51/DHd8gdfd7q4fmy9Rs4JbY750ee2ZK5LP47RTBfaX9cms9PgkAYryq39Tej1e/qCeTI5xx/7uVgyzznntkbOa5GWfSzZ1yDzfIyR96nRx8h7vQsp+Hhyn6u5/Svall7Pkf9a5TzGtMxjzTlemjnuf0g324//1K9j9jEWeh2zxno8g689pkMrr7Tvf/QxDev+Hz6slTtP9zsASH2tR90S5orXeg/dcLJXy/pCTs3JvKeaylemfmfts7BJZb//2/L4/e6WLPPOGvvl44r+4iFng5HzvmxKfaVB7WquV39JwNk4Rbd87Fa3BADjQws8AHPPrWPZl84WV7bi5Bi5nmVu55FpyTfWPs723G9Ox/oWNR2djc25PruXU8o7XqbsxoHuev7zc3gPHFfw+T2qWLNYJZtX29uyjyHnoLnHTyu0DbZf3HevwiNmZTUqvEG9s3yD9RoX+mm4vB4NXFKvaGNQyaBXycDEl4R/HIt1P+F4TAmfVylrPeX3KVZbpr5ty/LCO2N4KJ4J7zzWH8xtazfa4Z0xnPM8o9GoHnvsMXdtvrlen78oHaCc0N7xBCYrc8M7Y5F2fvMzSg/VZkLC/Osti6/M7y47HXqf1w9eG7IK5dr0gez9T5Y9PuDI4M2yeOc39I0vmjH5vq6H7PszG9dkuu7euGO5HTilX78bm2rttTwV63Vbzms0Ljdu0UrnwNZz7dA91utcl17PYR6f08W2QHiXUSC8S7unQ712oVwrdzhjD2afU7b1X+Z5HT9gh3enf73yVWxywruMUeGf9XN0wzsAxa95IGzPJJvmbW5W6Yc+oNKPfSSzlLz33ZLPZ95ERy8W/+ZNefuXfvQj8m9cL4/pemtdXx2JarF1H2YyDACYCwR4AIpCzpecGT6rklVWXqqqmirVNdarsrpSZWWl8vnNcMRWfcte0jdMFj6IMSKps1fdbWOHeObo7j7p+xhxfKe6V0D62Pa/hrOe+TdzGLc9Xjyp5N1PqbR7QE3vv0Ke0qB9be7xzU0y62PeMXL19/Xp4IH97lq+C0qWqtLrvM5jidcF1P2eZnV8aNGklr3XrDn98vY1OvTODWp73/nWslWt1mX7DZsUWVjtPgqHGfsu1JNtDVgVCOi6pSvssukqHB12gxzLsWPH1N/f767NEyZQsidJyIY6xx8eX3fZiopePex2df23dKBVsVzbTDp142d0kZsgmRZUeV1BTeh1z5f00fd/V6+lP/OZ1mHWPh/93PjGvBvpns/d7RzLej43FwiNxi3ncZvWgPbjtpZ092ITPpnA7p7nDrvdWtOTe+R0B3aDrXs+93uZ29vLw+54gunX6JScMe/s8QHdFnB2y7RfmBZ02S7GzpJ9He2Q7cZG61E5Mq+9WezWd9nwL/f53WK3Cvy69qafZ50TqC2ps56TaeFoVmob7eDR3mY5vtdpSTme1yufabnn7Pfpr+UHx6N+nwAUtUAiqRW9A3YrPPPh1lSTvI0N8q1ZaS2rM4t3+TLrSqtWZ+03cjE89XV5+/vWrpGnsdG+jTmmqd41hcL2OHsAMBcI8AAUnQ3bNulDv/cb+tMv/5n+y1//oX7/c7+v3/3z39F//sJ/1h/+7R/qT//+T/Rbf/Zb2nnTTl149Q41NNWZBlMutxJm/+vKBGa5PPIH/aprrFVldUXO/rnjpuUdxZZttZU+aIHLdBdXq5jeO/dI6Rlps6zKo1X5DP/kCVUnU1r2nkvlsVtfjTy2xS6OvD0KMcHWfff+VPF4dtKHtHJvUL9ZeaH8p3kbTPk9Spb6lCyb+BIPjmMp8StRGsgsSWsxrfBGCvVElJ6TxWd9kPjTrReq1m19F+rtyXz4MM/58SeeKDj+33wyke6KpitkOujLBlrlqltuXSyvybbc2jkyiJqJGW3v0xeecQKyik3v0efNY5iMzOMe0qHnsmFidjIP97Hf84oO2U843VotHYylQzaL6X5qh6PuUqCV2rjZYxVmu/jmzyI8okVd5rHlvPaZVo85Id2mX3euy2kRmHmedlj3ca0z4VzvYed4dvB4vZwGeEPqOWxdjPf1yuUGnI7cQLHQ7xOAYtYwFFFZLJFX10oNDinZbb0/9uQs3d2nX/L2t5YhE+Q777Hm+BXRuBYMDctLVQzAHCDAA1A8rJpR85KFeucH36nD+w/rH//8y/ryZ/7BXv7BWr76ha/psfsf02BoSA2N9br46ot07U3X6Lf/5BP6vb/8HS1obnAPNFK6SufUtoIlQX3g4+/Rn/717+v3/uSj+i9/8Vu66Iqt8tuhWbq9XeGaWW7lsBD7+rGa9Z2mshc+2Crf4ZNauX65Khpr7WONvL/M+lj3gTxHjxzRM0/9yl3Lt7GkWdtLnBlci1kintRwKPtt/xWLlugqd/zARDymSE7rOzP23fFjx9y1ecQOhrItnrLdMKemYPfRDDfkm25f+6zb8mvyXTBP/bhz3acXDzmvWcXKLbrxU2ucLquDh/WiHbJ9XP89E1i6LcvSLfDGxYxD57RGs5eccfPMWH72+IUWp9VbTktG2336wq25k5JYTNdld3bh2/9gRAs3uxXmv+jzJmg73OcEZyas+6LznI7v/ZLa7b615ufmBm7u8xz/65U12JPzOuS0FgQwv5hWd/XhYZXE8wO8xKG3NPz1b2r4G9+e3HLntxX+n19X4oWX7C9ZjfTxGweH5ZvnX5QBmJ8I8AAUj5QUGY7quUefUcKqLEWGI4rHYplloLdfT9z3hP75c1/R3//JP+iuO3+gXz34K/Vb22vravU7f/oJffiTH9TmHRvtbrbZipwJu5zAq2VZsz726d+wu+KaSQPMfol4XNsu2aw/+PNPqL6hxrqds69z+3TZuTQtnUa2wku5l+n1zKqRUza3yr3KkZ7WwjpKMqW37n1KC4MBbbp4vb01e4vsvWQLGI9HH3nY+l0qPBnFuyo2KugZPZh1sTAN6/o6wkq64+0EfF79p/Wb7bIRHgxlWt+Zse+eeeZZuzxfZbqgWhbvdIKe07GDK7f8yXdku3malln3OImPLa8bp7vM1KQEt//BY8rNrQrLtgr75Lr8VnG5LQnT48AZ2f161e4maZl9K2p0jXv94KFXnKAtE0xlJ3qYTNhVSLoLqz3hh93luPCYeCaos1/vTHCYfd6Z7r2ZGW7dUDW3ZeFK83idn2e6RV3tujX280o/z4m8XgVlxt0b6/cJQLEKWvXF8pgZAzmfXeey3vsDV18xueXyS+RtqFcqkR8MmnJ1JGYHhgAw2wjwAMy53IpRT0ePHvvZo3r24afcLYUlkwntf3Wffmnte/vf/k9993//hx1krDxnhW789XfqE390W2asvLSS8hK9+5Zr1X6iw943GAzo9Vfe0N//v/+ir//zd+yWeWbJMsGIXQW018YaC2+k3OeTlb6tc5E5li0d4kkDrT3qemmfrrh4o8qrykYdy9wqs63wHWGE9pNteuzRRzJBV65GX6U+UXWRAp7R3VaLwXAoqtiw8yEh4PXqL7ZfrOWVzvh48XhMQ6GQXTZeeeUVdXS0u2vz1X36wn+kw5xF2jmeiSYy4+e5M9oax593unl+7bGcQNDtxuku2YkN7nNbdlnsFmKFJz2YmK/r02O0dMuGitnx5TKPO+2eL+mZkV1Mc/bL7eaZDbsWabF9fX43Uof1WrrHGDWhxxRlH9+ICSvG6rprt5ozE1zkXJfTStCZuCSnZWGFGf/ObVHotsyrWLzI3r+33X2eE3m9CsqZEKTQ7xOAomWCtLJYvHCVyHrf92/aIP+28/OWwIj1gst5G+QpKRl1XLNuWt9VRkcPzwEAM40AD0ARyA9W3MnA8tnhS3Y/M7FFVa070H8qqTdfP6gvf/Yruv+HD9ot8pqaG/Wf//J3df6Fm5x9LDW1Vaqpq7HLy1ct1eMPPa2ffOc++fxe7bzhMh0/0qqermyLHWM8GVnhfbKPdWRv1xGro7z4yMt6/sEXVF5eYq9njz/ylqc7EtJ+/tN7dPSIGSxrtE0lLdpWhF1pTas7M/Zd2mUti3V1yzJ3TQr1md9V53fgZHu7HnroIbs8793zJXc2V8viK08bpplwJq/rppmIwp4owSjQjbOA8bWYm6BMV9oRrO15XUdN9+ECYd+oLqY2p0tr/iQb2bDLlg4vDTNJR+6xx7ivybj9D/K7zB5/eGQX2gLM/ed0w82XbSVo5LaedGa9teSMq2f2z52lePyvV2GmNWD+7a3Hk2kZCKBY+ZNJuxXeWFIdnfZbZWLvfkW+/T3z7Zf9zpkaCCnyg58o1d7h7GgdJ/7EU0rset260hmbOHmKCaEqokxkAWD2eW6/4yt8AgQwJXfd+U23NDmHXm6zKlOjY7D0XBBpHjNzmLvfzvfs1OLli/Xvt39HCbcbQ9L9TiJYEtCHfvcDWrrCCWWeffwF3f+jh1RTX63bfu/XVVtfq5ef26Wffu8Xqmuq04c+/j6VlAb1T//1fylhumGYBNEEhp7cMfEc6fs3jyWZuSb9QLOXzjXpdYs5pFswz8tck7/PiNukN1vMfabvyVyRua1d8Gjruuy180mNO47bbFm/YaN++/c+Zf/sRgqnYvqXvid0IGZV9KdJx4nJt3Qy3al7Tw4p6ra+O7euXl++5GrVBJ1QNxqNqK+zPdOq8Pvf/7727dtnl88OpgWX0+Ir24UTAOZGX+tRt4TZ1hQa1vmtXQokk7lVp0y9qeTm98q//XzFX9ml6D33qvwzf2RVFINKnmhV5K4fqfTmm+RZYr2bDA4q8tOfy7diufwXXqBUf7+Gb//fSvWNDvHMsQ/WVWnPFIckuOVjt7olABgfWuABKAr5MZljZMziZBUpeTxeNS9ptlvTVdW4rfAsJlIzopGY/u2r/65H73/cKke1/ZLzddX1l6mve0DHDjutT87fcZ7+4h/+SP/pv3xEr7+8V3d8+ZtKRHPGM7FDHnOH+dFi+nE6/44OgtLGvsbiPtX8fbL3Y+76hndepJtvuUplZUH7PkceL7POZBbjtmf36/Z4eIW60pZ5Arq16gJVenK7UM+dcCiWCe+qrA8an912cSa8MzPM9nc53cCNl19++SwL7wAAyDdWPSnZdtKuWHlqauQpKbWqWwUrYUoNR5Tq7ZMCAWdDIqVUuPD4uQAwVwjwABSN3LpUgUZSFqfSFQj6VVpW4o5Z51a0RjAtmB6//1d69BdPyOvz6sp3XKatl27W80++rOeeeFF/95l/0pc++8/6h7/4qh75+RMK9Q9m739UwGPWs9uaFy/Q0pXNo06goyazyA3XrKJzfCeMy9xFzi4O6yjWtsrKMq1du8y6dFpxZQPOnMksMGE//+ndOnb0iLuWr8lXpd+tucwO8+ZSZCimULfTdbbM79dfX3i5VlQ5Xb+NoVC/HeIZ7WdS11kAACYoaVXGklbFaqy6UdJ6nzS8ZggVq+6Y6h+w10dKRaNKhay6YHos5HjM7m47lrhVtwSA2caZB0ARyVa/7IDLWkbleNYVfr9PPp9fvoBPi5Yv0uKVi1VVV2XvO7Il37OPPK8nHnzKullKV1xziUJWxe2+Hz2oxkWNSiaSdtBn38S6ccuyhbrsbTt09XWX6up3XKIrr7lIK9emxxzLPhIz+cVHPn6T1m1a5W4xE2L4tWL1Il10+Wa97doL9bZ3XKhVq5wR0E0YuXnrOWpqrrfXc3lMyJd5yNmWdidP9qi0NKiS0myYlH0EDhrfTVwkEtF/fOffNThYeGSr1YEF+kDl+fLN0dtjIp7UQFfE/n31Wb84v7/pfG1fsDDzs49ZHzDCIefDh3ku9913n30JAMDZKOHxKuYrPBGVee80XWHtclmZrMqjEkeOWRsLVKDMmHbmyzHTSs+S7Ou36oijx9YztzRLeMREaQAwG3zvvvGGv3LLADApu19+1S1NTm9bdibNUTGVtWpGffMHAqqpr9FNt71Pb7/p7fYkFj6rInbOxnN0/kVbdNFVF+rSay/TBZdvU3hoUF0nu+1JAMztu9q7rf1Wq35BnQZDQ/YstLd89L328Q7tO6JVa5fp45/+sC6+crtVXq4Vq5dmlk3nr9W+PYe084ZLdc76Fdr/xlv2wzLbl61YpNdf2a/3/fq1uvlD12nbjo1ae+4KrVy9xFoWa9WaJXpjz0EtaKrXBz78Dj331GuKRuO6/l0X69c/cp36+wfV1tptPUZTFUw/b+eyurpcW84/R6+++qZ6utPfFue+Ns5YeEbLArcwz5TmtCqbTf19feru7NTm87eq0Hh4i/01Wuir1CvRE9lsdRKGBibWks+Eyd2tQ3aI57Ue1/+zdYfevWx15jGamZd7zbh31gcKE/Dde++9OnDggH3d2ecl3fe9H+sua/nxI2frawCgWERCY092gJnltd4PG4YjKi8wE639Hm7VFQNXXGqvx194yW5V51+/TqlQSInX35B/w7nyVFcr2d2txMG35N+8SZ6qKiX37VfijX0F6wnmuAcaqhWZYoi3cesWtwQA40MLPABFJa8FnVVnMtWmHVdfqI/90cf1O5/9pFafu1r+gN++2nQj7OvpV2ggZJd9Pq8qqir07g++S7f+wW+ovtEZXNh0jz241wnetl60WSUlJSoJBrV0+SK1LF2oD/3WzQoPhvX0Y8/rkZ8/qQd++ph+/qOH9cN/v1d3fu17ig5HtWbtcm3ZvkHnX7Deur8hDVjHrG+oUYO1PPKLZ7R/72E7VNm/77B+9fhLeuSBZ/T0E68q4Pfr/R/YqRee2614LKGP/fZNuvSKrQqHI7riqq32TLPmOZpWfeXlpfZ6eUWJom63jYYF1da6td1aKqztZsmtSo6uVmI8dr36ij0eXqFv4U00uq10qd5XsVm+WXyF+zvDSsSc8O4T68/TO5eusstpZtbZZMIZF++ll17Snj177DIAAGerqN9rt4Yr9IWb/Q5q3jfNe73PekcvKVXy8JGCoZxpfeeprJSnrNS6oUfJ9sKTWpn7GbLqbBGrfgcAs40WeACmbHpb4Bluxcq6uPrdb9O2y7brpadf1L3f+Zke+/mjevHJF7Vm4znW1R5991+/o0fueURPPvCUnn30OR3Y86aWrFyihS1N9u3f3HPIviwtL9X6zetUalXMXn/5DW3atl7xeEzhobDWblijaCxuh4FtrR3qaOvQkYMn1HmyW729A2pc2KALLz/fDgjXnLtKLz67S/X1NVq2crGOHj6h40fatfXCDfaYfPf84BG9seug3jp43FpO6OLLN2vJ0oW6754n9N5bdmrFykU6cbxd3/w/P9WFl5ynXa8esFsK/qffvUnvuvEyXXn1Vl151Vadf/459ktw7rnLrfXzM8tV1nLsWIc6O51v+823MM20wJswE7bu3bNbC5tb1LJokbs1y/xurQo0qNpbqt3Rk1aFvdBHg1Mbbws881gGuoY1HIrL5/Xo9887X7+xZkNeeDc40J/pOmsmrLj77rvt2wEA5h4t8OZO0nqvLIknVD8ctVvjZd85XX6f/Fu3yFNaqsTBQ0oeOabg267Mb4FXWank4aNKDQzKv2m9PZFF7ImnlOrpHXU8887bWl2u9ooypQoFgRNACzwAE0ULPABzzuvLrwDlrtU11uv7//t7eubBp9Xf22/PKmvY357m7JhKJRUJD6vjRIcO73daw504fNy9VnZwZ5jtiXhcHq9HXq9Xb77xlh766WN6/cU98nq8Wn/eGt34gev06b/8LX3yT35TG7aco6aWBnvf117eq0Qirne9b6dOtnXZx6uuqdK1N1yiZctbVFZWoo//7s36k899Qjuvu8gev+6cdcvV1tqpS688XytXLbYDwe9/90EtbK5XPJFQ3Hoscavi+ezTr+uhXzynB63FXD75+Cv28ffvP6oHH3g+b+no6LWuccKbMYZ9wTj94D++p0MH33TXRru0bKU+Xn2hSmdwYovB3ojCAzGVWD/MP9t6kd6/Yq17jSMaGdbQgPPhsK2tTT//+c/tMgAAkDrLSzUU8Ns1o1FfbSWSSnZ2mgqgfC3N9mQVoyStfVpPyhO03uv9zvt9qq+vYHhnus12WPeXtOqRADDbCPAAzLlAcGQK5Va/rIsHf3i/rr35OtU31VsVKaey5LXDN2vN4ywO5zZe66wWi8X0/Tt/qNdeeMPZ5vNq3WanRVvbiXY7NDOtm7xen8JDw/YkAOdt32AvK89ZrvDgkL7+1e/ozf2HdeW1F6uu3umKu+fV/Wo9dlJr1q1QdU2lvc0EgsORqP04fvnAM7r9n/5dX/3yN+1utaVlQTvUC5b4tWXrOjuou/sHv7SOP6xrrrtQ/b0hDYbCdpD3/LO79fCDz+uRh57Xw9by5JO77OO/eeC4tf0Fa1t26e5Kf9OfkqlrYvJCoQH9z3/5mo4cPuxuyee1fue2lSzVx6suVI3XCYGnjfUrG+qJaLA3qtqSEv3F9ot1/dKV8ptfYpeZtKKvq8MOqM2Ms9/5znfGnIADAICzUTjgV2tlmbs2ghk3trPbLnoXtZiKm11j9HisumemDmlt7umRTLdYN5hLjXivNbcxiwkL+0pL7DIAzDYCPABzLlhmUqiRVSFnfaA3pId//KDe9aF322PhBYIBuzWc14xlYgK8EWcxE449/JOHdeC1/e4W6aIrL9DS5YvtcfKef+JFJwg0AZ7PLF5tv/R8ff//3q0ffftnevaxF3X0UKs2bFmrhc0LVFIStIM4w4xbZ8bHM/W9K6+50N7W3dWn9RtX20HeW4eOa+Waxdp24UZdcuVWJRJJe1m+YrFVJ7Qql60dalxYrw9+5Ho1NtXrwfufticsSD91e0ZaV8BtWmduP5IZJzBd5SwrcQuYtHA4rDv+5as6ebLN3TLaeSWL9Jnaa7TQV+VumbqBnmG79V1LRYX+51Xv0NWL0jMeO8zva39Pp/271dfXp+9+97v2YwUAAFkpq1J0pKZC/SUBu0qVW6M0Ez8lO7ucet/iRSp533vs7Z4F9QrecK089fV2d4bg1VcocMHWbNcGMyttDnPMcMCn49Xl9rh7ADAXOPsAmHNllU5AlisdUBnHDx3X3f/2Y227bJt+689/R+u3b7ADMacFXqHTmMcej25BU60++Ns365ob32YHf0et4+x9dZ+S5ttXazFBnrmfN/ce1K9/4n265t1XaPOOjdpx+fm67G0XqmXJQh05eFyJuDNxQGQ4ohNH2/XI/U/Z64ODQ2pv7VJdQ639WD72OzfrXe99m6582wW61DqGCd86Orrt64ylS5t1w7sv05JlTbr7h7/U4bfGDoxKSp3BkSNul+GxVJa7BUzJYChkt8Q7dvSou2W0Ol+5/qj2al1SssJumTdp1qeA/q6whvtjumbJMn3t8rerpbwy74imm3dvx0n7srOz0255F7IeIwAAGC3m9+mFxY2Ke735IZ6p86XfP626oH/Hdqds1SN9a1ZL5WV2uOdZslie5oXOdeGwUu6kUUb6WEdrKtVVUZo9NgDMMiaxADBlU53Ewh/0q7990KoQOaFaVrYcCUe056Xddph26dsvU1lFmd0Sr7yyXM1LFmrJiiVasmqpVq1fpQ3bN+iSt12ky6+9XI3NjXZLppeffVX3/fABDYXC8vl82rjVTGIRt7cf2ndUfX0Dqqyq0IKmenv/Q/sP67knX9bTj76omLVfbX2NnnnsRTuUO3miU50dPXrtpb06dqRNCxbW2q310l5/dZ9+/B8PKRaN6ZIrzlelm7KZ0PD4sXbd97Mn9forB+0g0TDP2ZRMzpd+/osWNWrL1nP03LN71NnZZ2/LeTlsZt/lLda/I7bPF3M5iUUh4aEhPfPUr7Tu3PWqratzt+Yr8fi1uWSRqryl2h/rUEKjW0imFZrEIpVMqfdkWJ5h6RMbztOnNm5TZSA/wDa/f31dpqt3zB7z7hvf+AbdZgGgiDGJRXGI+7wKBQNaMDQsn/1FrSMViSjV1aPE3v1K7DvgXI4sZ9b3KfbM80p19zi3tZakVzph1RH3Ntbarf2mC5NYAJgoz+13fIUvEQBMyV13ftMtTV7nkT6FusOjvtUcNZ+YtdrQvEAf+r0Pq7Kq0g7h0q3xcpkQZDg8rIG+kB748UM6cuCokk5MZl9fVukEgKH+QWeTXSNzrstUzqxCppw5fvbSHUVFJaVBXXLVNntijFdeeEOd9iQTHq1YvUS3/aeb5LPu5z/+/T69ue+YPV5eKifzcY6fDfAM85wDQb8aGmrU1dWvaDT7LbB1VUZ9jVdLm92VeaimZalbKi5VVVV63699QNsu2OFuKexYvFffD72ivbF2d0u+jhP5zSPjsaT6O4Z0TmWd/vC87Tq3tsG9JiuZSKi3u0PxaFQHDhzQvffee9a0vGtcsEBrVq1Sy8KFqqystP8+ARQH855qzkWtJ0/qwMGD6jCTAiCjr3Xs1tuYXWYm2uaBsNZY9afKaCy32jRhpm4W8fl0orpM+xbUKjHNE1fc8rFb3RIAjA8BHoApm44ALxaO6/jeTruylKtQgBcsLdFv/P5H1NDUoPu/f58d4pVXVSpoz0DmUXQ4qoGBAXWd7FJvd591fc5R7cM5x8y/L7Mte1/pYM3slBfimRvZSZsTuqVlHqd1nRPsSTfevFM7Lj5PPd39+vq//kh9PQPuNekDZo9t3975P3ssW/p+3G05V61b4ZX1UsxbxRrgGaaV5k3v/zVdevkVdkA8FtMC78Ghffpl+IB6k/nj02UCPOsHGAnH5A9J71q6Sh9duylvooq0eCymvu4Oe+KKV199Vffff78SOV14zmSXXHih1p3jTDQDoPjt3b9fTz37rLs28xIen6LeMsW9QSW9fiXNBAQWTyolbzKugKLyx4cVSJ162ImZQoBXXLzW+27D0LBWWPWuxsFhe5upPuXWrsZi6lzpJVQS0JHaSp2oKlfMN/1fKhHgAZgoutACmLKpdqE1fAGvUomkhodM5TtbxXJK+VUuE2q8tf8tvfnGQb25+4DaT3So9cgJHTt03FqOqfVom7rbuxUeDNtdFkeHgIWqcOlt7mVmF6uQuSpdzmxwLw2nbFoCmkqfaT303g9co6AZe+9wq55/+jWnNmjL3i79UNJdZzN3kdlnxKV70VjnUV1N+rr5qdi60OYy3Z33vrFH7e1t2nTeljFbg5mx8NYEFmhH6VL1JMJqTWS7UaW70A50D2tDSb3+bscVuqJlqXwFfv9MeNfb2W5fmlZ3v/rVr+wWL2eDa3fu1Mrly901APPBgoYGNTY26uChQ+6WmRH3+DUYqNWQv0YJX6kd3qXssW/NedRazHuu12cHe1F/uaLeUjvU86fi9u1nC11oi4v5cjQc9KuntESDJQGVxRMKWnXMdDCXZn6LctfT5ajPqyN1lTpYX63OylJ7XL2ZQBdaABNFgAdgyqYjwDPKqksU7ou4k0bkhhy5ZUc4PKy+rl47aHEq8WbrWLdx90lz983dw2G2OFvdXex/smVzmSm41zjHdra6/1r7NC2s12VXOQMlP/noCzpxtMNcY++Ru6/NLZprTaVz5PXpo6e3lZVJKxbPTGVyNhVzgGeY36221lbt37dXixYvVk1trXvNaKWegLaVLrHDvKFUVF2JIfV1erRG1frdNZv1iXWb7bHusj/VrOGhQbvlnZkF9+6779bevXvd3+szn2l5R3gHzE/VVVXW+1GZjh0/7m6ZXkO+Kg0F6pT0Buz31bSy0hK1NDaovqbKHrrCDE2RlvL4FPOVKe4JKpCKWOfc2TmXEuAVJ9Nqrr8kqLaqMvWVlVi/RykFEyn57S93s4GdkbR+l/pKgzpYV6U9TXVqryxT2PTsKPCl23QhwAMwUXShBTBl09GFNs10pT1xoEtJq4KVa2Qruky31jS7gpW7ccT+djXe3WZfOOX8e0nfxr0uvZ+1U+b+cgI8w7n9iLK1z9oNK/Thj73HDmL++3/7N7sbrSO9b/o4FquYvq25TN9Fdp/sbfw+afWy+d11Nq2Yu9COFAgE9eHbflPnbTnf7l57OkPJqELRuJpKx54m2PxuhPp7Ndjfp0NvvaUf/ehHikYi7rVnPjPm3buuu85dAzBf/ez++6d1TDzzXhcK1CnuK3W3mDFfq3TDVRfr0m2btKS50XqfzL6H9vaH9MLre3XfY89o78FsV1ZvKqGKaNestMajCy0mgy60ACaKFngApmy6WuAZpittaUVQQ/3DeZM9pEOsNHstf1OBjQV3cORU/vOZ7c519r/uP5ly3u3MdrNux252ydlJCpYEdcHF5yk0MKSH7n/a3paVPkbOsTJFq+D875QzTHjnsVvelZe5m+a5Ym+BlyuZTOjVV17WsSNHtHLVKpWVjx3MGQGPTxX+0bPQppmusv3dnerqaNfPfvYzPf7YY/ZYjmeTLZs22d3wAMxv5suI6WqFZ95NQ4H6THjntd5zf+2Gq/Vnv/MRbV6/RgO+Mj3dk9RT3Qm92JvUwcGkPAHr/Xb1Il1/+Q7rPbJZu/YdVCQak+lqG7f2DybD1juo8zXZTKEFHiaDFngAJooAD8CUTWeAZ/iDPpVXlSoajioRy03xcgMty8hVO1zLD73STGlkqzfzT+7ejvQW99JcpEO7zFVWwXRxzNxf+grDKQ8ODKmxuc4O8Ha9vC8v4svun71d9i6sgvO/yymVlXq0Yon1upwh4Z0xnwI8w3xI7Whv1/PPPauq6io1NCyQPzB2SFeIOUY0ElbXyVbt3v26fvCDH+jEiRP29rPNhdu2qaTkDGhKCpzlgtZ5cM++fe7a1Az7qxT1V9hlc9zPfvIjdsu7t8LSvx6M64etCb0+kNJbQykdCae0fzClZ3uSeqTDmfDnqjULddWOLXpx9371hwbt7o9xb4mC8aHM++xMIMDDZBDgAZgoAjwAUzbdAZ5hWuJVNZTbk1BEBmNujJVf+x5dGbc22NvSV4zcwYnRMtx9R+7lXOFuzVzp7pe+KufOnWtyIzrn3zf3H9XhQycUDptxeNJMKX8/W6boXmNdpPdprPdq+WKfTjEZ6rw03wK8NDNL7Guvvqrdr+/SqtVrVFVV7V5zaqlUUv3dXTpx7Ki++93v6vnnn1fUOtbZasf27dbvec7fAIB5KRAI6JXXXnPXJi8uvz3mnXkDNOeGz/7uh3XBeev185Nx/c+3EuqOuTsWELPegncPpLRnIKnLWsp11faNevKFXRqy3n/NuHimBZ5/BmeoJcDDZBDgAZio+T8KOoAzWv2iKi1et0BVDWW5mZmTblkV9vyP/yNbMY1cnwjntp70IXLvaNRhC9/PcDiq7q4+dy13L/fYubfLFLPtBOtqvFq70q+WJk7Vxca0mDtx/Li+/N/+Vt/+t2/o6JHDY7aiM9vDoQG98dqr+vGPfqh/veMOtba2npWt7nKNNbMvgPlluv6Ww4Eq643ReQd877WXa8fm9brvZFzfP5Gw3yIXl/n07sWlWhTt1tCLj2nwuUc0vP9VJSPD9m2MA4Mp/dOBmKqqqvRHH/+gu9U6tq8i590VAID5iRZ4AKZsJlrg5TKt8cprSlXTWKFgmV8+v/mwYFXErRr96BDE2j4q6XMUKuXvm8tsz93P/Se9KXM757JgK7wRjyOzfeSl9b+ZF6G0xKOqSp8W1Hu1tMWvmmrvGdfqLtd8bYGXywnyjumZp36l0EBIS5ctU0mwJPPjNePatR0/ogfuv0/33HOP0102mTe441nr/M2b3RKA+e7lXbvc0uQk5FU4WGeXqyvL9RefvFWHh7264y1nbNCagEdfvqBWOxaU6G1LqnTv976nvoNvKHpoj4Zff1Yef0D+psXW265HvTHr3JtM6W0rG3SsrUNHTpy0zslee1ILf+oUzfimgBZ4mAxa4AGYKGahBTBl0zkLLc4e82kW2vGqrq7ReZs365p3XK9IeFC/fPhh7dmzW/39fLgb6aMf/rBbAjDffePb33ZLkzPsLVc4WGuXf+36q3Tb+67Xl/ZFtTfkfExZ6x/W31y2xC4bf/rf/oeee3WPu+Yo23qlKi7caZf9HunvNwZ18thR/cmXbne2JYZVFeu2y9ONWWgxGcxCC2Ci6L8CAMA06e/v05NPPK4vfu4v9KW/+1s988zThHcAcBpxX3ZCm4vP36j2SDIT3plWy89/5+t6ebczUcbr+w/J7/dp7cpl9npa+KXHFGt3ZsONWzc1M9WuXblU9TVV9raEt8RuJw8AwHxFgAcAAABgziQ8zngRPq9Xq5Yt0hsD2agtduKQot3t+sP/+s96/yf/XJ/7x/+lv/nj39E//Pnvu3tkDe9+zi1Je0NJu0vtmhVOyz0zI62Z0AIAgPmKAA8AAADAnEl5nI8kNdUV8vt86ohkA7y426rO6OkbUE//gH70i0f13Z8+6G7Nip/M7tsRcS4barMzhSfd+wEAYD7iXQwAAADAnPO6AVvuVD+phDORRZqZPOir//f7+s7dD7hbsnL3TbodZr05E0qd5ZN/AwDmOQI8AAAAAHPGk3Iiu76BQSWTSdUG7FWbr6bBLZ2er6beLUk1ZiYLS29/yL400vcDAMB8RIAHAAAAYM74Ugn7MhaP61hbh9ZUZD+iBJetlfw5id4plKw5zy1JqyqcAO/gsVb70vDJuR8AAOYjAjwAAAAAc8aXdAesszy36w2tKPdooTsxrbe0TOUXvM1ZOQV/8zKVnLPZXZMuqvfZYWBre5e97ktElO1MCwDA/EOABwAAAGDOBJMRe2w74/7HnlUymdJNLc7MtEbZ5ktUtu0qKWc8u1z+lhWqvu5D8nidjzabqz1aXu7VvY8+ba8b5j4AAJjPCPAAAAAAzBlfKq5AKmqX2zq77eDtojqvdtQ6H1U8Ho8qdrxNtTf/rko37pC/cbF89QsVXLlelW+/RTU3/qbdUs+o8ku3LfPr+MlO3f/YM/Y2M3tFIDHklAEAmKcI8AAAAADMqbL4QKYV3r/96D69daxNn1jht1vTpfkbFqry8nep9v2/pbpbPqnqd3xQpas32gGfUe2X/nB1QBVK6P/7P99VLO6MeRdMDMqXN7ctAADzDwEeAAAAgDnlT0ZVkgjb5Ug0pr/66p1qa2vXf14d0C2LfCo9zaeW7bVeff7coFoCcf3dv35LBw4ft7d7UgmVxwfsMgAA8xkBHgAAAIA5Vx7vkzcZs8s9fQP6zN//q558/lVdv9CnL28K6qPLfLq4zqvV5R57oost1R69t8Wnv9kQ0O+vCmigq92+zYuv77OPYVr0DQ5GFE769Ft1Pn11UUD1PvsqAADmHd+7b7zhr9wyAEzK7pdfdUvA+JVW1bglnI3O35ydLRLA/Pbyrl1uaWpMR9hgclgxb4lSHp9i8bh+9eJr2rX3TdVVlunCZQt0YUNAVy7w6Sprubjep7WVHrWfaNW/3/Og/uXbP1Z3r9PazoR34aGwEom4/nODdFOtV9U+j3aUefX0UFJhp7futIiE+t0SMH4bt25xSwAwPp7b7/jKNL59ATgb3XXnN90SMH41LUvdEs5GH/3wh90SgPnuG9/+tluaHkl5NBSst4O8XCXBgFYubVFjXa28Xq/6Q4M6dKxVvf0hdw+H6TYbCg0rmUzoz5ri+rXa/I87rbGk/vJkTN3OEHlT1td61C0B43fLx251SwAwPnShBQAAAFA0vEqpMtql8liPvKlsymbGxnvjzSN6/PlX9eizL+ul3fvzw7tUUiXxAdVE2lXjHSoY3hktAa/+eiHdaQEA8wsBHoAp89idXgBg/JJJZoQEzgQz+bdsJrWoHj6pimi3AokheZKJzEy1Gamk/IlhlcV6VRM5aU9Y4VFKf9yYKhjepZkQ74sLA6ri0xDmAHVnAJPBWxaAKQuUBN0SAIxPKJTf5Q3A/DTTf8sejzMuXmWsV7XRk6qNtNmhXrVpZWeV66ylKtat0sSQ3XLP8Fu3uaT89B9zFgW8+mANzfAw+6g7A5gMAjwAU1ZRWemWAGB8Wk+edEsA5rPZ/ls2IZ1PCflScXlThVv/xVPSX52MqT8xdgu8tO1lfBzC7KPuDGAyeMcCMGW1DXVuCQDG58DBg24JwHxWrH/Lh2MpfX4cIV7AS1dGzD7qzgAmgwAPwJQ1NTe7JQAYn47OTu3dv99dAzAfmb9h87dcrMYT4r0+zHicmH3UnQFMBgEegClrWbaEwXgBTNhTzz6r462t7hqA+cT87Zq/4WKXDvH6CoR4A9a27/TG3TVgdpg6s6k7A8BEEeABmLJAIKAVa1e7awAwfg88/DAt8YB5xvzNmr/d+cKEeH/WGtVTgwmFkykNW8szQwn9eVtMbeR3mGWmzmzqzgAwUZ7b7/jK6Ud3BYDT6Ovp0S9+/FN3DTi9mpalbgmQGhcs0JpVq9SycKEqKyvl9fIdI1AsksmkPdusmbDCjHlXzN1m50Jf61G3BJzeO977btXUMQYegIkjwAMwbV557gXte223uwacGgEeAOBMQICH8Vq7aYO27NjurgHAxPD1NoBpYyokdQ0N7hoAAAAAw9SRCe8ATAUBHoBpteOKSxQsKXHXAAAAgLObqRubOjIATAUBHoBpZcb0uOyaqwnxAAAAcNYzdWJTN2bcOwBTRYAHYNotWNikq2+4lu60AAAAOGuZurCpE5u6MQBMFQEegBlhvmV8+3veaQ/WCwAAAJxNTB3Y1IVpeQdguhDgAZhRZrBeM13+yrVr5LH+AwAAAM5Epq5r6rym7suEFQCmm+f2O76ScssAMKNisZhajxxTe1ubert6NBgKKRaJKmX9h7NPTctStwQAwPzV13rULeFsYsK6QElQFZWVqm2oU1Nzs1qWLVEgEHD3AIDpRYAHAJgTv7jvl24JAID56x3XX+2WAACYOXShBQAAAAAAAIoYAR4AAAAAAABQxAjwAAAAAAAAgCJGgAcAAAAAAAAUMQI8AAAAAAAAoIgR4AEAAAAAAABFjAAPAAAAAAAAKGIEeAAAAAAAAEARI8ADAAAAAAAAihgBHgAAAAAAAFDECPAAAAAAAACAIkaABwAAAAAAABQxAjwAAAAAAACgiBHgAQAAAAAAAEWMAA8AAAAAAAAoYgR4AAAAAAAAQBEjwAMAAAAAAACKGAEeAAAAAAAAUMQI8AAAAAAAAIAiRoAHAAAAAAAAFDECPAAAAAAAAKCIEeABAAAAAAAARYwADwAAAAAAAChintvv+ErKLQMAMGt+cd8v3dL0CPo8qvD7VGpd+r0edysmK55MaTiR0mA8oah1CWDiOC8Vj5k8p73j+qvdEgAAM4cWeACAea+uxK+FZQFVBrx8SJ4m5nU0r6d5Xc3rC2BiOC8VF85pAID5jgAPADCvNZb57Q9lmDnm9TWvM4Dx4bxU3DinAQDmI7rQAgDmxHR0oTWtKHI/JDcvWabFK1apuq5BXi8fnicrmUyqv6dLx986qLZjR9ytUiiWVE8k7q4BKITzUvGZ6XMaXWgBALOBWgQAYF4yY0vlfkg+Z+MWbdx+kWobGvmQPEXm9TOvo3k9zeuaZl5v87oDKIzzUnHinAYAOBNQkwAAzEtmYPg008Jl2Zq17hqmk3ldzeublvu6A8jHean4cU4DAMxXdKEFAMyJqXahbSkPZAaG33751XbrilMaOqCnH3hJg+5q06W36LwRNxk8+LCe3tVllRq0+tqdWlHubDcy19Vt1cVXrlGF2rXrJ49a/1pWXqVrNjfZ+zmy12XuJ3P/o49d6Lr2V+/SrkPWdaOOnavA/ZxOx0t66FcH3JUCj6WA3q4OvfCE8/MyMzm2DsXsMoB8EzsvDeqtx+7Vmz3uqm2Nzrtpqwr+xef97boKnB8mfR4rKP14TrefxX0s2fsvrOK8d+riVRXu2ojjjnw+I87b+bd1ZM6VRuZ5ndp0n9PoQgsAmA20wAMAzEu5szqasaVOZ7DtSOZDoNHeeqqPol1688ApP6rmO/Sa3hpyy0WuvTU3AOhSW1vuq1JY7uvLbJrA2MZ9XjLB1E9GhnfGAe36yV3a1eGuukxINSq8Mw49qod+8vAY558JnsdmyeCue/X0wTHOO4eO54WEI8/bo7XrZDq8M3qOqGMc52LOaQCA+YgWeABmTSwWU+uRY2pva1NvV48GQyHFIlGlrP9w9qlpWeqWJmdpZdAtSdfcdItbGku2pUvTyjVqP2Q+CI9u6TKy5Uhuq7bTtlzJa/lRoGVcUbTAS+/fYL0O1tqh3Odzag/95C63JB0NRd0SgFzjOy/lnDvy/r5zzynZ81PueSn/7zxn/5y/48mex059DhnvfoXuI+u059G88+PoFoqjWuClWyXWrbFeqwNqt/Yt1EqvkOk8p/W1HnVLOJt4rP8CJUFVVFaqtqFOTc3Nalm2RIFAwN0DAKYXLfAAzLi+nh49/+RT+sm3vqdnHntCh/YdUE9Xl6KRCOEdZsdQq9rsD4FrtHDzYje0O6CTI1q5jNS+58BpWn/k6HlJB09zvDnX4bZuqVumVWuWOR+sx9liBcD0GDz4mvt3uFUX54XzTTrv0jXWZe6XC+066IZxJpjKD86s/W+6ytnvFOefCZ3HZlhFVZ1T6BkY9Zgq7FZxua2CBzVgn7cbrOvsDaOkWxRXLFmrVUucVnWDx1qL5vnizGbqsKYua+q0pm5r6rimrmvqvKbuCwDTjQAPwIx65bkX9Isf/9Su2BDWYa5kumGtNOFdkxautDeP3Y3W+iDphFsvaddYXb1yOB88reP96qWcliTFJ/tht0UV5S1qtj8Uj68bLYDpMRhyAznzd2iXcjRu1TW5LYOH+t0wqkHNzYValZ3ifDbB89hsyHThr6sa9dwrljhfKgyG3Mea/sJh5TI12xtGSnefdV6bima+lMDcM3VdU+c1dV9TBwaA6USAB2BGmG8eH7z7Xu17bbe7BZgrg+o45n5grnQ+Mja1mFYulhHjLWUt06rz3NYcu/adNpSrWL/J/cB9QAeL5IPyaNmxoiqqzOtQoUZarACzbFBDvW5xPAbTLdXqVD7GZDMVlc7f8WgTO4+1/+ouu1tp7jJyLD6j0H4Fx+HreUlPj9gvPdlE0/oC3farqp1t7nl50Gl+Zz2/avtylHTAl35t+FICRcbUgU1dmNZ4AKYLAR6Aadd5sl2//PkDdpcCYM5lus/mtGBpPH032opVF2m1/WHwgHa9erqPvumub+aD8jNTmNBi7A/pU5b5sLtGC91ueLRYAc5sEzuPzQLTbfimscbQS7cmNOfl9BcvY7U8zGnNZ7esNvhSAsXH1IVNndjUjQFgqgjwAEwr8y3jkw/90h4TBCgG2VkMu/TmA+mWINlB08eejbZCK9anW+q9poMhpzimxrXuB2Uz8+Nxe1Mxyc4+68xyab8O9sQZBi1WgNlRofJatzgeFemupj0aGiNkT3fJLWz85zEzOYWZeCN3KRS0FdrvmptGTMxjuGHdNelx+owCY9/lSrcmHGzd53zxUrdMjQW/1MiZfdaeidc5p2Um7+BLCRQRUyc2dWNa4gGYKgI8ANPqucefIrxDEcl2nx2T9aF2zBZzjVt1nt0ipMuZsfWUrA/KF2x1PmwfOpAJCDPK3e5hhWS6yc2UnA+7YxhPFzsAU5cJqQq1EjMzUud2R82cN8YK2bN/200tmZgs34TOYzOhSedd654bzRcIj409qUa6VfCgdQ6196kd47yZaVE8FvNFCmc0FA9TNzZ1ZACYCgI8ANPGDNZLt1kUlZzus6uvHdliJN0q5NStz5rWpD94jkP5GuEQReEAAEpKSURBVK1yB5QfrULOBIzWB8vncz/ADuqtPWMP7D4tcrrPnpf3GlhLzgfr083KC2DqKla5Y2aaMeLyurW2a5fdKta0Fk5PiNOUM47dvXo6b4xNa/9Ma+Js1/hCJnQemwnWufE893mcasbckV90jBVKZrvPXpV/PrOWi9P3M+YYp8DcMHVkJrYAMBUEeACmhekWwIQVKDaZ7rMFu2FlZ2885XhJuR88x6Fpc053sTw5XdnyBne/V2+6vWoKDuye0z0sbxkxnlXhgeWdQehHjxWVIzPwu9mPj7vAzMuOmZn/953t2t90aXYm2opVO90WdE6IN3p/8wVFzsy1hUzwPHYqY51rHjpFyzojOx6fOcZYM3Znz8vmednz7Yxy6laHmbE9+VICRcjUlelKC2CyCPAATIv9u99wS0CxyOk+O0Y3rMxstKcZLynTYmZcsi1mRmncmtPiLZfTQrDwwO5TlTP7rDsLb77swO+0WAFmiTkX3PTOTKCV5bSSHXkuaNp8i65Jh3657BZoBcafK2Bi57GZkDPMgOlKO8akGplZdcca/y7ToniMgI8vJVDkqDMDmCzP7Xd8JeWWAWBSYrGYfvKt7yll/QeMV03LUrc0OUsrg25JetuNN8vr5TupmZJMJvXIPT9w16SjoahbApCL89L8MN3ntL7Wo24JOD2P9d9NH/mgAoGAuwUAxodaBYApaz1yjPAOsy6ezP7O9fcw9uJMyn19c193APk4L80PnNMwl0yd2dSdAWCiCPAATFl7W5tbAmbPcCL7oev4WwfdEmZC7uub+7oDyMd5aX7gnIa5Rt0ZwGQQ4AGYst4uBuPF7BuMJ9yS1HbsiI4c2OeuYTqZ19W8vmm5rzuAfJyXih/nNBQD6s4AJoMAD8CUDYZCbgmYPdFESqFY0l2T9r/+il5/4RmrUtxhj2+EyTOvn3kdzetpXtc083qb1x1AYZyXihPnNBQb6s4AJoNJLABM2ffv/BZj4GHCpjqJRVpjmV+lPr6PmmnDiaQ6wnF3DcCpcF4qftN5TmMSC0yUmcji1z72EXcNAMaHmgWAKSO8w1wyH8ByW7xg+pnXl/AOGD/OS8WNcxrmGnVnAJNBgAcAmPd6InGdDMfsD2XMKDg9zOtoXk/zuprXF8DEcF4qLpzTAADzHV1oAUzZXXd+0y0B41fTvMR6F/K4awAAzEOplPrajrkrwPjd8rFb3RIAjA8t8AAAcyJlfegBAGA+470MADBbCPAAAHMimaALEwBgfuO9DAAwWwjwAABzIhGLuiUAAOYn3ssAALOFAA8AMCfi0YhbAgBgfuK9DAAwWwjwAABzIjYctgf/BgBgXrLew+z3MgAAZgEBHgBgblgffKLhQXcFAID5xX4P44soAMAsIcADAMyZyGDILQEAML/wHgYAmE0EeACAOZOMxxQJDbhrAADMD+a9y7yHAQAwWwjwAABzanigl1n8AADzhnnPMu9dAADMJgI8AMCcG+rtViqZdNcAAChO5r3KvGcBADDbCPAAAHPOdEMa7OkkxAMAFC3zHmXeq+g6CwCYCwR4AICikIhGFOpqpzstAKDomPcm+z3Keq8CAGAueG6/4yvMfQ5gSu6685tuaf6Ke0o05GtQyN+kqKdcCW9QCQWU9Pjs672phLyKyZ+MKpgaUmW8XeWJLvlTVORnQmlVrUoqq9w1AADmjpmwgjHvMN1u+ditbgkAxocAD8CUzdcAL6Gghvz1ag+uU29gqVLyuNeMj8e6RW3sqJoie1We6JZPtBybTl5/QCUVlQqWVVgv9sR+NgAATEkqpWh4UJHBEF1mMSMI8ABMFF1oAZx1kvLpROkWvVF5vfZVvF09gWUTDu8Mcxtz232Vb9cbVdfreOn59rExPcwHpnBfj/pOHtdQb5eiQyG7C5M9Tp71wQoAgGlhvaeY9xbzHmPea8x7jnnvMe9BhHcAgGJBCzwAUzZfWuCl5FNvYLGOlF2kmKfU3Tq9/KlhLQ8/q9rYMXmUcLcCAAAAWbTAAzBRtMADcFYwgd3eymt1qPyKGQvvjLh17EPll9v3FfOUuVsBAAAAAJg8AjwAZzTTzbXf16x9Fe9QyNeo5Cyc9sx9mPvaV3mt+v0tk+qeCwAAAABAGgEegDNayNekA5U7FfbVuFtmT9hbowMVb7Mew0J3CwAAAAAAE0eAB+CM1RNYbgdoczmxhLnvA5VXqzuwwt0CAAAAAMDEEOABOCOFfbU6XHaREp6Au2XuJBTQkbILNeStdbcAAAAAADB+BHgAzjgRb5X2V7xdcU+Ju2Xq/D5pca1Hbz/Xr1svCujjlwT0kQsDuvE8vy5e6dOyeo8qS8Ye6848lgOVb9ewt9rdAgAAgNniSUmBRFJlsYQqonFVRmPWZUzl0YRK4kl5resBoJh5br/jK5yqAEzJXXd+0y0Vh4PlV0xbl9XSgEcbW7y6foNfteWnnozipaMJfef5mFKnOKvWxw5r1dBj7hoAAABmkj+ZVM1wTNWRqB3clcYT8ieS8shU2DxKeD2K+HwaCvo1EAyotyyoYfPN7Qy75WO3uiUAGB9a4AE4o5hx73oCy9y1qSkPSr93VUAf3B44bXg3Xj2BpfZjBAAAwMwxLe6aQsPadLJHG61lXWeflvWGrG1hNYQjqg9HrSWixsFhLekf1JquPm3o6NGWtm4tt/YzrfUAoJgQ4AE4Y8S85Xqr7GKlpuHUFvR79NGLg2qp9sozPdmdzTy2t8ouUdR6rAAAAJh+wXhSG9t7tLmtWy39Q3Z3WV/SqSGaxVTtRi6+lOzutQ2Dw1rX0aetrV2qDUftIBAAigEBHoAzRo9/mRKeoLs2NZev9mrlgpk5RZqJNXr8tMIDAACYbpWRmLad6LRb25UkEjKdYcdTo3M61Dr7mm63CwaHta21Uw3hYUI8AEWBAA/AGSFlVbnag2vdtampKXUmq5hJHSVr7ccMAACA6VEViWlje6/dNdZI17Ts/M3rlWdhkzzNC0cvZntFubOf2dVazG1LYwltO96lxsEwIR6AOUeAB+CM0BtYpmFfjbs2NWuavAr4Th2uxZPWfQ6l1D6QXfqGrZrdOCt3ZjZa85gBAAAwdabbrBnnrmFoONOSLpenplqlH/2wyj5x26il9OO3yb/t/LyvVk3ZLKY1nhkXr4kQD8AcYxZaAFM217PQmpZseyuvU8jX6G6Zmnef59dV54zdAi8cS+nbz8Z0uDup4Zi7cRIqEx1aF7rfevSchgHMI5e/R7eck/7CpE+H7rxbz7trc2uDrvrwdjW5IynEWl/Qj+/b7awAOKN5UyltONmrZX0hJ4Sz1u1BjHMGMvYubFLZ7/+2PP7RdTxTE4v98nFFf/GQs8Ewx3CZUl9pULua69VfEnA2ThGz0AKYKAI8AFM21wFe1FuhPZXvVMxT6m6Zmt/YEdDWpWbElNFiiZT++ZGo2vqnfuoMpIa1PvRzBZMhdwuAs9na6z+oLS2nGsezSMIyAjwARWZR/5A9YYUJ8kxk5124UMGdV0llJc4OFk8wKO+ypfJ4R3dCS1m3S3X3KNnV5W6xJFOKP/eCEnv2KpVMKmkd+K26Ku1rqFHCmw0GJ4sAD8BE0YUWwLwX9VRM2+QVxqm6zx7vTU1LeGeYxxz1MBstAADAZAUSSa3oHbDDu/TYdd7GBvnWrLSW1ZnFu3yZ3SLPDutGLIanvi5vf9/aNfI0Ntq3Mcc03WebQmF7nD0AmAsEeADmPTP2XXKWTmeD0elrtGwec9hX664BAABgohqGIiqLJZyus67U4JCS3T1K9eQs3d2nX/L2t5ahIXM0+5jm+BXRuBYMDcs7fdVBABg3utACmLK57kJ7uOwidUzTDLTGb14c1KZFhQPB11sT+sZT0/fNa2N0v5aHn3bXAJzN8rrQRtv0yrcf0D5nrbjQhRZAkTCt7s7t6NWKnlDeV7nmA66nrEyeygpnw0RZB0hFI9LgkFKJbDiYtJaeshI9v3iBYr6pfXlMF1oAE0WAB2DK5jrA21fxdvX7W9y1qZvNAK863qa1gw+4awDOZuMO8Jaep4s2rlRTQ6WCfp/Swzklh/vUfuAFPf7ccWdDRqWWbduudWuaVV0WzNv/2Kt365nXnXWpXmuuvETrl9arND0qQSKq/tYD2vPMCzrS724bFeA9ocGdl2vd0hoFzLHNbY7t1jMP71Kvs1NG7fpLtGX9Mi2oyj6OgveRYT2my7Zr9bJGVZdmxya1n+ubu/Tis4c06G4bO8BbrEtv2anFlc52Kay2J76vx/e7qwDmrdJ4QptO9thdW0fW3FIej0p+7b3u2gTF4oq/8qoShw7nt+yzlrh18npyWZNCU5zMggAPwESNPM8BwLwT85S5pflnPj92AHNk+Uota6lRaTAb3hne0ho1b7pK113W7G4xFmvrTe/SRVuWqbYiJzSzmP1r69wVa78L3n+9tq7OCe8MX1DVSzZox/VXaax2zhXXXatNy93wzjC3WX6+rr5+g7JtXyq15m3v0zUXr1FTTf7jSN/HRTe+S1uXutuM6nW69GbrMa1tzgvvDPu5brxc1950oU739U3LlRfmhHcJ9e9/ivAOOEOUxBMqi8XzQraMVEr+TRvk33Z+3hIYsV5wOW+DPCUlo45r1n3JpCqjcWcDAMwiAjwA817S63dL8898fuwAZlCwWVs+dqvdQiOzvP8S57pUVMOdR7Tn6Yf1wJ3f1F13/kzPv9lnd+2yPlqqeukGrbTL0sq3X6I19bmJXGFrr7tcK2uckCzZf0Qv3WMd956ndKQvYW/zVizTmqtyg8G0GjUtKnz8QMs6bVrkrmy8RJtWVJ664hms15oLL1eTu7r20vO1uLrwjOBpgfp12lrwcbmWXqLN1v2mJfsO6dUnRrZQBDBf+ZNJBRPO2a+QVEen3WwusXe/It/+nhSP263oUgMhRX7wE6XaO5wdrePEn3hKiV2v28Ffyjpmsn9Uk+CMiigTWQCYfQR4AM5af3RNUP/tvaWjlo0tY58aNzT7Ct7GLFsWn/qDZiGMYQBgwp68T/fc86he23NcvapXy+oa+QbDCqc/w5bVqKnaFM7TyuacVr6JkNpefcoJ/X7wgF55s08x+yS0Xcub0yFcWO2vPqoD1mdedR7QM291u8Gg9YF1wZqcFnVZmcDPHPNwKLO/aXXXsMYJz7asaVa2s1lUXXvcx3HPUzrQHnW3W6qbtW61KViPaWFOMDjcoQNP/MwesuGBJ/aqa9jdbqlo2aBlbjlfUBdsX6lMBhjr0N4Hn1Kruwpg/vNZJxxfcnRtKr0l0XrS+jelVDisxMFDdlBnpAYGlDx23Doduecfc/3x4+6kFZZkwh7/rhDTCu9UoSEAzBQCPADznjc5uW4MXq9HZvzhkYunYD8Mh7mu0G3M0jU08cqcb5KPHcBZrHqdtl7/Hr33NtMy7126/MrLtXVzsyqs85AjqFLTFXV9s6ozqVlCXa89oMdfOOCMS9ffpn2P3a2Hn7TKG+tzblum5stzWv1tacxWFkvLtNgtZvXp8ANu4GeO+fBedebkccFyE61tUG22EZxirbv08NPu4+g8oJceP6JsO5cylZs+sXmPKar2V+/TS/u77bXe/c/qmaN9dtlWVplptZendo2W16XTO+sYLz+h18ZuUANgHivU1dVItp20K2+emhp5Skrt1nW2ETdIDUeU6rXOKwH3pJkwoV/ONwUAUAQyVSMAmK8CqbBbmjumPtgVGv0N8OkUw2MHUITMJBZ299ic5YdPWVds0FXvulBrWmoUMNlUMqFkLKrhvpBiI79DyKvlhdT/YsgtT6NoWPm9zI5o+DSfecOhETPD9vdpOCf0Gy2swcxEG47BnrBO14EtUFaWfQkSIfUemYHnD2BOJa0/8qTHtLErLNnebl9662qkshKl+gfs9ZFS0ahSoUF5StyWv3HrDBMf+0vWuPnmFgBmGWceAPNeSbJwZWw29YVTCk9iOJRieOwA5pELV6qp1C2HjuiZH/27fvCt7+meHx7JmY21kEpVb3GLp2RmaB0RHKaXQrPi+oPKn4pnjSpye+3GR39JESxb45Zc1WZCDrdsjPokbt3HOW7RVVFXltMlt7BYZ0f2NfHVa83bthfsAgxg/kp4vIr5Cg9hYhrZpdxvGDxl1onJ2i9x5JjzretIZkw7073WtNKzJPv6lXK72+YytzRL2D/xYVMAYKoI8ADMe+UJp1vVXDrWO7mxUMoSPW4JAE5vTV1OX1SPT0ETfFWv1JZ3rVHtyFrd0ZCy8ZlPDZveo4s2L1atWV2wWOuvfI92XmaV8/YrU9PWa+2ZX+2wq7pZSzZfrmvfO8YstN56rXzXdi0zY+4tWKOt71qnhpxuu4Pdh6zLI+rPafxW2nK+rtjmHt+6zQVvWyZ7yD5bSAPmJkf7NJg5rZrHtFObmp3nXnvOJbp0eY1dtoX6rHsoIHZEL72VvWNv/TpdnjdDL4D5LuLzathujjyaHbalu8G6IV/ircP25UipRFwys86WOQFeqtNMflEg6LOYrf0lp/sKAQCmHwEegHmvLNFnncwmF6BNl6M9hSt5p2IeMwEegIloDef0Na1YrK033qpbbr5ca5tym7C5+nfpeLszi6wtWKNl23fqWjO23Y07tWl1jQKmiYq1X1t3dj9vRbPWXHat3mn2u/laXbJ9pWorChzfFWjaoItuNse8RGtyH0e0Q8deNIWQ9h3tyJ6lfWVq3uIe37rNypxZcpPdR/TKCavQv1utnbmPabHW3/A+e1y+ay9fo9rMTRLqPfyCnE5yo7U+Yj23TDrpU/XqC3WBGR8QwBkh6vfareEK1cLsYe4S1nnEBHE+nz0GXvLwEXkKDXacTMpTWekEeNb1yXYzsOdo5n6GggFF/H5nAwDMIgI8APNeMDUkX+qUAyjNuMm0wDOP2Tx2ABivwQNt6s/J5NJiJ6ztbjkrpNcef1ntpx1qM6RXXjyg3kmdRsMaLDi0XFTtrzyV6XI7+OIT2nU0fOqvWsJt2vXIC263V+extw0WeLI5hk+8rF89e6qx7Q7o8V1t2fHyfDVavuMSmXkyAMx/ca9XvaVBe0y6gl+lJpPOuHf2RBbVSvUVmMnG3cdTUeF0tTWbOjrt2xTSWVFi3W/h6wBgJhHgAZj3AsnBSY0l948PRvSZHw+PWl4/MfZHzN2tyYK32X9y4gFeMBmyllOPWgUAeU48pSeePaT+YTfYSiY02Lpbz9w/RojVv1uPfvdhvXa4W8PRnDDMul2s77ja0r3Jjj6rB+55Vgda+xTLzczMfqEOHXnxhdHj39mian/kZbWFsjeKDXbryFM/06Ov5T6mkPY9+H099PQh9Q5G7aGm0pLRsHoP79Iz9z6gfbmfra3H/vh/3KeX3izw2K37OP7KE3r4/t2nGfvP8vpT1rk7m056a9Zo65Wj59MFMD91lpdqKOB3usw6m7ISSSXd7rC+lmZ7sopRrBNSsvWkPMGA5He6xqb6+kbNbGuOHfH71GHdX5IAD8Ac8Nx+x1cKflkBAONlBjefaz2B5Xqz/Ep3bWp+8+KgNi0q/P3G660JfeOpScxWUcDKoSfUEDODPQEAAGAyPNan2VXd/VrX6YRuedGa36/gu2+Q/8LtSr51ROE7/o8q/tsXlWpr1/B//ECl73+PPM0LFfnu9+WpqVHwne+wu9sOffHvpPT4eZZ0OHi8ukJvNNYq4p96OxgzJAAATAQt8ACcEWpjR1SaLNAtokiVJgdUH3vLXQMAAMBkpDzSkZoKe2KJdNCWZmaSTXZ22d1hvYsXqeR977G3exbUK3jDtfLU19uBXfDqKxS4YKtdtplZaXOYY4YDPh2vLrfH3QOAucDZB8AZwWNVrRoje9214mceq3nMAAAAmJqY36cXFjfaY+LlhXiplFIhtzt/MCD/ju1O2e+Xb81qqbzMDvc8SxbbLfFs4bBSZvILV/pYR2sq1VVRSu0NwJyhCy2AKSuGLrRG1Fuu1yvfo4RnalP7z3QXWp9i2jhwt4JJJrAAAACYLgsHwjrvZLeCiaTdUsV80PXU1cp/7jr7+tNLKdnRpcSBN901KWkdqLWyQrua65WcxqHv6EILYKJogQfgjGECsWXhZ4q6ZZt5bMuGniG8AwAAmGYdlaXa3VSnUDCQmfU61dOr2FPPjHN5Ni+8i/h8OlxTqdcW1k1reAcAk0GAB+CM0hB7S7Wxo+5a8TGPjYkrAAAApl/S41FbVbn2NNWqw+3umv5aNz3BxakWw251Zy0DJQEdWFCtAw01SjDrLIAiQIAH4AyT0uLhlxVIhd314hFIDduPDQAAADPDtJTrrCjV6011en1hnR3EpUM5s+SGeuly+npzGfV5dai+SrsW1utYTYVi1joAFAPORgDOOKXJPp0z+JD8qai7Ze75rMdiHpN5bAAAAJg5JogbCvp1pKZSzy5p1EuLFqitukxRvzPLbG5gZxbTwq63LKjdjbV6cnmz9i2osdcTHlreASgeBHgAzkjliV4tDT8rX2pqE05MB5/iWhZ+znpMPe4WAAAAzLSUR4r4fWqtKtOLLQv04OpF+tm6pbp3xHLfOUv0q2UL9VZ9lcIBn90VFwCKDQEegDNUyh5rbs3gL60TXcLdNvvMfa8JPWI9loPWmvmOFwAAAACAiSHAA3BGq0yc1JrBR1Sa7He3zB5znyZANI8BAAAAAIDJIsADcEbzKKXqeKvWhX6hikSnddIzI57MLHMf5r7WDT5g3fcJ+zEAAAAAADBZBHgAzgpmVloT4q0Y+pX8qYi7dfqZYy+37sPcVyA55G4FAAAAAGDyCPAAnDXMeHT1sUPa3P9DNUdes7u4TkfrOHMMc6zmyOv2sc3Ye3M57h4AAAAA4MxCgAfgrONVXEuGX9a5oft0zuDDqokfn1SQZ25jbmvG2DPHWjL8kn1sAAAAAACmk+f2O77C4EwApuSuO7/pluavmLdMg74F9nLxumqtbCqTPxCU1+ezr08mEorHojrUHtbTe/vtMe4q4l0KpOgmCwAAgIm55WO3uiUAGB8CPABTdiYEeAAAAMBsIcADMFF0oQUAAAAAAACKGAEeAAAAAAAAUMQI8AAAAAAAAIAiRoAHAAAAAAAAFDECPAAAAAAAAKCIEeABAAAAAAAARYwADwAAAAAAAChiBHgAAAAAAABAESPAAwAAAAAAAIoYAR4AAAAAAABQxAjwAAAAAAAAgCJGgAcAAAAAAAAUMQI8AAAAAAAAoIgR4AGYMo/1HwAAAIDTo+4MYDII8ABMWaAk6JYAAAAAnAp1ZwCTQYAHYMoqKivdEgAAAIBToe4MYDII8ABMWW1DnVsCAAAAcCrUnQFMBgEegClram52SwAAAABOhbozgMkgwAMwZS3LljAYLwAAAHAaps5s6s4AMFEEeACmLBAIaMXa1e4aAAAAgEJMndnUnQFgogjwAEyLczac65YAAAAAFEKdGcBkEeABmBY1dXVau2mDuwYAAAAgl6krmzozAEwGAR6AabNlx3bVNTS4awAAAAAMU0c2dWUAmCwCPADTascVlyhYUuKuAQAAAGc3Uzc2dWQAmAoCPADTynQLuOyaqwnxAAAAcNYzdWJTN6brLICpIsADMO0WLGzS1TdcS3daAAAAnLVMXdjUiU3dGACmigAPwIww3zK+/T3vZGILAAAAnHVMHdjUhWl5B2C6eG6/4ysptwwAM6Kvp0f7d7+ht/a9qZT1HwAAAHCm8Vj/rVi7WudsOJfgDsC0I8ADMGtisZhajxxTe1ubert6NBgKKRaJEuoBAABgXjFhXaAkqIrKStU21KmpuVkty5YoEAi4ewDA9CLAAwAAAAAAAIoYY+ABAAAAAAAARYwADwAAAAAAAChiBHgAAAAAAABAESPAAwAAAAAAAIoYAR4AAAAAAABQxAjwAAAAAAAAgCJGgAcAAAAAAAAUMQI8AAAAAAAAoIgR4AEAAAAAAABFjAAPAAAAAAAAKGIEeAAAAAAAAEARI8ADAAAAAAAAihgBHgAAAAAAAFDECPAAAAAAAACAIkaABwAAAAAAABQxAjwAAAAAAACgiBHgAQAAAAAAAEWMAA8AAAAAAAAoYgR4AAAAAAAAQBEjwAMAAAAAAACKGAEeAAAAAAAAUMQI8AAAAAAAAIAiRoAHAAAAAAAAFDECPAAAAAAAAKCIEeABAAAAAAAARYwADwAAAAAAAChiBHgAAAAAAABAESPAAwAAAAAAAIoYAR4AAAAAAABQxAjwAAAAAAAAgCJGgAcAAAAAAAAUMc/td3wl5ZYBYEbFYjG1Hjmm9rY29Xb1aDAUUiwSVcr6DwAAAJgvPNZ/gZKgKiorVdtQp6bmZrUsW6JAIODuAQDTiwAPwIzr6+nR/t1v6K19bxLWAQAA4IxkQr0Va1frnA3nqqauzt0KANODAA/AjHrluRe077Xd7hoAAABw5lu7aYO27NjurgHA1DEGHoAZYVrdPXj3vYR3AAAAOOuYOrCpC5s6MQBMBwI8ANOu82S7fvnzB9TT1eVuAQAAAM4upi5s6sSmbgwAU0WAB2BamW8Zn3zol4pGIu4WAAAA4Oxk6sSmbkxLPABTRYAHYFo99/hThHcAAACAy9SNTR0ZAKaCAA/AtDETVtBtFgAAAMhn6simrgwAk0WAB2BamG4BTFgBAAAAFGbqynSlBTBZBHgApsX+3W+4JQAAAACFUGcGMFkEeACmLBaL6a19b7prAAAAAAoxdWZTdwaAiSLAAzBlrUeOKWX9BwAAAGBsps5s6s4AMFEEeACmrL2tzS0BAAAAOBXqzgAmgwAPwJT1djEYLwAAADAe1J0BTAYBHoApGwyF3BIAAACAU6HuDGAyCPAATFksEnVLAAAAAE6FujOAySDAAzBlTGABAAAAjA91ZwCTQYAHAAAAAAAAFDHP7Xd8hfgfwJTcdec33dL0KUsltDIxoArF3S2z77inXCd85XbZX98r/4JeuzwXUsMlirYtUCoacLcAAABgvrrlY7e6JQAYHwI8AFM23QFeQyqii2KdCirhbpkbb3hr9Ia/xi4Hl7QpsHSOp/yP+xR+Y5WSAxXuBgAAAMxHBHgAJooutACKiml5VwzhXVHyJ1R27kF5gjF3AwAAAADgbECAB6ComG6zhHen4E8o2NzprgAAAAAAzgYEeACKylyOeTdfeEojbgkAAAAAcDYgwAMAAAAAAACKGAEeAAAAAAAAUMQI8AAAAAAAAIAiRoAHAAAAAAAAFDECPAAAAAAAAKCIEeABAAAAAAAARYwADwAAAAAAAChiBHgAAAAAAABAESPAAwAAAAAAAIoYAR4AAAAAAABQxAjwAAAAAAAAgCJGgAcAAAAAAAAUMQI8AAAAAAAAoIgR4AEAAAAAAABFjAAPAAAAAAAAKGIEeAAAAAAAAEARI8ADAAAAAAAAihgBHgAAAADgjOZJScF4UhXRuKojMVUPW4t1WWktpfGEvClrBwAoYgR4AAAAAIAzkj+RVFNoWGs7+7SxvVvntTnLlrYubbYuN5/s0SZrWd/Rq6V9gyqPJdxbAkBxIcADAAAAAJxRTIu7xf1DuuB4p8472a1VPQNqGQirIRxR3XBUNZGYaq3Lemt9YSis5T0hO8S74FiHzunqU0mcIA9AcSHAAwAAAACcETzWYrrEbj/RqS2tXXZAZ8I4Xyplf/g1149ktpnrAomkKqMxndPZr4uPdmjB4LAdBAJAMSDAAwAAAADMe96U1DA4rB3HOtQUCmeCObOcLocz16f3N5cV0ZjOb+3Ssr4Q4+MBKAoEeAAAAACAea9+aNjuBlsVidkhnFkMO5wLBOTbfr78O7aPWnzbt8rbvDAT8qVvG0wkda51vJXdA/IlCfEAzC0CPAAAAADAvFYejWtj++jwLqOmRsEbrlPw3dePWkpuvEH+DefKk3Oj9DFMcLeme0AregboTgtgThHgAQAAnEmqN+iqX79Vt3zMWj78Lm1d6m4/ky3drive/0Hd/Jvu87aW6y53rwNwxjMzzZox70y3VzuDS6Xs1nQpj8deTDLn8fvkKQlaS8moRWYJBKx9vZnbOFldyg3xknZX2oahYXsrAMwFz+13fIXvEQBMyV13ftMtTd2OeKcWJ4fctbn1hrdGb/hr7HJwSZsCS9vs8lxLdNVqeN8Kdw3AmWDt9R/Ulpagu+ZInnxZP7h3l7uWq1Jbb3qf1tS7q67+/d/U/U9Yhcvfo1vOcc5dRmb7mWrpJbrubWtU7XPXXWf88wZgM63iVnX3a11nX6bVnHfFcpX82nvlKS+z97F5vXZQ5zGB3ggpM8ZdPC7FYu4WSzKl6IOPKP7s80olk3ag11pdrteb6hT1Tb0djPmiAQAmghZ4AAAARchbv1ib3HKe6g1aUOuWC3n1gNrDbjnaobaDbvkMtf68laPCu1wVzWu06cprde0tH9TN773E3QrgTFEei2nRgPPlbzqa85SXy1NWKpWVZRfTys5iwrqRi83vz9+/olwqtY5hWu9ZV5ulfnBYdeEIXWkBzAla4AGYMlrgzS5a4AFnnkIt8Ky/dnW98u96+EV31VVx8bv0zvUjmt9Zzs4WZ5W66Ob3aVm1uxo6oucfeVSHOt11S95r23dAd/3wKacMYN4zQdry3pDWdvYpkExmAjzV1si/cb1VgRt5Xp0A63iJNw8pefyEdT/OR+aktRyprdQbjbWKe0e35JsIWuABmCha4AEAABSRWDTqlnyqaznfLadVau1CN7xLhjWc3vWstcxuIJMWG+jIC+8AnNn8yaSqI1H7Mi9O6+1T7OnnlNh3YHLL3n2Kv/hyXnhnmPtYMDRsj4kHALONFngApowWeLOLFnjAmSe3lVisr8+eLTFgr3Roz7fu02v2NZbqC3Xt+9ap1nwFa+03aO1X4VyTbYG38Vq998Jm5/aKqv3Z7+nR1+0Vx4J1uuCCdVrSZN1HuutpMqrhjgN65t4X1D7q9k+of9XlWrPAenzDbXrpOw/ogHVNxarztWXjGjXVlWWPk7CO03Nce556QgdGBGm16y/XjvMWq7osaA9FZSRjUUVP7tY9D2TH+hvvcQu3WnRF2/TKy9KGzPMYqcDrAmDeMZNWnNfWo/pwZFTLFDMRRcXffN5dm6DhYUXu+bkSL73ibnCYD85meWrZQvVY57KpoAUegInyvfvGG/7KLQPApOx++VW3NA2sWtGAJ6BOT+ncL94SDXn87gOzHlokqGR/5ZwviT7rMpzT5ATAvNewZpOaq5y0KtnTqv7SOpWbVV+pvN5dOtRqX6WKrefrvKYyuzx4ol2Juho5ozpJke5X9eYRq9C0WucurpRztIQGj7+uwx32iio27dT1V65XY3Wp8sZg9/jkDybUt+ugukbcPla2WIsa3HNOMqR2a5/gjut15YUrVVseyD+O1zpOeZ1a1qxVQ+KIjrQ7TQRbLn+PrtrSrLKgzwwnleHxWfunQtq955i93jKB4+a+ZqMkQjrZJjVmnsdI+a8LgPmpMprQkv5BBUe2wHMFLrxAntISpQaHlOrslKeqSh7zDUI8oWR7uzMDrRn7zsw629NrnRri9rZUJKr4cy8q1Wtty2HuwwR4vaVB6zw9tQBv49Ytbgn4/9u7s+C4rgO949/tvdFNbCQBcCclClwkipKpXfRItkeWZI9V9jiqmTijVFSTVCpPqbxNHlJJpSoPedSTSlWp0oMSO47GY43HWmzaGlGiNkuiRFIEF5EEd4DYlwZ675t7bl8QC0GyATS6G8D/xznuc25330Z31Vyd/vosQGkI8AAsWDkDvFFfUH0+E55Vv8wM7/ImPKuBQngHLD/TArzEOZ1PtaolbhIsnyLOl80T35gRwHHds+9banbzu4S6/zSsyPbm0gO8+n168jt3Kn6TzMsNvW4I8PyKRKeMYTOP6W/Vzkc2qW62b8sTnGt5vGWN7KNn1Kc9eujPtirmvW722jEd+t3v9dnZftlWXLFgWt98c1la/6gen8N5T5057vz3J6e1d6+fPHfXF/qHv/+jOsz76D2nk85/n3JtuyaDPrMG3i/edJ5HeAcsB/FMcQOLgG3PGuD577xDvtXNKpw6rcxv31bQuYaaXwfsgUFlfvOm/Bs3uKGeMhll3zvkjrzzrV/nXFDTyn38qTQ+sSPQdCPhkPpjC+uPEeABmKupv20CAACgBpy40KusV/c1tRV3o526++xIrzqvevUStdy/WY1TwrtU3xkdefvX7jIIBw6dUs/ITRbUyw/r4qE3ncf9Wgf/dEah3RtUf70HmdfYhS908Fev6fVfHdCRCwl3kXdXcK02PmQqcQWnZoDZpMZGnErfFZ348B299WZxU4nNcz4vgJXOZxfLzRS6veVPQkHZqZRTKT7YzmRkm3DOW8vOTibdEXrXFfLO/Tdf0sU/ZV08AKgURuABWLByjsDrbdii3votGoq1Vr2Y6RSRbML9u1rqx7Rt7aB7W+0SDuQ1wig8YFmZPgKvSyc/HlXrxMgybxptz8Z92rOm+P/7Ixff09GLrdp+f+kj8Hbd/6CairNv3d1aP/n1IV1IFEO71MAVXTh9Qf2mMe350tj5D/TeYTNcLaOxgSFtvm+fmiYuQcPn9Ie3vtRQ2qmnE+rv9Kllyog4fz6nk2eGtH7nZsW9EC9Qv0F33btLm9bVy58YUr/3N9w15/Oav2mttt47edz97Nzjk6ZNtU0PXJ+uC2Dpq8vmtC6RdEfgzcaqiyhw7z2y8gXlT55S4P69soJB2YmE8sdPKrB7p6z6eueiOqrs518qYEbstbZIyaRyH35yPeCbacA5bx8j8ABUGCPwANSUvvrNutB6b02UoTqnA+dpqU/o7o3dNVE2rZm+HguA5ahDF3smpm6Z3Wj3aVdLcVMdaVj9R4s/LszJlF6f2a3VW1bvNjIa67v5Bj7Z8WGNefWiDo3dMOOsU4e/vqKxvNc0/CHVr9uuvc8+p6f3b/AOTirtvABWuoJlKeuzvHF1NyqYde0cVv0qKRRyd5XVLGGfnU5L6ZTcba3NenjjSdm5nHfvJPNMU1KBiZ84AKByCPAAAABqUOf5AZkJX4avfrNa6rzGcK9OmCmoCxCMNWvyJ4r5C4bj13fBLdqt2MQoP8MupnZjX7+rt944oCOnuzWSmpbkqf6uh/Tweq/pKfW8c2b5Z5wXwFKW8fuUvkmY5m44Meb9FBAoDgHOn7vg3s5k55xrSjAkKxpxGrYKvX3OrXfnLBKhyXWSAaBSCPAAAABq0TedGpoYdRYxmz0UqyM9x2aMTivNyPiUNe7qN+vhZx7Stra404irpf0hPfGjJ9RevPeW+kenDIVr3qbHHt8ud2m++jbd89Rurbm+MWNeI72nvLpjpFunPzyg3/3i5zpweHKNPymkSNMCzjsX8bW65w7zngEsBya8SwYDN8/asjk3kJPPJysQVL7zvKypW2FPyOelWEyWGYHnKFwzU/FnP6t5zbHQlIU9AaBCCPAAAABqUqcu9M2cNzrP6bOO08e7pwR/fkXW7dADz/5Ez7/4Ez3x+A611F9PyG6p82TvlPOE1Nj+qJ568QU9/9OntGtjdLJzmexW52FTeVTf/esf6rF9253XMO1mNTWErq+xZ6bpZgfnc97SDKWnBJe+uDY/Yd7zX+mJu71jAJasrM+n0VBQ+ZtNo80X3J1lzc6zVjwmu3f6GpkuE/CZ3WdXxaW6uuIU2p4e93Ym8xoD0bA7bRcAKo0ADwAAoEZd7JgaajkWMn320kF9+c3w5G6u82XOc2Jgygi6WeSH1fnhu+r0msFoszbc+6ie+OkLev7FH+qBOxuud0KzXad0xOyoO4/zlqLn1IzPEMCyYVtSbyyiVOAmU1oLBRV6+92QztfWWtx5dibnMflrPbLCYVmh4g8ZhYFB93YqE96ZoLDHeb28j6/RACqPKw8AAECtunpKQ1MG3A1dnd/02Qldh36jdz4+pZ7hzLTNFQuZpIYuXdQVr307XZ+8qQMHO9Q94zzKZzTSdUZfvvUbfX7JO6aERhPO46YuW+c0smPD6j5+SAfe6bj+nuZ23hJdPaSPDl/UyMSCgo5sX6dOH/caAJa00XBI/dGwG7BNHYXn1t0Ar89t+zZMLrZpuSvkeaPobFu2mTJr1tLzgjk7MTZxr2vi3Gb03WBdxA0OAaDSrJdfeWnqdQ4A5uz1V1/zagt3YtO31dOwxWtV15ZrR7W196hbv2fjNXcH2FpwaaBRH52ujc8IAACg2mKZrB683Ke6bG5qNCfb71Pwz/Yr9P3vSWPjyvz+Dwr95DlpfFy5w0fkv2e3rPp65Y4ckRWJyr+z3Z06O/5f/rtkNrbwmN8TzIYZJ9Y26mp9rCwB3vMvvuDVAKA0jMADAAAAACxZZlOJY21Nypv165z29REqZnTdsLfuQKxOoWe/X6zX1SnwyIOyGuqdb8SWAnvvlb99uxveKZ0u7krrmTiXCe6urYoy+g5A1RDgAQAAAACWtIG6iI63Nk0P8Aq2CpcuK/vuwWL56NPJ+vsfKvvP7xfr732g7MFDbj3992+4TzXnMCPvzG1/XVgn1zQox9p3AKqIKbQAFowptJXFFFoAAIAb+Qu2No6MaXv/iMK5/OQ6dman2VJ5u8+aZ5jAzmxa8XVbs1Mv79A7ptACmCt+QgAAAAAALHlml9hLDXF1tDS5G06YEM6N7izL+b/bF+d/rj9nPBTQ2eZV7qi+cod3ADAfBHgAAAAAgGWhYEnd8ai+bmvSqbUNSoSCbiBnpsNObG7thnre7cyS9ft0oSmuo63Nzu0qtw0AtYCrEQAAAABg2TAbTZjgrrOpXn/atFZfrl+t7lVRZQL+60HdxPp2ppiRe4ORkE6ubdSHm1t1ck2jBurCjLwDUFMI8AAAAAAAy44ZjZcK+NW1qk6H16/RH+5crzd3bNJbM8o7d23UR1tada55lTt11gR6AFBrCPAAAAAAAACAGkaABwAAAAAAANQwAjwAAAAAAACghhHgAQAAAAAAADWMAA8AAAAAAACoYQR4AAAAAAAAQA0jwAMAAAAAAABqGAEeAAAAAAAAUMMI8AAAAAAAAIAaRoAHAAAAAAAA1DACPAAAAAAAAKCGEeABAAAAAAAANYwADwAAAAAAAKhhBHgAAAAAAABADSPAAwAAAAAAAGoYAR4AAAAAAABQwwjwAAAAAAAAgBpGgAegpkQyCa+Gm0mkQl4NAAAAALASEOABqCnrB04rmE97LcyUyfp1pnuN1wIAAAAArAQEeABqSjg7prsvHCTEm4UJ7z44vU3jmaB3BAAAAACwElgvv/KS7dUBYF5ef/U1r1Y+6WBMV5vblQrFvSOVt2bkotYOX3Drm5qHtWnNkFuvBjNt1oy8I7wDAABY+p5/8QWvBgClIcADsGCLEeABAAAAyxUBHoC5YgotgAWznH8AAAAAbo++M4D5IMADsGDBMLuiAgAAAKWg7wxgPgjwACxYLF69deoAAACApYS+M4D5IMADsGCNq5u8GgAAAIBboe8MYD4I8AAsWEtbm1cDAAAAcCv0nQHMBwEegAVbt3kji/ECAAAAt2H6zKbvDABzRYAHYMGCwaC2tt/ptQAAAADMxvSZTd8ZAOaKAA9AWdy1e6dXAwAAADAb+swA5osAD0BZNDQ1qf2e3V4LAAAAwFSmr2z6zAAwHwR4AMpm74P71LR6tdcCAAAAYJg+sukrA8B8EeABKKsHv/2oQuGw1wIAAABWNtM3Nn1kAFgIAjwAZWWmBTz+vScJ8QAAALDimT6x6RszdRbAQhHgASi7Na0tevLZp5hOCwAAgBXL9IVNn9j0jQFgoQjwACwK8yvjnz/3Aza2AAAAwIpj+sCmL8zIOwDlYr38yku2VweARTE8OKhvOk7q/Omzsp1/AAAAwHJjOf+2tt+pu3bvJLgDUHYEeAAqJpvNquviZfV0d2uof1BjiYSy6QyhHgAAAJYUE9YFwyHF4nE1rm5SS1ub1m3eqGAw6D0CAMqLAA8AAAAAAACoYayBBwAAAAAAANQwAjwAAAAAAACghhHgAQAAAAAAADWMAA8AAAAAAACoYeXdxMK2lcsX3CLL5xTLu6N6/M6fEPSbv8U7AAAAAAAAACwhZQvwCoWCegZG9dnXnTp1vk92fKt8wTr5fdVLznyWpfXNQT15T73WrAoS4gEAAAAAAGDJKdsU2uFEUgc+PK6PvjyrgZExZfO2zEC8TM6uWkllCzp3Le2Wgl2+gYYAAAAAAABApZQlwCvYBV3sGtCpC9ecVu0FZalMoQb/KgAAAAAAAOD2yhLg2QVbvQOjyufz3hEAAAAAAAAA5VC2KbQ5wjsAAAAAAACg7MoW4AEAAAAAAAAoPwI8AAAAAAAAoIbVZIBn27bsQt4pOa84dXaRBQAAAAAAwApUMwGeCepy6TFlxgeUHu1WcviykoOX3JIauapMokfZ5JDy2SRhHgAAAAAAAFaMqgd4ZnRddnxQyaHLGh84p/G+M0oOdCo9fEXp0S63pIYuabz/nMac+8ad+1LDl5VLjxLkAQAAAAAAYNmraoBXyKWUHLyg8YHzSo90KW9CuULOu3cmW3Y+o1xySCkT9vWbkO+qCs4xAAAAAAAAYLmqWoBnRtAlek4rnehRIZd0jkwfTWdZlsLBoIKBgFufzlY+k1Bq+IobAJpptQAAAAAAAMByVJUAL5saVqLnlBvCyS54R6f7988/pf/8736iv/vbH+t7D+9RKBDw7plk2zllEn0aH7igQi7tHQUAAAAAAACWj4oHeLl0wp3+aqbD3sq2DS2KhkOK10W0uiGucCjo3TOTrVxyQMmhS+56egAAAAAAAMByUtEAr5DLuNNeCyVMec3lJ0fmFWz7thtWmF1qzXTcmVNxAQAAAAAAgKWsYgGeCeCyyQHl0iOmVTx4C18cP6tT56/qxLnLOn+1V6ls1rvn5szmFqyHBwAAAAAAgOWkcgFeLqXM+KDs/O2DOOOfDn6h13/3sV7//Sf68kSncrnbT4+1C1mlhq+aWvEAAAAAAAAAsMRVKMCzlcuMK58e9dq3l83lNDqe1FgypVy+9LXtsskh5bMprwUAAAAAAAAsbRUJ8OxCQbnMmHOb844sHvMaZpdbAAAAAAAAYDmoUICXUz4z7rVurX3LOn33oT363sPF8sQDd2tj22rv3hLYtvKp0kf6AQAAAAAAALWsMgGeXXDXwLudaDikZ/bfr6cf36vvP1YsP/j2/Xr03nbFohHvUbdjK++81u12rQUAAAAAAACWgsqsgWfbKpQwfdbn88myLK81yeccM6VkJryzS183DwAAAAAAAKhVlRmBV+KusGazisHhhEbGkt6R+XJekRF4AAAAAAAAWAYqEuC5o+pKGEGXzmR18PMOvfX+Ye/IfFnOy1VmcCEAAAAAAACwmCoT4Dn/fP6Q17q1C129+vJkp9eaH8sXcAoBHgAAAAAAAJa+yqRcPr/8gVI3oVgoS/5g1L0FAAAAAAAAljrr5VdeWvBicfl8Xgc+7tDBz065bcsfVLx1twKhmNs2u9CmR7uVHDjvtkvxP//T33g16XDHOb31wZcaHS9hbTzLr9ja7QrVrfYOSI+0x/X4rlXy+wj1gGrKZrPqunhZPd3dGuof1FgioWw6U/I6mQAAAEAtMLPMguGQYvG4Glc3qaWtTes2b1QwGPQeAQDlVaE18Hzyh2KyShiFFwoEFHUuhFP5/T5FwkH5S5gWa6bPBiONXgtALRgeHNTnH36sf/zfv9Sn7x9S5+kzGuzvVyadJrwDAADAkmP6sKYva/q0pm9r+rimr2v6vKbvCwDlVrGF4sy01mCk3qndfBRcwO/Xv/j+o/q7v/2xd6Tonrs26z/89dPau3OrfLfcDMNSpL5Nls/vtQFU25HPvtDv3/it27EhrAMAAMByZfq6ps9r+r6mDwwA5VSxAM9sYhGMNsm6xWYW4VBQa5vrFZk5As/nUywSVktT/S03pzCj/MKrWr0WgGoyvzz+4Tdv6fTXHd4RAAAAYGUwfWDTF2Y0HoByqViAZ1j+gHy3GB1XKBTccjO5/M3vM8FgtHGzO4UWQHX1XevRe28fcKcUAAAAACuR6QubPrHpGwPAQlU0wCtk0yrks17rRulMTh9/dUqHvjypD2eU9z8/oZOdV2YN+ExoF2nYoEC0wTsCoFrMr4wf/vE9d00QAAAAYCUzfWLTN2YkHoCFqliAZ3aizedSsgs578iNCs5jvjp1QX/4+JgOfDK9vPunY7rSM+CcZ/oaWhPhXTi+VtYt18cDUAmfffAx4R0AAADgMX1j00cGgIWoXICXz6qQTZpa8cBN5PJ5JZ0LXDI1o6QzN4Z3/rCiTVsVdjeuYOosUG1msV6mzQIAAADTmT4yG1sAWIiKBXiFfEaFXMprzWRGzk2U27FkWX4Fo81a1bpL4VUtbhtAdZlpAWxYAQAAAMzO9JWZSgtgvio6hdYu5L1WkWUF5AtE3bXrwvXrFKxrlj9Y546ss/xBd1SdW/wh53ER+UNxhVa1Kta6U7GWHU67zjsTgGr7puOkVwMAAAAwG/rMAOarYgGePxBWMNroBnb+UEzButXu2nWxtdsVb9mhuuatiq9tV9yEc6vvVLRxiyKNm9ydZaPNWxRb4zyubZdz3x0KRhpY7w6oIdlsVudPn/VaAAAAAGZj+sym7wwAc1WxAM8XCCvSsF51zVuccodia+5UpHGDAuFVk1NgLcsdaResa3Snxkbq17nr24VjaxWI1MvnCxYfB6CmdF28LPs261sCAAAAK53pM5u+MwDMVcUCPLN2XTGca1YgsopNJ4BlpKe726sBAAAAuBX6zgDmo4IBHoDlaqifxXgBAACAUtB3BjAfBHgAFmwskfBqAAAAAG6FvjOA+SDAA7Bg2XTGqwEAAAC4FfrOAOaDAA/AgrGBBQAAAFAa+s4A5oMADwAAAAAAAKhhKyLAsyyvAgAAAAAAACwxyz7ACwYsra0PykeIBwAAAAAAgCXIevmVlxY8AT+fz+vARx06+PlpNa2KamPraq1qXi+fPySfr3oZYTDo14Y1EW1riygSZLYwsFhef/U1rwYAAADgdp5/8QWvBgClKVuA9+4nJ3Xl2qAe37tdsWhIPqv6gVk4ElR9fVR+P+EdsJgqFeDlnGtN3+CwhkZGNDo2rlQ64x6z7aW9ELBlWQr4/YqEQ1oVq1Njfb3WNDW4xwAAALD8EOABmKuyJVvNDTHt37tdjfGogs6XTr/Pul7M9NWFlFLONfUxUwvr3wFL39h4UifPndcHn3+ljjPndLWnzw3wsrnckg/vDPMezHsx78m8N/MezXs179m8dwAAAADAylaWAM+MHtmwtkEN8ah3ZJL5YppOpzU+Pj7vkslk3POYkX6z3W/OXygUvFcEsJycuXBJnx497gZbyyGsK5V5r+Y9m/duPgMAAAAAwMpVlgDPZ1mK10W81nTmS2gqlXJDtvmWbDbrnsfczna/KSvpiz2wEpiRZ58d69DFrmvekZXLfAbms2A0HgAAAACsTOWZQmvWbwrOvlaTGZ1XV1e3oBIOh93NMEKhkGKx2A33R6NR93UALA9Dowkd7jjlTildKHNliJjrUIklWHzaLfmdk4adM0+UiFdmP1b8GxbKfBbmMzGfDQAAAABgZSnLJhZGPl9QYjSpTDrnHam+aDSk2Crnq3QNbKgBLGfl3MTCjDIzQZVZE64copal/xiIqnFajGbqMy99xWNHldcvsqkb7p1qrz+ox6xSoj4pqYL+bz6tVJlGCQcDAX1r9w7F6m5csgAAAABLA5tYAJirsiVbfp9P8XhE0bqQ/H5v84gqFfPaZkRgKBwgvAOWmI6znWUL7wwTm5k4bvplYmZ78tgm57IYdi9gt2Db8jknLql4TykX89mYzwgAAAAAsHKUbQTedc4XW/eE1V6TzvkCbv6538gBLKpyjcAzmzWUe807M332Z/6wdlizT/OfyVy5/lchqTP5m2+Mc58/qMdLmmwrJa2Cfl7GEXgTNq9r1fYtm7wWAAAAlhJG4AGYq/IPTzPBmSk+X3WLGUFDeAcsGWbq7GJtWJF3LgaJEgM0c9n4ji9U85cP81mxqQUAAAAArAzMLwVQEy51L95us+ZCN6Sbj6ib6U75tdpX+5fHxfzMAAAAAAC1gwAPQNXl8nl19fZ7rcVgK2NrDhGe1O4rbcptNZnPzHx2AAAAAIDljQAPQNX1DQ7LXsR1M810WBPe3Xpv2Unm8TtvsWbeYv6tc2H+DvPZAQAAAACWNwI8AFU3NDLi1RaPX5a67dLH4N1h+d0NMGbjrrFZIyrx2QEAAAAAqosAD0DVjY6Ne7XFYy52iYKtTLF5W0Fb+rZ/9p1ma2UEnlGJzw4AAAAAUF0EeACqLpUuNVZbCEtBpwzPYRTew1ZQ4QWPtlvc0XqV+ewAAAAAANVEgAeg6iqxEYOJ0YLO/4zOYfRc1CktswR4c5tCu7ij9djEAgAAAACWPwI8AFVXqSmpPsvWmPNSpUZeAafs8Jn/na6WptDW0t8CAAAAAFgcBHgAVgy/88/oncM02gd9s6yDt7izYgEAAAAAmIYAD8CKYdmSieN6CnbJo/AanefsvGEUHgkeAAAAAKByCPAArCh+qziFNj2Hten2+QMzIjtbNhkeAADAkmF+yA3lCoplcqpPZ1WfcopzG3dKJJeXj2VJANQ4AjwAK4rfstyJtCNz6KNtcC6VU3ejpXsHAACwNATyBbUkUmrvG9bdPQPa010se7v7da9ze++1Qd3jlF29Q9o0PKa6LBuEAahNBHgAVhRLtrs5RU+h9M5Zs/Os9VN3nrUtFUyMxyg8AACAmmRG3G0YGdcDV/q059qA7hgc1brRpFYn02pKZdSQzqrRuW122q2JpLYMJtwQ74HLvbqrf1jhHEEegNpCgAdgRfHJUtCylLEtjZY4VcLkdN/xh6bldTbj8AAAAGqO6a+ZKbH7rvZpb1e/G9CZMM7v9PvMl9/Zfn81x8x9wXxB8UxWd/WN6JFLvVozlnKDQACoBQR4AFYYy7nw2e402mtz2I32LucZzVbxkumOvnPOQ38OAACgdvicztnqsZQevNyrlkTyejBnyu36bcXeXfGx5jaWyeq+rn5tHk6wPh6AmkCAB2BFMb+imk5ZyKmMOfVSJ0eY5+zwFS+ZpguXdzpyTKMFAACoHc3jKXca7Kp01u2iTXTTTN/NCgbl33efAg/uu6H4990vX1vr9ZBv4rmhfEE7nfNtGxiVvzBxLwBUBwEegBXHb/nczSwyTj9sLrvR7rDM6nlmBJ4pxS4hXTkAAIDqq8vkdHfPjeHddQ0NCj37tEJ/8cwNJfyjZxXYvVNTlzyeOIcJ7rYPjGrr4CjTaQFUFQEegBWoOIU24PTCLhdKn0a7zfKrzuvZ5Z0OXHEqLT05AJhug/Y+9Zx+/K9f0PMveuUvH5X2PzfZfvE5PeA9Wpse1dN/Uzz+0+e/q/Z67zgAlMjsNGvWvDPTXt2eml1crdh2+m2mmGTOCvhlhUNOCd9QZEow6DzWd/05xR6e7YV4BXcq7erxlHsUAKrB/xc/eva/eXUAmJeOr456tfnpvHzVq5VfwOmA7fEFFJzyO6zldsps5Z1jw04Hr9XncwO92zHj7zLOacxz1qv4HJ/pEE4590w5y9YxO6+c114M2zau92oAVpbdeuJfPaOHHtiru+83ZZfW5i7oQk/Gu3/SA3/5gh5/pPi49racTp7p9e4ptw3Oaz2h7S1R+af+TJweUMdYTHevjkwc0NBXp2Su/u2PPa4tDcWrsBWKyJc4rguL9ecBWHbMqLhtg6NaPzru9sjcwG3bVkX/7b9R6M+fVOiJ/W4JPrhPCoXcfuBs/Bs3KLT/0euPD337cafjl5V9tcsNBAOF4iYYA3UR5X037/uVylyPAWAuGIEHYEUyfTfzddHv3A7NYTOLh7ww0KydZ6bRFkfhAUAtCKllz6Nq91rlF1dL+316+Jkf6gf/8md6er93eKq9e66HcaU6ffyiRrLFeiHRra7jxToAlKIum3XDO2MiVrPq6mRFI1I0OlnMKDuHbUbnzSiuQGD642N1UsQ5h/tjbfHczWMpNSXTTKUFUBWMwAOwYEttBJ6pmn6X6a+ZUXgmvlvt7TB7OwHn8decZzjdQvfck6PwZscIPACLZ6223rtesal5WSCuxjXjOn1uwDtQtH7XXjV5g98Kia55jsDbrgeeuU/rG6MKBXxKDxzV2YveXZ7Yjj1qbw55rYSuHDqg3/3xU3WcuCxt3jHrCDyNXNbZo0fd/5ac6Ligfvd+ALg9E6StH02qLZGU3+nYTfTH7GxW9tiY8ucvKn+2c37lm7PO7TnZIyPueU0xr5Hz+9xReAXza/ACMAIPwFwxAg/AyuN09nymOP0uv9MdG3E6Y6WOpDPTaO+0fO4IvJz7PEbhAagtkU179Ngmr1FhG+omwjtHJqG+b6YHiQBQToFCQfXpjHs7LU4bGlb2k8+UP31mfuXUaeUOf6XClauyzC++HvMaa8ZT7pp4AFBp1suvvMQ3TwAL8vqrr3m1+Xn3k8+9WvlFLEs/84cVtaf/XmE7PbCsCko7/a9xp2O2yW+pzSpt2ldKto7k8go75446JWjZCpjfQ2a5miatgn6eTys1pfNXbt995PpS8ABWFLMG3j61eJlZNpNRMOQ1Rjp16FeH1FVsuWvgbWso1rNdX+iNdzqKDaN+m/Y+vEfb1jUo6F0GC5mkRi4d02fvn9KQ025/5q+0d92UcG6qTLeOfOX8NQ+1Kegdmi6jnj/9UgebntPzd3l/hIbV+epv5F79zeYWM45f+c5PtH9r3DvmvJ1vDuh3h7rdeuyhH+qZu5u9X6Gdc3/2pg5+nXBbAFYWs2nFnu5BNSfTN4xMMRtRxP7Hf/Vac5RKKf1Pbyv/5RHvQJHpzZny8eZWDUZvck0skdm4BwDmghF4AFYkM+XCXADNCDyzDl5XwYymK03Eec4qX3EUXt4L5hYvngOAEvV3a8hcmIz6zbp3/wavcQv1u/XED/erfeNkeGf4QlE13vmQnvzRPrV4xyqp65+PqTvpNRz1W/Z4a/tt17fumAjvTBh5TJ8T3gErVihvK5IzC6LMwumj2aPO9cGyZI+Nq2A2o3BYTh9O+YIK3deci0jWvd99zOCQ7IT3eOd+e2jYffxUE68TT9+4WRAALDYCPAArls/phlmW7YZ4Wack5xDDtZjOnXNrQj/zfdnpIprDAFBFvTpydtj7McKv+jv26YFbLpHZpge+e59avGXpsj0d+vRXr+mtt4+pJ1U8FlyzQ/fslU6/80u9/uoXmrrB7cg3r7kjsF//Pwd0+vgBveHUj3RNeYAZmWfuf/WXOjjnjSnO6PDX3c612RNq07b9bYo9skNtUe9YtldnPurQmNcEsPKYqaxm+uzNFK52u0Fe4Vyn0v/vH5zrRq64ccXQkDK/fVt2n7fqZiaj7EefKn/ytPt4Oee0R0eL981gQrxoduLXEgCoFOn/Axav+bTT2RWZAAAAAElFTkSuQmCC;movable=0;resizable=0;rotatable=0;deletable=0;editable=0;connectable=0;" parent="1" vertex="1">
          <mxGeometry x="230" y="50" width="924" height="665.95" as="geometry" />
        </mxCell>
        <mxCell id="hhoL0Yq2MwJK9wanIXYg-3" value="&lt;font color=&quot;#6e5d57&quot;&gt;&lt;b style=&quot;font-size: 15px;&quot;&gt;CHANGE PASSWORD&lt;/b&gt;&lt;br&gt;&lt;div style=&quot;&quot;&gt;&lt;span style=&quot;font-size: 15px;&quot;&gt;&lt;b&gt;From this window, you can change your app access password&lt;/b&gt;&lt;/span&gt;&lt;br&gt;&lt;/div&gt;&lt;/font&gt;" style="rounded=1;whiteSpace=wrap;html=1;strokeColor=#6e5d57;strokeWidth=5;fillColor=default;gradientColor=none;spacingTop=0;spacingLeft=0;spacingBottom=0;spacingRight=0;spacing=20;align=center;" parent="1" vertex="1">
          <mxGeometry x="557" y="70" width="270" height="100" as="geometry" />
        </mxCell>
      </root>
    </mxGraphModel>
  </diagram>
</mxfile>
